<svg width="163" height="35" fill="none" xmlns="http://www.w3.org/2000/svg"><g clip-path="url(#clip0)"><path d="M12.704 15.53l.787 3.659h5.721l1.948-3.409-1.575 8.937h7.628L31.44.525h-8l-5.597 9.644L15.647.525H7.729l-4.27 24.192h7.628l1.617-9.186zm39.009 9.187h9.451l4.353-5.528 2.944 5.528h8.125l-6.301-11.722L80.15.525H70.7l-4.187 5.32-2.777-5.32H55.61l6.094 11.473-7.09 9.02-2.901 3.7zm-14.717 0l2.363-5.528h3.814l.456 5.528h7.752l-.539-3.658L47.775.566h-6.633L29.12 24.717h7.876zm4.104-9.893l1.576-3.616.248 3.616H41.1z" fill="#fff"/><path d="M86.37 27.378l3.067-17.334h-7.586l-4.27 24.11h17.162l1.203-6.776H86.37zm15.255-17.376l-4.27 24.11h7.628l4.27-24.11h-7.628zm23.257 0l-1.783 10.226-5.472-10.226h-5.804l-4.27 24.11h7.628l1.783-10.143 5.389 10.142h5.886l4.27-24.109h-7.627zm25.578 6.818l1.16-6.776h-16.54l-4.27 24.11h16.582l1.161-6.776h-8.955l.373-2.287h6.385l1.16-6.401h-6.384l.29-1.87h9.038zM2.962 27.378L.599 34.153h74.329l1.202-6.775H2.962z" fill="#009A17"/><path d="M82.307 7.384L83.51.608h71.221l-2.612 6.776h-69.81zm77.438-5.904c.332 0 .664.084.995.209.291.124.539.29.83.54.248.25.414.499.538.832a2.5 2.5 0 01.208.997c0 .457-.083.873-.332 1.247-.249.374-.539.707-.912.915-.414.25-.829.332-1.244.332-.456 0-.87-.083-1.243-.332-.415-.25-.705-.54-.912-.915-.249-.374-.332-.831-.332-1.247 0-.416.083-.873.332-1.247.248-.374.539-.707.912-.914.29-.333.704-.416 1.16-.416zm0 .5c-.373 0-.704.083-1.036.25a1.91 1.91 0 00-.705.706c-.207.29-.248.665-.248.997 0 .333.083.707.248.998.208.291.415.54.747.707.29.166.663.25 1.036.25a2.24 2.24 0 001.036-.25 1.92 1.92 0 00.705-.707c.166-.29.249-.665.249-.998a2.09 2.09 0 00-.249-.997 1.914 1.914 0 00-.705-.707c-.373-.166-.704-.25-1.078-.25zm-.58 3.325h-.539v-2.66h1.244c.207 0 .373.041.497.083.125.083.249.166.291.25.082.083.082.249.082.373a.69.69 0 01-.207.5c-.124.124-.29.249-.539.249a.478.478 0 01.29.208c.083.083.166.249.291.415l.331.54h-.663l-.249-.415c-.083-.208-.207-.333-.249-.416-.082-.083-.124-.166-.248-.208-.083-.041-.166-.083-.249-.083h-.124v1.164h.041zm0-2.203v.707h.415c.207 0 .373-.042.456-.083.083-.084.165-.167.165-.291 0-.084-.041-.208-.124-.25-.083-.083-.249-.083-.414-.083h-.498z" fill="#fff"/></g><path d="M149.842 11.797v22.314h9.775V11.797l-4.882-4.7-4.893 4.7zm5.985.256c0 .651-.493 1.188-1.092 1.188-.598 0-1.091-.537-1.091-1.188 0-.652.493-1.188 1.091-1.188.599-.013 1.092.523 1.092 1.188z" fill="red"/><path d="M154.278 13.126a.726.726 0 01-.164-.103c.035-.089.07-.178.082-.28a1.56 1.56 0 00.023-.473v-.051c0-.051-.011-.115-.011-.166a5.075 5.075 0 00-.2-.882 5.888 5.888 0 00-.634-1.328c-.293-.447-.54-.677-.716-.728-.035-.013-.07-.026-.105-.013h-.024c-.082.026-.14.128-.176.294l-.223.217c.024-.345.106-.575.247-.677a.222.222 0 01.094-.051c.047-.013.082-.026.129-.013.07 0 .152.026.223.077.293.166.575.562.716.766.234.358.469.83.633 1.329.082.23.153.472.2.715l.035.23c.012.076.024.153.024.23v.038c0 .32-.036.626-.153.869z" fill="#FF2206"/><path d="M154.829.608v10.333c0 .677-.141 1.099-.399 1.252-.011 0-.011.013-.023.013s-.012.013-.024.013a.435.435 0 01-.176.038h-.023c-.188 0-.376-.09-.54-.192v-.025c0-.077 0-.153.024-.217.164.115.363.23.539.217.024 0 .059-.013.082-.013.012 0 .024-.013.036-.013a.234.234 0 00.07-.05c.082-.077.141-.205.188-.371a3.44 3.44 0 00.059-.664V.608h.187z" fill="#fff"/><path d="M154.571 11.606a5.434 5.434 0 01-.141.6c0 .013-.012.025-.012.038a3.027 3.027 0 01-.223.498l-.14.23c-.047-.05-.106-.09-.141-.153.117-.192.211-.383.281-.562.012-.013.012-.038.024-.051.023-.064.047-.128.059-.179a1.35 1.35 0 00.07-.294 2.9 2.9 0 00.047-.83 3.12 3.12 0 00-.176-.792c-.282-.792-.81-1.316-1.138-1.443a.697.697 0 01-.094-.039c-.141-.025-.247 0-.317.077a.447.447 0 00-.082.153 1.07 1.07 0 00-.047.218v.114l-.188.18a1.47 1.47 0 01.023-.448.624.624 0 01.165-.357c.117-.128.281-.18.493-.14.07.012.152.037.223.088.399.218.891.78 1.161 1.52.094.269.153.55.188.818.012.268 0 .51-.035.754zm-.599 16.7c.316.056.556.214.721.473.197-.26.476-.365.837-.316.313.043.566.19.759.443.189.25.284.583.284 1v1.527l-3.686-.647v-1.4c0-.366.102-.65.305-.854.204-.204.464-.28.78-.226zm-.243 1.216v.469l.58.1v-.464a.398.398 0 00-.074-.242.321.321 0 00-.216-.126c-.088-.014-.158.003-.211.052-.052.046-.079.116-.079.211zm1.691-.137c-.095-.018-.17-.002-.227.047-.056.046-.084.122-.084.227v.574l.621.11v-.568a.401.401 0 00-.084-.258.381.381 0 00-.226-.132zm1.232-2.931c0 .372-.093.697-.279.974a1.52 1.52 0 01-.732.59 1.799 1.799 0 01-.969.084 2.237 2.237 0 01-1.327-.743c-.358-.403-.537-.893-.537-1.469 0-.558.196-.992.59-1.3.389-.313.849-.425 1.379-.337.534.09.98.337 1.338.737.358.396.537.884.537 1.464zm-1.201.568c.186-.15.279-.368.279-.653 0-.284-.093-.538-.279-.763a1.16 1.16 0 00-.721-.416c-.291-.053-.53-.002-.716.152-.19.155-.285.374-.285.659 0 .284.095.537.285.758.186.218.425.353.716.405.295.053.535.006.721-.142zm1.122-2.891l-3.686-.648v-.732l1.927-.958-1.927-.342v-.938l3.686.648v.727l-1.927.958 1.927.343v.942zm.079-5.023c0 .45-.121.797-.363 1.043-.243.242-.552.33-.927.263l-2.475-.437v-.942l2.385.421c.309.056.464-.09.464-.437 0-.344-.155-.544-.464-.6l-2.385-.416v-.943l2.475.437c.414.074.734.256.958.548.221.291.332.646.332 1.063zm0-3.283c0 .393-.081.71-.242.953-.165.242-.39.402-.674.48l-.432-.838c.305-.098.458-.323.458-.674 0-.288-.084-.448-.253-.48-.116-.02-.212.06-.289.243-.014.028-.06.156-.137.384-.109.323-.257.567-.443.732-.186.165-.44.22-.763.164a1.176 1.176 0 01-.785-.48 1.556 1.556 0 01-.284-.932c0-.309.074-.574.221-.795.144-.225.351-.39.621-.495l.432.806c-.256.116-.384.302-.384.558 0 .221.079.348.237.38.088.02.161-.011.221-.096.056-.084.125-.242.205-.473a3.81 3.81 0 01.158-.395c.049-.102.121-.208.216-.316a.664.664 0 01.353-.227 1.18 1.18 0 01.5-.01c.348.063.613.228.795.495.179.266.269.605.269 1.016z" fill="#fff"/><defs><clipPath id="clip0"><path fill="#fff" transform="translate(.599 .192)" d="M0 0h161.676v34.086H0z"/></clipPath></defs></svg>