<svg width="266" height="54" fill="none" xmlns="http://www.w3.org/2000/svg"><path d="M11.227.685L.079 53.76h256.488L265.783.685H11.227z" fill="#fff"/><path d="M60.447 12.75l-4.92 28h-8l3.56-20.24h-6l-3.56 20.24h-8l4.92-28h22zm13.615 28.64c-3.04 0-5.64-.746-7.8-2.24-2.16-1.52-3.666-3.413-4.52-5.68-.826-2.293-1.04-4.693-.64-7.2.64-3.866 2.467-7.186 5.48-9.96 3.04-2.8 6.774-4.2 11.2-4.2 2.294 0 4.347.44 6.16 1.32 1.814.854 3.24 1.987 4.28 3.4 1.04 1.414 1.774 3.014 2.2 4.8.427 1.76.494 3.574.2 5.44-.613 3.894-2.413 7.254-5.4 10.08-2.96 2.827-6.68 4.24-11.16 4.24zm-3.96-9.76c1.067 1.28 2.587 1.92 4.56 1.92 1.974 0 3.72-.64 5.24-1.92 1.52-1.306 2.454-2.933 2.8-4.88.347-1.946-.013-3.56-1.08-4.84-1.066-1.306-2.586-1.96-4.56-1.96-1.973 0-3.72.654-5.24 1.96-1.52 1.28-2.453 2.894-2.8 4.84-.346 1.947.014 3.574 1.08 4.88zm17.909 9.2l1.28-7.44c1.413.08 2.453-.146 3.12-.68.667-.533 1.147-1.64 1.44-3.32l2.92-16.64h20.56l-4.92 28h-8l3.56-20.24h-4.56l-1.72 9.84c-.32 1.867-.813 3.48-1.48 4.84-.64 1.36-1.4 2.414-2.28 3.16a10.513 10.513 0 01-2.92 1.8 9.039 9.039 0 01-3.36.72c-1.147.054-2.36.04-3.64-.04zm48.526-28.08h8.8l-11.24 19.36c-1.813 3.094-3.906 5.294-6.28 6.6-2.373 1.307-5.32 1.987-8.84 2.04l1.32-7.44c2.134-.026 3.974-.666 5.52-1.92l-6.08-18.64h8l3.24 10.68 5.56-10.68zm25.216 0h8l-4.92 28h-8l1.48-8.4c-1.173.214-2.4.32-3.68.32-3.653 0-6.267-.92-7.84-2.76-1.573-1.84-2.08-4.36-1.52-7.56l1.68-9.6h8l-1.64 9.44c-.16.934.027 1.614.56 2.04.56.427 1.453.654 2.68.68.96 0 2-.106 3.12-.32l2.08-11.84zm23.526 28l-.32-3.6h-8.08l-1.6 3.6h-8.84l13.84-28h9.36l4 28h-8.36zm-5.56-10h4.64l-.8-8.6-3.84 8.6zm24.806-19.96l1.04-6h14l-1.04 6h-14zm-9.28 29.96l4.92-28h8l-2.16 12.4 10.96-12.4h6.4l-4.92 28h-8l2.16-12.4-10.96 12.4h-6.4zm33.228-11.4c-1.28 0-2.293-.453-3.04-1.36-.72-.933-.973-2.04-.76-3.32.213-1.28.84-2.346 1.88-3.2 1.04-.88 2.213-1.32 3.52-1.32 1.28 0 2.28.467 3 1.4.72.907.973 2 .76 3.28-.213 1.307-.813 2.387-1.8 3.24-.987.854-2.173 1.28-3.56 1.28zm-2.12 12c-1.28 0-2.293-.453-3.04-1.36-.72-.933-.973-2.04-.76-3.32.213-1.28.84-2.346 1.88-3.2 1.04-.88 2.213-1.32 3.52-1.32 1.28 0 2.28.467 3 1.4.72.907.973 2 .76 3.28-.213 1.307-.813 2.387-1.8 3.24-.987.854-2.173 1.28-3.56 1.28z" fill="#009A17"/></svg>