<svg width="1920" height="503" fill="none" xmlns="http://www.w3.org/2000/svg"><g filter="url(#filter0_d)"><path fill="#2CDC00" d="M-392.42 50.996l2505.593 580.365-6.502 28.07L-398.923 79.067z"/></g><path d="M128.692 178.744l4.323 1.001-6.164 14.518-4.324-1.002 1.852-4.354a11.47 11.47 0 01-2.03-.288c-1.974-.457-3.271-1.282-3.891-2.473-.62-1.192-.579-2.617.124-4.277l2.11-4.978 4.324 1.001-2.068 4.897c-.203.485-.188.876.047 1.173.25.301.704.535 1.364.703.519.12 1.094.193 1.726.218l2.607-6.139zm14.722 7.556l-5.513-1.277-.661 1.578 4.972 1.152-1.593 3.731-4.972-1.152-.694 1.616 5.621 1.302-1.613 3.818-9.945-2.303 6.165-14.518 9.837 2.278-1.604 3.775zm9.388-1.972c1.47.341 2.546 1.137 3.228 2.388.7 1.24.73 2.683.091 4.327-.598 1.532-1.576 2.641-2.935 3.329-1.341.676-2.906.808-4.693.394l-1.729-.401-1.749 4.105-4.323-1.001 6.164-14.518 5.946 1.377zm-.911 5.507c.165-.387.156-.708-.028-.963a1.219 1.219 0 00-.768-.52l-1.621-.375-1.004 2.364 1.73.401c.331.076.659.038.983-.114.327-.167.563-.432.708-.793zm15.822-2.053l4.324 1.002-6.165 14.517-4.323-1.001 2.264-5.353-3.675-.851-2.265 5.353-4.324-1.002 6.165-14.518 4.324 1.002-2.193 5.141 3.675.851 2.193-5.141zm9.205 18.078l.278-1.986-4.367-1.011-1.316 1.745-4.777-1.107 10.985-13.401 5.059 1.172-1.343 15.635-4.519-1.047zm-1.753-6.101l2.508.581.644-4.748-3.152 4.167zm25.212-4.434l-6.186 14.513-4.324-1.002 1.945-4.561-.368-.085-4.647 3.935-4.93-1.142 5.51-4.509a4.068 4.068 0 01-1.254-2.455c-.11-.967.055-1.908.495-2.824.602-1.288 1.586-2.26 2.953-2.915 1.366-.655 2.951-.774 4.752-.357l6.054 1.402zm-9.679 3.43c-.172.416-.175.788-.007 1.115.181.33.49.539.926.624l1.643.381 1.158-2.739-1.643-.38c-.447-.104-.859-.062-1.236.124-.374.171-.654.463-.841.875zm28.03.844l-6.164 14.517-4.324-1.001 4.458-10.494-3.243-.751-4.458 10.494-4.324-1.002 6.165-14.518 11.89 2.755zm13.656 3.14l-6.186 14.513-4.324-1.002 1.945-4.561-.368-.085-4.647 3.935-4.929-1.142 5.509-4.51a4.063 4.063 0 01-1.254-2.454c-.11-.967.055-1.909.495-2.824.602-1.288 1.586-2.26 2.953-2.915 1.367-.656 2.951-.775 4.752-.357l6.054 1.402zm-9.679 3.43c-.172.416-.174.787-.007 1.115.181.33.49.538.926.624l1.643.381 1.158-2.739-1.643-.381c-.447-.103-.859-.062-1.236.124-.374.172-.654.464-.841.876zm22.405-.46l-1.706 4.024-3.568-.826-4.458 10.494-4.324-1.002 4.458-10.493-3.567-.827 1.707-4.024 11.458 2.654zm9.292 2.153l4.324 1.001-6.164 14.518-4.324-1.002 2.265-5.352-3.676-.851-2.265 5.352-4.323-1.001 6.164-14.518 4.324 1.001-2.193 5.142 3.675.851 2.193-5.141zm.32 16.019l6.164-14.517 4.324 1.001-2.719 6.432 7.476-5.33 3.459.801-6.165 14.518-4.324-1.002 2.72-6.431-7.476 5.33-3.459-.802zm28.724 2.234l1.838.426-2.897 6.801-4.324-1.002 1.19-2.777-9.837-2.278 6.165-14.518 4.54 1.052-4.458 10.494 3.243.751 4.458-10.494 4.54 1.052-4.458 10.493zm10.733 6.906l.278-1.986-4.368-1.012-1.315 1.746-4.778-1.107 10.986-13.401 5.059 1.172-1.344 15.634-4.518-1.046zm-1.753-6.101l2.508.581.644-4.749-3.152 4.168zm-382.174-98.773l4.324 1.002-6.164 14.518-4.324-1.002 1.851-4.355a11.278 11.278 0 01-2.029-.288c-1.974-.457-3.272-1.281-3.892-2.473-.62-1.191-.578-2.617.125-4.276l2.11-4.979 4.324 1.002-2.068 4.897c-.204.484-.188.875.047 1.173.25.3.704.535 1.363.703.52.12 1.095.192 1.727.217l2.606-6.139zm14.723 7.556l-5.513-1.277-.662 1.578 4.973 1.152-1.593 3.731-4.973-1.151-.693 1.616 5.621 1.302-1.613 3.818-9.945-2.304 6.164-14.518 9.837 2.279-1.603 3.774zm9.387-1.971c1.47.34 2.546 1.136 3.229 2.388.7 1.24.73 2.682.09 4.326-.597 1.532-1.575 2.642-2.934 3.329-1.342.677-2.906.808-4.693.394l-1.73-.4-1.748 4.105-4.324-1.002 6.165-14.517 5.945 1.377zm-.91 5.506c.165-.386.156-.707-.028-.963a1.221 1.221 0 00-.768-.519l-1.622-.376-1.003 2.365 1.73.4c.331.077.659.039.983-.114.327-.167.563-.431.707-.793zm15.822-2.052l4.324 1.001-6.165 14.518-4.324-1.002 2.265-5.352-3.675-.851-2.265 5.352-4.324-1.001 6.165-14.518 4.323 1.001-2.193 5.142 3.676.851 2.193-5.141zm9.205 18.077l.278-1.985-4.367-1.012-1.316 1.746-4.778-1.107 10.986-13.401 5.059 1.172-1.343 15.634-4.519-1.047zm-1.753-6.1l2.508.58.644-4.748-3.152 4.168zm25.211-4.434l-6.186 14.512-4.324-1.001 1.945-4.561-.367-.085-4.648 3.935-4.929-1.142 5.51-4.51a4.062 4.062 0 01-1.254-2.454 5.078 5.078 0 01.494-2.824c.602-1.288 1.587-2.26 2.953-2.915 1.367-.656 2.951-.775 4.753-.357l6.053 1.402zm-9.678 3.43c-.172.416-.175.787-.008 1.114.182.331.49.539.926.625l1.643.381 1.159-2.739-1.643-.381c-.447-.103-.86-.062-1.236.124-.374.172-.655.464-.841.876zm28.031.843l-6.166 14.518-4.323-1.002 4.458-10.493-3.243-.752-4.458 10.494-4.324-1.001 6.164-14.518L.29 149.002zm13.654 3.14l-6.186 14.513-4.324-1.001 1.945-4.561-.367-.086-4.648 3.936-4.929-1.142 5.51-4.51a4.064 4.064 0 01-1.254-2.455 5.079 5.079 0 01.494-2.824c.602-1.288 1.587-2.259 2.953-2.915 1.367-.655 2.951-.774 4.753-.357l6.053 1.402zm-9.678 3.431c-.172.415-.175.787-.008 1.114.182.331.49.539.926.625l1.643.38 1.159-2.738-1.643-.381c-.447-.103-.86-.062-1.236.124-.374.171-.654.463-.841.876zm22.404-.46l-1.706 4.024-3.567-.826-4.458 10.493-4.324-1.001 4.458-10.494-3.567-.826 1.706-4.024 11.459 2.654zm9.293 2.152l4.324 1.002-6.165 14.518-4.324-1.002 2.265-5.352-3.675-.852-2.265 5.353-4.324-1.002 6.165-14.518 4.324 1.002-2.193 5.141 3.675.852 2.193-5.142zm.319 16.02l6.165-14.518 4.324 1.002-2.72 6.431 7.476-5.33 3.46.802-6.165 14.517-4.324-1.001 2.72-6.432-7.476 5.33-3.46-.801zm28.725 2.234l1.837.426-2.896 6.8-4.324-1.001 1.19-2.777-9.837-2.278 6.165-14.518 4.54 1.051-4.458 10.494 3.243.751 4.458-10.493 4.54 1.051-4.458 10.494zm10.733 6.905l.277-1.986-4.367-1.011-1.315 1.745-4.778-1.106 10.986-13.401 5.058 1.171-1.343 15.635-4.518-1.047zm-1.754-6.101l2.508.581.644-4.748-3.152 4.167zM-308.187 77.55l4.324 1.002-6.165 14.518-4.324-1.001 1.852-4.355a11.394 11.394 0 01-2.029-.288c-1.975-.457-3.272-1.282-3.892-2.473-.62-1.192-.578-2.617.125-4.277l2.11-4.978 4.324 1.002-2.069 4.896c-.203.485-.187.876.048 1.173.249.3.703.535 1.363.703.519.12 1.094.193 1.726.218l2.607-6.14zm14.723 7.557l-5.513-1.277-.662 1.578 4.973 1.152-1.594 3.731-4.972-1.152-.693 1.616 5.621 1.302-1.613 3.818-9.945-2.303 6.164-14.518 9.837 2.278-1.603 3.775zm9.387-1.972c1.47.34 2.546 1.137 3.228 2.388.7 1.24.73 2.683.091 4.327-.597 1.532-1.576 2.642-2.935 3.329-1.341.677-2.905.808-4.692.394l-1.73-.4-1.748 4.105-4.324-1.002 6.165-14.518 5.945 1.377zm-.911 5.507c.165-.387.156-.708-.028-.963a1.216 1.216 0 00-.768-.52l-1.621-.375-1.003 2.364 1.729.4c.332.078.659.04.983-.113.328-.167.563-.432.708-.793zm15.822-2.052l4.324 1-6.164 14.519-4.324-1.002 2.265-5.353-3.676-.85-2.264 5.352-4.324-1.002 6.164-14.517 4.324 1.001-2.193 5.141 3.675.852 2.193-5.142zm9.206 18.077l.277-1.986-4.367-1.011-1.315 1.745-4.778-1.107 10.986-13.4 5.059 1.171-1.344 15.635-4.518-1.047zm-1.754-6.1l2.508.58.645-4.748-3.153 4.167zm25.212-4.435l-6.186 14.513-4.324-1.002 1.945-4.561-.368-.085-4.647 3.935-4.929-1.141 5.509-4.51a4.068 4.068 0 01-1.254-2.455c-.11-.967.055-1.908.495-2.824.602-1.288 1.586-2.26 2.953-2.915 1.367-.655 2.951-.774 4.753-.357l6.053 1.402zm-9.678 3.43c-.173.416-.175.788-.008 1.115.182.33.49.539.926.624l1.643.381 1.158-2.739-1.643-.38c-.447-.104-.859-.062-1.236.124-.374.171-.654.463-.84.876zm28.03.844l-6.165 14.518-4.324-1.002 4.458-10.494-3.243-.751-4.458 10.494-4.324-1.002 6.165-14.517 11.891 2.754zm13.655 3.14l-6.186 14.513-4.324-1.002 1.945-4.561-.368-.085-4.647 3.935-4.929-1.142 5.509-4.51a4.063 4.063 0 01-1.254-2.454c-.11-.967.055-1.908.495-2.824.602-1.288 1.586-2.26 2.953-2.915 1.367-.655 2.951-.775 4.753-.357l6.053 1.402zm-9.678 3.43c-.173.416-.175.787-.008 1.115.182.33.49.538.926.624l1.643.381 1.158-2.739-1.643-.38c-.447-.104-.858-.063-1.236.123-.374.172-.654.464-.84.876zm22.405-.459l-1.707 4.023-3.567-.826-4.458 10.494-4.324-1.002 4.458-10.493-3.567-.827 1.706-4.024 11.459 2.655zm9.292 2.152l4.324 1.001-6.165 14.518-4.324-1.001 2.265-5.353-3.675-.851-2.265 5.352-4.324-1.001 6.164-14.518 4.324 1.002-2.193 5.141 3.676.851 2.193-5.141zm.319 16.019l6.165-14.517 4.324 1.001-2.72 6.432 7.476-5.33 3.459.801-6.164 14.518-4.324-1.002 2.72-6.431-7.477 5.33-3.459-.802zm28.724 2.235l1.838.425-2.896 6.801-4.324-1.002 1.19-2.776-9.837-2.279 6.164-14.518 4.54 1.052-4.458 10.494 3.243.751 4.458-10.494 4.54 1.052-4.458 10.494zm10.733 6.905l.278-1.986-4.367-1.012-1.316 1.746-4.778-1.107 10.986-13.401 5.059 1.172-1.343 15.634-4.519-1.046zm-1.753-6.101l2.508.581.644-4.749-3.152 4.168zM342.97 228.376l4.324 1.002-6.165 14.518-4.324-1.002 1.852-4.355a11.364 11.364 0 01-2.029-.287c-1.975-.458-3.272-1.282-3.892-2.474-.62-1.191-.579-2.617.125-4.276l2.11-4.978 4.324 1.001-2.069 4.897c-.203.484-.187.875.048 1.173.249.3.703.535 1.363.703.519.12 1.094.192 1.726.217l2.607-6.139zm14.723 7.556l-5.513-1.277-.662 1.578 4.973 1.152-1.594 3.731-4.972-1.151-.693 1.616 5.621 1.302-1.613 3.818-9.945-2.304 6.164-14.518 9.837 2.279-1.603 3.774zm9.387-1.971c1.47.34 2.546 1.136 3.228 2.388.7 1.24.73 2.682.091 4.326-.597 1.532-1.576 2.642-2.935 3.329-1.341.677-2.905.808-4.692.394l-1.73-.4-1.748 4.105-4.324-1.002 6.164-14.517 5.946 1.377zm-.911 5.506c.165-.386.156-.707-.028-.963a1.218 1.218 0 00-.768-.519l-1.621-.376-1.003 2.365 1.729.4c.332.077.659.039.983-.114.328-.167.563-.431.708-.793zm15.822-2.052l4.324 1.001-6.164 14.518-4.324-1.002 2.265-5.352-3.676-.851-2.264 5.352-4.324-1.001 6.164-14.518 4.324 1.001-2.193 5.142 3.675.851 2.193-5.141zm9.206 18.078l.277-1.986-4.367-1.012-1.315 1.746-4.778-1.107L392 239.733l5.059 1.172-1.344 15.634-4.518-1.046zm-1.754-6.101l2.508.58.645-4.748-3.153 4.168zm25.212-4.434l-6.186 14.512-4.324-1.001 1.945-4.561-.368-.085-4.647 3.935-4.929-1.142 5.509-4.51a4.063 4.063 0 01-1.254-2.454c-.11-.967.055-1.909.495-2.824.602-1.288 1.586-2.26 2.953-2.915 1.367-.656 2.951-.775 4.753-.357l6.053 1.402zm-9.678 3.43c-.173.416-.175.787-.008 1.114.182.331.49.539.926.625l1.643.381 1.158-2.739-1.643-.381c-.447-.103-.859-.062-1.236.124-.374.172-.654.464-.84.876zm28.03.843l-6.165 14.518-4.324-1.002 4.458-10.493-3.243-.751-4.458 10.493-4.324-1.001 6.165-14.518 11.891 2.754zm13.655 3.14l-6.186 14.513-4.324-1.001 1.945-4.561-.368-.085-4.647 3.935-4.929-1.142 5.509-4.51a4.066 4.066 0 01-1.254-2.454c-.11-.968.055-1.909.495-2.824.602-1.289 1.586-2.26 2.953-2.916 1.367-.655 2.951-.774 4.753-.357l6.053 1.402zm-9.678 3.431c-.173.415-.175.787-.008 1.114.182.331.49.539.926.625l1.643.38 1.158-2.738-1.643-.381c-.447-.103-.859-.062-1.236.124-.374.171-.654.463-.84.876zm22.404-.46l-1.706 4.024-3.567-.826-4.458 10.493-4.324-1.001 4.458-10.494-3.567-.826 1.706-4.024 11.458 2.654zm9.293 2.152l4.324 1.002-6.165 14.518-4.324-1.002 2.265-5.352-3.675-.852-2.265 5.353-4.324-1.002 6.164-14.518 4.324 1.002-2.193 5.141 3.675.852 2.194-5.142zm.319 16.02l6.165-14.518 4.324 1.002-2.72 6.431 7.476-5.33 3.459.802-6.164 14.517-4.324-1.001 2.72-6.432-7.477 5.33-3.459-.801zm28.724 2.234l1.838.426-2.896 6.8-4.324-1.001 1.19-2.777-9.837-2.278 6.164-14.518 4.54 1.051-4.458 10.494 3.243.751 4.458-10.493 4.54 1.051-4.458 10.494zm10.733 6.905l.278-1.986-4.367-1.011-1.316 1.745-4.778-1.106 10.986-13.401 5.059 1.171-1.343 15.635-4.519-1.047zm-1.753-6.101l2.508.581.644-4.748-3.152 4.167zm54.705 2.421l4.324 1.001-6.165 14.518-4.323-1.002 1.851-4.354a11.46 11.46 0 01-2.029-.288c-1.975-.457-3.272-1.282-3.892-2.473-.62-1.192-.578-2.617.125-4.277l2.11-4.978 4.324 1.001-2.068 4.897c-.204.485-.188.876.047 1.173.249.301.704.535 1.363.703a9.32 9.32 0 001.727.218l2.606-6.139zm14.723 7.556l-5.513-1.277-.662 1.578 4.973 1.152-1.593 3.731-4.973-1.152-.693 1.616 5.621 1.302-1.613 3.818-9.945-2.303 6.164-14.518 9.837 2.278-1.603 3.775zm9.387-1.972c1.47.341 2.546 1.137 3.228 2.388.7 1.24.731 2.683.092 4.327-.598 1.532-1.577 2.641-2.935 3.329-1.342.676-2.906.808-4.693.394l-1.73-.401-1.748 4.105-4.324-1.001 6.165-14.518 5.945 1.377zm-.911 5.507c.166-.387.157-.708-.027-.963a1.221 1.221 0 00-.768-.52l-1.622-.375-1.003 2.364 1.729.401c.332.076.66.039.984-.114.327-.167.563-.432.707-.793zm15.823-2.053l4.324 1.002-6.165 14.517-4.324-1.001 2.265-5.353-3.675-.851-2.265 5.353-4.324-1.002 6.165-14.518 4.323 1.002-2.193 5.141 3.676.851 2.193-5.141zm9.205 18.078l.278-1.986-4.367-1.011-1.316 1.745-4.778-1.107 10.986-13.401 5.059 1.172-1.344 15.635-4.518-1.047zm-1.753-6.101l2.508.581.644-4.748-3.152 4.167zm25.211-4.434l-6.186 14.513-4.324-1.002 1.945-4.561-.367-.085-4.648 3.935-4.929-1.141 5.509-4.51a4.062 4.062 0 01-1.253-2.455c-.111-.967.054-1.908.494-2.824.602-1.288 1.587-2.26 2.953-2.915 1.367-.655 2.951-.774 4.753-.357l6.053 1.402zm-9.678 3.43c-.172.416-.175.788-.008 1.115.182.331.491.539.926.624l1.643.381 1.159-2.739-1.643-.38c-.447-.104-.859-.062-1.236.124-.374.171-.655.463-.841.875zm28.03.844l-6.165 14.517-4.323-1.001 4.458-10.494-3.243-.751-4.458 10.494-4.324-1.002 6.164-14.517 11.891 2.754zm13.655 3.14l-6.186 14.513-4.324-1.002 1.945-4.561-.367-.085-4.648 3.935-4.929-1.142 5.509-4.51a4.056 4.056 0 01-1.253-2.454 5.079 5.079 0 01.494-2.824c.602-1.288 1.587-2.26 2.953-2.915 1.367-.656 2.951-.775 4.753-.357l6.053 1.402zm-9.678 3.43c-.172.416-.175.787-.008 1.115.182.33.491.538.926.624l1.643.381 1.159-2.739-1.643-.38c-.447-.104-.859-.063-1.236.123-.374.172-.655.464-.841.876zm22.405-.46l-1.707 4.024-3.567-.826-4.458 10.494-4.324-1.002 4.458-10.493-3.567-.827 1.706-4.024 11.459 2.654zm9.292 2.153l4.324 1.001-6.165 14.518-4.324-1.002 2.265-5.352-3.675-.851-2.265 5.352-4.324-1.001 6.165-14.518 4.324 1.001-2.194 5.142 3.676.851 2.193-5.141zm.32 16.019l6.164-14.517 4.324 1.001-2.72 6.432 7.476-5.33 3.459.801-6.164 14.518-4.324-1.002 2.72-6.431-7.476 5.33-3.459-.802zm28.724 2.234l1.837.426-2.896 6.801-4.324-1.002 1.19-2.777-9.837-2.278 6.165-14.518 4.54 1.052-4.458 10.494 3.243.751 4.458-10.494 4.54 1.052-4.458 10.493zm10.732 6.906l.278-1.986-4.367-1.012-1.315 1.746-4.778-1.107 10.985-13.401 5.059 1.172-1.343 15.634-4.519-1.046zm-1.753-6.101l2.508.581.644-4.749-3.152 4.168zm45.79.355l4.323 1.002-6.164 14.517-4.324-1.001 1.851-4.355a11.472 11.472 0 01-2.029-.288c-1.974-.457-3.271-1.282-3.891-2.473-.62-1.192-.579-2.617.124-4.276l2.11-4.979 4.324 1.002-2.068 4.897c-.203.484-.188.875.047 1.172.25.301.704.535 1.364.703a9.214 9.214 0 001.726.218l2.607-6.139zm14.722 7.556l-5.513-1.277-.661 1.578 4.972 1.152-1.593 3.731-4.972-1.152-.694 1.617 5.621 1.302-1.613 3.817-9.945-2.303 6.165-14.518 9.837 2.279-1.604 3.774zm9.388-1.971c1.47.34 2.546 1.136 3.228 2.387.7 1.241.73 2.683.091 4.327-.598 1.532-1.576 2.642-2.935 3.329-1.341.677-2.906.808-4.693.394l-1.729-.401-1.749 4.106-4.324-1.002 6.165-14.518 5.946 1.378zm-.911 5.506c.165-.387.156-.708-.028-.963a1.219 1.219 0 00-.768-.52l-1.622-.375-1.003 2.364 1.73.401c.331.077.659.039.983-.114.327-.167.563-.431.708-.793zm15.822-2.053l4.324 1.002-6.165 14.518-4.324-1.002 2.265-5.352-3.675-.852-2.265 5.353-4.324-1.002 6.165-14.517 4.324 1.001-2.193 5.141 3.675.852 2.193-5.142zm9.205 18.078l.278-1.986-4.367-1.011-1.316 1.745-4.778-1.106 10.986-13.401 5.059 1.171-1.343 15.635-4.519-1.047zm-1.753-6.101l2.508.581.644-4.748-3.152 4.167zm25.212-4.434l-6.187 14.513-4.323-1.001 1.944-4.561-.367-.085-4.647 3.935-4.93-1.142 5.51-4.51a4.066 4.066 0 01-1.254-2.455c-.11-.967.055-1.908.495-2.823.602-1.289 1.586-2.26 2.953-2.916 1.366-.655 2.951-.774 4.752-.357l6.054 1.402zm-9.679 3.431c-.172.415-.175.787-.007 1.114.181.331.49.539.926.625l1.643.38 1.158-2.738-1.643-.381c-.447-.103-.859-.062-1.236.124-.374.171-.654.463-.841.876zm28.03.843l-6.164 14.518-4.324-1.002 4.458-10.494-3.243-.751-4.458 10.494-4.324-1.002 6.165-14.517 11.89 2.754zm13.656 3.14l-6.186 14.513-4.324-1.002 1.945-4.561-.368-.085-4.647 3.935-4.93-1.142 5.51-4.509a4.068 4.068 0 01-1.254-2.455c-.11-.967.055-1.908.495-2.824.602-1.288 1.586-2.26 2.953-2.915 1.366-.655 2.951-.774 4.752-.357l6.054 1.402zm-9.679 3.43c-.172.416-.175.788-.007 1.115.181.33.49.539.926.624l1.643.381 1.158-2.739-1.643-.38c-.447-.104-.859-.063-1.236.123-.374.172-.654.464-.841.876zm22.405-.459l-1.706 4.024-3.568-.827-4.458 10.494-4.324-1.001 4.459-10.494-3.568-.826 1.707-4.024 11.458 2.654zm9.292 2.152l4.324 1.002-6.164 14.517-4.324-1.001 2.265-5.353-3.676-.851-2.265 5.352-4.323-1.001 6.164-14.518 4.324 1.002-2.193 5.141 3.675.851 2.193-5.141zm.32 16.02l6.164-14.518 4.324 1.001-2.719 6.432 7.476-5.33 3.459.801-6.165 14.518-4.324-1.001 2.72-6.432-7.476 5.33-3.459-.801zm28.724 2.234l1.838.425-2.897 6.801-4.324-1.001 1.19-2.777-9.837-2.279 6.165-14.517 4.54 1.051-4.458 10.494 3.243.751 4.458-10.494 4.54 1.052-4.458 10.494zm10.733 6.905l.278-1.986-4.368-1.011-1.315 1.745-4.778-1.107 10.986-13.401 5.059 1.172-1.344 15.635-4.518-1.047zm-1.753-6.101l2.507.581.645-4.748-3.152 4.167zm54.705 2.42l4.324 1.002-6.165 14.518-4.324-1.002 1.852-4.355a11.364 11.364 0 01-2.029-.287c-1.975-.458-3.272-1.282-3.892-2.474-.62-1.191-.579-2.617.125-4.276l2.11-4.978 4.323 1.001-2.068 4.897c-.203.484-.187.875.048 1.173.249.3.703.535 1.363.703.519.12 1.094.192 1.726.217l2.607-6.139zm14.718 7.556l-5.508-1.276-.662 1.578 4.97 1.151-1.59 3.732-4.973-1.152-.693 1.616 5.616 1.302-1.609 3.818-9.944-2.304 6.164-14.518 9.839 2.279-1.61 3.774zm9.39-1.971c1.47.34 2.55 1.136 3.23 2.388.7 1.24.73 2.682.09 4.326-.6 1.532-1.57 2.642-2.93 3.33-1.35.676-2.91.807-4.7.393l-1.73-.4-1.74 4.105-4.33-1.001 6.17-14.518 5.94 1.377zm-.91 5.507c.17-.387.16-.708-.03-.964a1.207 1.207 0 00-.76-.519l-1.63-.376-1 2.365 1.73.4a1.442 1.442 0 001.69-.906zm15.82-2.053l4.33 1.001-6.17 14.518-4.32-1.001 2.26-5.353-3.67-.851-2.27 5.352-4.32-1.001 6.16-14.518 4.33 1.002-2.2 5.141 3.68.851 2.19-5.141zm9.21 18.078l.28-1.986-4.37-1.012-1.32 1.746-4.77-1.107 10.98-13.401 5.06 1.172-1.34 15.634-4.52-1.046zm-1.75-6.101l2.5.581.65-4.749-3.15 4.168zm25.21-4.434l-6.19 14.513-4.32-1.002 1.94-4.561-.37-.085-4.64 3.935-4.93-1.142 5.51-4.51a4.071 4.071 0 01-1.26-2.454c-.11-.967.06-1.908.5-2.824.6-1.288 1.58-2.26 2.95-2.915 1.37-.656 2.95-.775 4.75-.357l6.06 1.402zm-9.68 3.43c-.17.416-.18.787-.01 1.115.18.33.49.538.93.624l1.64.381 1.16-2.739-1.64-.381c-.45-.103-.86-.062-1.24.124-.37.172-.65.464-.84.876zm28.03.843l-6.17 14.518-4.32-1.001 4.46-10.494-3.24-.751-4.46 10.493-4.33-1.001 6.17-14.518 11.89 2.754zm13.65 3.141l-6.18 14.512-4.33-1.001 1.95-4.561-.37-.085-4.65 3.935-4.93-1.142 5.51-4.51a4.112 4.112 0 01-1.25-2.454c-.11-.967.05-1.909.49-2.824.61-1.288 1.59-2.26 2.96-2.916 1.36-.655 2.95-.774 4.75-.357l6.05 1.403zm-9.67 3.43c-.18.416-.18.787-.01 1.114.18.331.49.539.92.625l1.65.38 1.16-2.738-1.65-.381c-.44-.103-.86-.062-1.23.124-.38.171-.66.463-.84.876zm22.4-.46l-1.71 4.024-3.56-.826-4.46 10.494-4.33-1.002 4.46-10.494-3.56-.826 1.7-4.024 11.46 2.654zm9.29 2.152l4.33 1.002-6.17 14.518-4.32-1.002 2.26-5.352-3.67-.852-2.27 5.353-4.32-1.002 6.16-14.517 4.33 1.001-2.2 5.141 3.68.852 2.19-5.142zm.32 16.02l6.17-14.518 4.32 1.002-2.72 6.431 7.48-5.329 3.46.801-6.17 14.517-4.32-1.001 2.72-6.432-7.48 5.33-3.46-.801zm28.73 2.234l1.83.426-2.89 6.801-4.33-1.002 1.19-2.777-9.83-2.278 6.16-14.518 4.54 1.052-4.46 10.493 3.25.752 4.45-10.494 4.54 1.051-4.45 10.494zm10.73 6.905l.28-1.985-4.37-1.012-1.32 1.745-4.77-1.106 10.98-13.401 5.06 1.172-1.34 15.634-4.52-1.047zm-1.75-6.101l2.5.581.65-4.748-3.15 4.167zm54.7 2.421l4.32 1.001-6.16 14.518-4.32-1.001 1.85-4.355c-.66-.032-1.34-.128-2.03-.288-1.98-.457-3.27-1.282-3.89-2.473-.62-1.192-.58-2.617.12-4.277l2.11-4.978 4.33 1.001-2.07 4.897c-.21.485-.19.876.04 1.173.25.301.71.535 1.37.703.52.12 1.09.193 1.72.218l2.61-6.139zm14.72 7.556l-5.51-1.277-.66 1.578 4.97 1.152-1.59 3.731-4.97-1.152-.7 1.616 5.62 1.302-1.61 3.818-9.94-2.303 6.16-14.518 9.84 2.278-1.61 3.775zm9.39-1.972c1.47.341 2.55 1.137 3.23 2.388.7 1.241.73 2.683.09 4.327-.6 1.532-1.58 2.641-2.93 3.329-1.35.676-2.91.808-4.7.394l-1.73-.401-1.74 4.106-4.33-1.002 6.17-14.518 5.94 1.377zm-.91 5.507c.17-.387.16-.708-.03-.963a1.2 1.2 0 00-.77-.52l-1.62-.375-1 2.364 1.73.401a1.444 1.444 0 001.69-.907zm15.82-2.053l4.33 1.002-6.17 14.518-4.32-1.002 2.26-5.352-3.67-.852-2.27 5.353-4.32-1.002 6.16-14.518 4.33 1.002-2.2 5.141 3.68.852 2.19-5.142zm9.21 18.078l.28-1.986-4.37-1.011-1.32 1.745-4.77-1.107 10.98-13.401 5.06 1.172-1.34 15.635-4.52-1.047zm-1.76-6.101l2.51.581.65-4.748-3.16 4.167zm25.22-4.434l-6.19 14.513-4.32-1.002 1.94-4.561-.37-.085-4.64 3.935-4.93-1.141 5.51-4.51a4.076 4.076 0 01-1.26-2.455c-.11-.967.06-1.908.5-2.824.6-1.288 1.58-2.259 2.95-2.915 1.37-.655 2.95-.774 4.75-.357l6.06 1.402zm-9.68 3.431c-.17.415-.18.787-.01 1.114.18.331.49.539.93.625l1.64.38 1.16-2.739-1.65-.38a1.784 1.784 0 00-1.23.124c-.38.171-.66.463-.84.876zm28.03.843l-6.17 14.518-4.32-1.002 4.46-10.494-3.25-.751-4.45 10.494-4.33-1.002 6.17-14.517 11.89 2.754zm13.65 3.14l-6.18 14.513-4.33-1.002 1.95-4.561-.37-.085-4.65 3.935-4.93-1.142 5.51-4.51a4.112 4.112 0 01-1.25-2.454c-.11-.967.05-1.908.49-2.824.61-1.288 1.59-2.26 2.96-2.915 1.36-.655 2.95-.775 4.75-.357l6.05 1.402zm-9.68 3.43c-.17.416-.17.787 0 1.115.18.33.49.538.92.624l1.65.381 1.15-2.739-1.64-.38c-.45-.104-.86-.063-1.23.123-.38.172-.66.464-.85.876zm22.41-.46l-1.71 4.024-3.56-.826-4.46 10.494-4.33-1.002 4.46-10.493-3.57-.827 1.71-4.024 11.46 2.654zm9.29 2.153l4.33 1.001-6.17 14.518-4.32-1.001 2.26-5.353-3.67-.851-2.27 5.352-4.32-1.001 6.16-14.518 4.33 1.001-2.2 5.142 3.68.851 2.19-5.141zm.32 16.019l6.17-14.517 4.32 1.001-2.72 6.432 7.48-5.33 3.46.801-6.17 14.518-4.32-1.002 2.72-6.431-7.48 5.33-3.46-.802zm28.73 2.235l1.83.425-2.89 6.801-4.33-1.002 1.19-2.776-9.83-2.279 6.16-14.518 4.54 1.052-4.46 10.494 3.25.751 4.45-10.494 4.54 1.052-4.45 10.494zm10.73 6.905l.28-1.986-4.37-1.012-1.32 1.746-4.77-1.107 10.98-13.401 5.06 1.172-1.34 15.634-4.52-1.046zm-1.75-6.101l2.5.581.65-4.749-3.15 4.168zm54.7 2.42l4.32 1.002-6.16 14.518-4.32-1.002 1.85-4.355c-.66-.031-1.34-.127-2.03-.288-1.98-.457-3.27-1.281-3.89-2.473-.62-1.191-.58-2.617.12-4.276l2.11-4.979 4.33 1.002-2.07 4.897c-.21.484-.19.875.04 1.173.25.3.71.535 1.37.703.52.12 1.09.192 1.72.217l2.61-6.139zm14.72 7.556l-5.51-1.277-.66 1.578 4.97 1.152-1.59 3.731-4.97-1.151-.7 1.616 5.62 1.302-1.61 3.818-9.94-2.304 6.16-14.518 9.84 2.279-1.61 3.774zm9.39-1.971c1.47.34 2.55 1.136 3.23 2.388.7 1.24.73 2.682.09 4.326-.6 1.532-1.58 2.642-2.94 3.329-1.34.677-2.9.808-4.69.394l-1.73-.4-1.75 4.105-4.32-1.002 6.17-14.517 5.94 1.377zm-.91 5.506c.16-.386.16-.707-.03-.963a1.198 1.198 0 00-.77-.519l-1.62-.376-1 2.365 1.73.4c.33.077.66.039.98-.114.33-.167.56-.431.71-.793zm15.82-2.052l4.33 1.001-6.17 14.518-4.32-1.002 2.26-5.352-3.67-.851-2.27 5.352-4.32-1.001 6.16-14.518 4.33 1.001-2.2 5.142 3.68.851 2.19-5.141zm9.21 18.077l.27-1.985-4.36-1.012-1.32 1.746-4.78-1.107 10.99-13.401 5.06 1.172-1.34 15.634-4.52-1.047zm-1.76-6.1l2.51.58.65-4.748-3.16 4.168zm25.22-4.434l-6.19 14.512-4.32-1.001 1.94-4.561-.37-.085-4.64 3.935-4.93-1.142 5.51-4.51a4.071 4.071 0 01-1.26-2.454c-.11-.967.06-1.909.5-2.824.6-1.288 1.58-2.26 2.95-2.915 1.37-.656 2.95-.775 4.75-.357l6.06 1.402zm-9.68 3.43c-.18.416-.18.787-.01 1.114.18.331.49.539.93.625l1.64.381 1.16-2.739-1.65-.381c-.44-.103-.86-.062-1.23.124-.38.172-.66.464-.84.876zm28.03.843l-6.17 14.518-4.32-1.002 4.46-10.493-3.25-.752-4.45 10.494-4.33-1.001 6.17-14.518 11.89 2.754zm13.65 3.14l-6.18 14.513-4.33-1.001 1.95-4.561-.37-.086-4.65 3.935-4.93-1.141 5.51-4.51a4.06 4.06 0 01-1.25-2.455c-.11-.967.05-1.908.49-2.824.61-1.288 1.59-2.259 2.96-2.915 1.36-.655 2.95-.774 4.75-.357l6.05 1.402zm-9.68 3.431c-.17.415-.17.787 0 1.114.18.331.49.539.92.625l1.65.38 1.15-2.738-1.64-.381c-.45-.103-.86-.062-1.24.124-.37.171-.65.463-.84.876zm22.41-.46l-1.71 4.024-3.56-.826-4.46 10.493-4.33-1.001 4.46-10.494-3.57-.826 1.71-4.024 11.46 2.654zm9.29 2.152l4.32 1.002-6.16 14.518-4.32-1.002 2.26-5.353-3.67-.851-2.27 5.353-4.32-1.002 6.16-14.518 4.33 1.002-2.2 5.141 3.68.852 2.19-5.142zm.32 16.02l6.17-14.518 4.32 1.002-2.72 6.431 7.48-5.33 3.45.802-6.16 14.517-4.32-1.001 2.72-6.432-7.48 5.33-3.46-.801zm28.72 2.234l1.84.426-2.89 6.8-4.33-1.001 1.19-2.777-9.83-2.278 6.16-14.518 4.54 1.051-4.46 10.494 3.24.751 4.46-10.493 4.54 1.051-4.46 10.494zm10.74 6.905l.28-1.986-4.37-1.011-1.32 1.745-4.78-1.106 10.99-13.401 5.06 1.171-1.34 15.635-4.52-1.047zm-1.76-6.101l2.51.581.65-4.748-3.16 4.167zm54.71 2.421l4.32 1.001-6.16 14.518-4.33-1.002 1.86-4.354c-.66-.032-1.34-.128-2.03-.288-1.98-.458-3.27-1.282-3.89-2.473-.62-1.192-.58-2.617.12-4.277l2.11-4.978 4.32 1.001-2.06 4.897c-.21.485-.19.876.04 1.173.25.301.71.535 1.37.703.52.12 1.09.193 1.72.218l2.61-6.139zm14.72 7.556l-5.51-1.277-.66 1.578 4.97 1.151-1.59 3.732-4.98-1.152-.69 1.616 5.62 1.302-1.61 3.818-9.95-2.304 6.17-14.517 9.84 2.278-1.61 3.775zm9.39-1.972c1.47.341 2.55 1.137 3.23 2.388.7 1.24.73 2.683.09 4.326-.6 1.533-1.58 2.642-2.94 3.33-1.34.676-2.9.807-4.69.394l-1.73-.401-1.75 4.105-4.32-1.001 6.16-14.518 5.95 1.377zm-.91 5.507c.16-.387.15-.708-.03-.963-.18-.27-.44-.443-.77-.52l-1.62-.375-1 2.364 1.73.401c.33.076.66.038.98-.114.33-.168.56-.432.71-.793zm15.82-2.053l4.32 1.002-6.16 14.517-4.32-1.001 2.26-5.353-3.67-.851-2.27 5.352-4.32-1.001 6.16-14.518 4.33 1.002-2.2 5.141 3.68.851 2.19-5.141zm9.21 18.078l.27-1.986-4.36-1.011-1.32 1.745-4.78-1.107 10.99-13.401 5.06 1.172-1.35 15.634-4.51-1.046zm-1.76-6.101l2.51.581.65-4.749-3.16 4.168zm25.21-4.434l-6.18 14.513-4.33-1.002 1.95-4.561-.37-.085-4.65 3.935-4.92-1.142 5.5-4.509a4.117 4.117 0 01-1.25-2.455c-.11-.967.06-1.908.5-2.824.6-1.288 1.58-2.26 2.95-2.915 1.37-.655 2.95-.774 4.75-.357l6.05 1.402zm-9.67 3.43c-.18.416-.18.787-.01 1.115.18.33.49.539.92.624l1.65.381 1.16-2.739-1.65-.38c-.44-.104-.86-.063-1.23.123-.38.172-.66.464-.84.876zm28.03.844l-6.17 14.517-4.32-1.001 4.46-10.494-3.25-.751-4.46 10.494-4.32-1.002 6.17-14.518 11.89 2.755zm13.65 3.14l-6.18 14.512-4.33-1.001 1.95-4.561-.37-.085-4.65 3.935-4.93-1.142 5.51-4.51a4.058 4.058 0 01-1.25-2.454c-.11-.967.05-1.909.49-2.824.6-1.288 1.59-2.26 2.96-2.915 1.36-.656 2.95-.775 4.75-.357l6.05 1.402zm-9.68 3.43c-.17.416-.17.787 0 1.114.18.331.49.539.92.625l1.64.381 1.16-2.739-1.64-.381c-.45-.103-.86-.062-1.24.124-.37.172-.65.464-.84.876zm22.41-.46l-1.71 4.024-3.57-.826-4.45 10.494-4.33-1.002 4.46-10.494-3.57-.826 1.71-4.024 11.46 2.654zm9.29 2.153l4.32 1.001-6.16 14.518-4.32-1.002 2.26-5.352-3.67-.851-2.27 5.352-4.32-1.001 6.16-14.518 4.32 1.001-2.19 5.142 3.68.851 2.19-5.141zm.32 16.019l6.16-14.517 4.33 1.001-2.72 6.432 7.47-5.33 3.46.801-6.16 14.518-4.32-1.002 2.71-6.431-7.47 5.329-3.46-.801zm28.72 2.234l1.84.426-2.89 6.801-4.33-1.002 1.19-2.777-9.84-2.278 6.17-14.518 4.54 1.052-4.46 10.494 3.24.751 4.46-10.494 4.54 1.052-4.46 10.493zm10.74 6.906l.27-1.986-4.36-1.012-1.32 1.746-4.78-1.107 10.99-13.401 5.06 1.172-1.34 15.634-4.52-1.046zm-1.76-6.101l2.51.58.65-4.748-3.16 4.168zm54.71 2.42l4.32 1.002-6.16 14.517-4.33-1.001 1.86-4.355c-.67-.032-1.34-.128-2.03-.288-1.98-.457-3.28-1.282-3.9-2.473-.62-1.192-.57-2.617.13-4.276l2.11-4.979 4.32 1.002-2.06 4.897c-.21.484-.19.875.04 1.172.25.301.71.535 1.37.703.51.121 1.09.193 1.72.218l2.61-6.139zm14.72 7.556l-5.51-1.277-.66 1.578 4.97 1.152-1.59 3.731-4.98-1.152-.69 1.617 5.62 1.302-1.61 3.817-9.95-2.303 6.17-14.518 9.83 2.279-1.6 3.774zm9.39-1.971c1.47.34 2.54 1.136 3.23 2.387.7 1.241.73 2.683.09 4.327-.6 1.532-1.58 2.642-2.94 3.329-1.34.677-2.9.808-4.69.394l-1.73-.401-1.75 4.106-4.32-1.002 6.16-14.518 5.95 1.378zm-.91 5.506c.16-.387.15-.708-.03-.963a1.23 1.23 0 00-.77-.52l-1.62-.375-1 2.364 1.73.401c.33.077.66.039.98-.114.33-.167.56-.431.71-.793zm15.82-2.052l4.32 1.001-6.16 14.518-4.32-1.002 2.26-5.352-3.67-.852-2.27 5.353-4.32-1.002 6.16-14.517 4.33 1.001-2.2 5.141 3.68.852 2.19-5.141zm9.21 18.077l.27-1.986-4.36-1.011-1.32 1.745-4.78-1.106 10.99-13.401 5.06 1.171-1.35 15.635-4.51-1.047zm-1.76-6.101l2.51.581.64-4.748-3.15 4.167zm25.21-4.433l-6.18 14.512-4.33-1.001 1.95-4.561-.37-.085-4.65 3.935-4.93-1.142 5.51-4.51a4.112 4.112 0 01-1.25-2.454c-.11-.968.05-1.909.49-2.824.61-1.289 1.59-2.26 2.96-2.916 1.36-.655 2.95-.774 4.75-.357l6.05 1.403zm-9.67 3.43c-.18.415-.18.787-.01 1.114.18.331.49.539.92.625l1.65.38 1.16-2.738-1.65-.381c-.44-.103-.86-.062-1.23.124-.38.171-.66.463-.84.876zm28.03.843l-6.17 14.518-4.32-1.002 4.46-10.494-3.25-.751-4.46 10.494-4.32-1.001 6.17-14.518 11.89 2.754zm13.65 3.14l-6.19 14.513-4.32-1.002 1.95-4.561-.37-.085-4.65 3.935-4.93-1.141 5.51-4.51a4.063 4.063 0 01-1.25-2.455c-.11-.967.05-1.908.49-2.824.6-1.288 1.59-2.26 2.96-2.915 1.36-.655 2.95-.774 4.75-.357l6.05 1.402zm-9.68 3.43c-.17.416-.17.788-.01 1.115.19.33.5.539.93.624l1.64.381 1.16-2.739-1.64-.38c-.45-.104-.86-.062-1.24.124-.37.171-.65.463-.84.875zm22.41-.459l-1.71 4.024-3.57-.827-4.45 10.494-4.33-1.001 4.46-10.494-3.57-.826 1.71-4.024 11.46 2.654zm9.29 2.152l4.32 1.002-6.16 14.517-4.33-1.001 2.27-5.353-3.68-.851-2.26 5.352-4.32-1.001 6.16-14.518 4.32 1.002-2.19 5.141 3.68.851 2.19-5.141zm.32 16.02l6.16-14.518 4.33 1.001-2.72 6.432 7.47-5.33 3.46.801-6.16 14.518-4.33-1.001 2.72-6.432-7.47 5.33-3.46-.801zm28.72 2.234l1.84.425-2.9 6.801-4.32-1.001 1.19-2.777-9.84-2.279 6.17-14.517 4.54 1.051-4.46 10.494 3.24.751 4.46-10.494 4.54 1.052-4.46 10.494zm10.74 6.905l.27-1.986-4.36-1.011-1.32 1.745-4.78-1.107 10.99-13.401 5.06 1.172-1.35 15.635-4.51-1.047zm-1.76-6.101l2.51.581.65-4.748-3.16 4.167z" fill="#000"/><defs><filter id="filter0_d" x="-448.923" y=".996" width="2612.1" height="708.435" filterUnits="userSpaceOnUse" color-interpolation-filters="sRGB"><feFlood flood-opacity="0" result="BackgroundImageFix"/><feColorMatrix in="SourceAlpha" values="0 0 0 0 0 0 0 0 0 0 0 0 0 0 0 0 0 0 127 0"/><feOffset/><feGaussianBlur stdDeviation="25"/><feColorMatrix values="0 0 0 0 0.08 0 0 0 0 1 0 0 0 0 0 0 0 0 1 0"/><feBlend in2="BackgroundImageFix" result="effect1_dropShadow"/><feBlend in="SourceGraphic" in2="effect1_dropShadow" result="shape"/></filter></defs></svg>