<svg width="266" height="54" viewBox="0 0 266 54" fill="none" xmlns="http://www.w3.org/2000/svg">
<path d="M11.2275 0.684647L0.0783691 53.7601H256.566L265.783 0.684647H11.2275Z" fill="white"/>
<path d="M60.4466 12.7506L55.5266 40.7507H47.5266L51.0866 20.5106H45.0866L41.5266 40.7507H33.5266L38.4466 12.7506H60.4466Z" fill="#009A17"/>
<path d="M74.0622 41.3907C71.0222 41.3907 68.4222 40.644 66.2622 39.1507C64.1022 37.6306 62.5956 35.7373 61.7422 33.4707C60.9156 31.1773 60.7022 28.7773 61.1022 26.2707C61.7422 22.404 63.5689 19.084 66.5822 16.3107C69.6222 13.5107 73.3556 12.1107 77.7822 12.1107C80.0756 12.1107 82.1289 12.5507 83.9422 13.4307C85.7556 14.284 87.1822 15.4173 88.2222 16.8306C89.2622 18.244 89.9956 19.844 90.4222 21.6307C90.8489 23.3907 90.9156 25.204 90.6222 27.0707C90.0089 30.964 88.2089 34.324 85.2222 37.1507C82.2622 39.9773 78.5422 41.3907 74.0622 41.3907ZM70.1022 31.6307C71.1689 32.9107 72.6889 33.5507 74.6622 33.5507C76.6356 33.5507 78.3822 32.9107 79.9022 31.6307C81.4222 30.324 82.3556 28.6973 82.7022 26.7507C83.0489 24.804 82.6889 23.1907 81.6222 21.9107C80.5556 20.604 79.0356 19.9506 77.0622 19.9506C75.0889 19.9506 73.3422 20.604 71.8222 21.9107C70.3022 23.1907 69.3689 24.804 69.0222 26.7507C68.6756 28.6973 69.0356 30.324 70.1022 31.6307Z" fill="#009A17"/>
<path d="M88.011 40.8307L89.291 33.3907C90.7043 33.4707 91.7443 33.244 92.411 32.7107C93.0777 32.1773 93.5577 31.0707 93.851 29.3907L96.771 12.7506H117.331L112.411 40.7507H104.411L107.971 20.5106H103.411L101.691 30.3507C101.371 32.2173 100.878 33.8307 100.211 35.1907C99.571 36.5507 98.811 37.604 97.931 38.3507C97.0777 39.0973 96.1043 39.6973 95.011 40.1507C93.9443 40.604 92.8243 40.844 91.651 40.8707C90.5043 40.924 89.291 40.9107 88.011 40.8307Z" fill="#009A17"/>
<path d="M136.537 12.7506H145.337L134.097 32.1107C132.284 35.204 130.191 37.404 127.817 38.7107C125.444 40.0173 122.497 40.6973 118.977 40.7507L120.297 33.3107C122.431 33.284 124.271 32.644 125.817 31.3907L119.737 12.7506H127.737L130.977 23.4307L136.537 12.7506Z" fill="#009A17"/>
<path d="M161.753 12.7506H169.753L164.833 40.7507H156.833L158.313 32.3507C157.14 32.564 155.913 32.6707 154.633 32.6707C150.98 32.6707 148.366 31.7507 146.793 29.9107C145.22 28.0707 144.713 25.5507 145.273 22.3507L146.953 12.7506H154.953L153.313 22.1907C153.153 23.124 153.34 23.804 153.873 24.2306C154.433 24.6573 155.326 24.884 156.553 24.9107C157.513 24.9107 158.553 24.804 159.673 24.5907L161.753 12.7506Z" fill="#009A17"/>
<path d="M185.279 40.7507L184.959 37.1507H176.879L175.279 40.7507H166.439L180.279 12.7506H189.639L193.639 40.7507H185.279ZM179.719 30.7507H184.359L183.559 22.1507L179.719 30.7507Z" fill="#009A17"/>
<path d="M204.525 10.7907L205.565 4.79065H219.565L218.525 10.7907H204.525ZM195.245 40.7507L200.165 12.7506H208.165L206.005 25.1507L216.965 12.7506H223.365L218.445 40.7507H210.445L212.605 28.3507L201.645 40.7507H195.245Z" fill="#009A17"/>
<path d="M228.473 29.3507C227.193 29.3507 226.18 28.8973 225.433 27.9907C224.713 27.0573 224.46 25.9507 224.673 24.6707C224.886 23.3906 225.513 22.324 226.553 21.4706C227.593 20.5906 228.766 20.1507 230.073 20.1507C231.353 20.1507 232.353 20.6173 233.073 21.5507C233.793 22.4573 234.046 23.5507 233.833 24.8307C233.62 26.1373 233.02 27.2173 232.033 28.0707C231.046 28.924 229.86 29.3507 228.473 29.3507ZM226.353 41.3507C225.073 41.3507 224.06 40.8973 223.313 39.9907C222.593 39.0573 222.34 37.9506 222.553 36.6707C222.766 35.3906 223.393 34.324 224.433 33.4707C225.473 32.5907 226.646 32.1507 227.953 32.1507C229.233 32.1507 230.233 32.6173 230.953 33.5507C231.673 34.4573 231.926 35.5506 231.713 36.8307C231.5 38.1373 230.9 39.2173 229.913 40.0707C228.926 40.924 227.74 41.3507 226.353 41.3507Z" fill="#009A17"/>
</svg>
