<svg width="1920" height="267" viewBox="0 0 1920 267" fill="none" xmlns="http://www.w3.org/2000/svg">
<g filter="url(#filter0_d)">
<rect x="-424.927" y="222.188" width="2571.93" height="28.8139" transform="rotate(-3.82888 -424.927 222.188)" fill="#2CDC00"/>
</g>
<path d="M110.832 193.209L115.261 192.912L113.575 208.594L109.146 208.891L109.654 204.186C109.013 204.348 108.338 204.452 107.629 204.499C105.607 204.635 104.126 204.222 103.187 203.262C102.248 202.302 101.874 200.926 102.065 199.133L102.64 193.757L107.068 193.461L106.51 198.747C106.456 199.27 106.585 199.639 106.896 199.856C107.222 200.071 107.724 200.163 108.404 200.133C108.936 200.097 109.508 200 110.12 199.84L110.832 193.209Z" fill="black"/>
<path d="M127.115 196.167L121.468 196.545L121.293 198.247L126.386 197.906L125.944 201.939L120.851 202.28L120.657 204.028L126.414 203.643L125.978 207.764L115.792 208.446L117.479 192.764L127.553 192.09L127.115 196.167Z" fill="black"/>
<path d="M135.525 191.556C137.031 191.455 138.292 191.905 139.308 192.904C140.338 193.888 140.785 195.26 140.651 197.018C140.523 198.658 139.909 200.004 138.808 201.056C137.721 202.093 136.262 202.672 134.432 202.795L132.66 202.913L132.179 207.349L127.75 207.646L129.436 191.964L135.525 191.556ZM136.252 197.09C136.298 196.672 136.196 196.367 135.946 196.176C135.695 195.971 135.4 195.879 135.06 195.902L133.399 196.013L133.126 198.567L134.897 198.449C135.236 198.426 135.539 198.294 135.805 198.054C136.069 197.799 136.218 197.478 136.252 197.09Z" fill="black"/>
<path d="M150.798 190.534L155.226 190.238L153.54 205.92L149.112 206.216L149.726 200.437L145.961 200.688L145.347 206.468L140.919 206.764L142.605 191.082L147.033 190.786L146.427 196.342L150.191 196.091L150.798 190.534Z" fill="black"/>
<path d="M164.853 205.162L164.542 203.181L160.07 203.481L159.317 205.533L154.424 205.86L161.048 189.848L166.229 189.501L169.481 204.853L164.853 205.162ZM161.405 199.833L163.973 199.661L163.212 194.93L161.405 199.833Z" fill="black"/>
<path d="M184.245 188.273L182.536 203.957L178.108 204.253L178.645 199.324L178.269 199.349L174.964 204.464L169.915 204.801L173.879 198.887C173.004 198.441 172.366 197.78 171.967 196.902C171.581 196.008 171.465 195.06 171.62 194.056C171.823 192.648 172.483 191.433 173.601 190.409C174.718 189.385 176.2 188.812 178.045 188.688L184.245 188.273ZM175.978 194.365C175.934 194.812 176.039 195.169 176.294 195.433C176.564 195.697 176.92 195.807 177.362 195.762L179.045 195.65L179.358 192.693L177.675 192.805C177.218 192.836 176.835 192.995 176.529 193.283C176.221 193.555 176.037 193.916 175.978 194.365Z" fill="black"/>
<path d="M203.047 187.037L201.361 202.719L196.932 203.015L198.153 191.68L194.832 191.902L193.611 203.238L189.182 203.534L190.868 187.852L203.047 187.037Z" fill="black"/>
<path d="M217.026 186.079L215.317 201.763L210.889 202.059L211.427 197.13L211.05 197.155L207.745 202.27L202.696 202.607L206.66 196.693C205.785 196.247 205.147 195.586 204.748 194.708C204.362 193.814 204.246 192.866 204.401 191.862C204.604 190.455 205.264 189.239 206.382 188.215C207.499 187.191 208.981 186.618 210.826 186.494L217.026 186.079ZM208.759 192.171C208.715 192.619 208.82 192.975 209.075 193.239C209.345 193.503 209.701 193.613 210.143 193.568L211.826 193.456L212.139 190.499L210.456 190.611C209.999 190.642 209.617 190.801 209.31 191.089C209.002 191.361 208.818 191.722 208.759 192.171Z" fill="black"/>
<path d="M230.066 185.229L229.601 189.575L225.948 189.819L224.727 201.155L220.298 201.452L221.519 190.116L217.866 190.36L218.331 186.014L230.066 185.229Z" fill="black"/>
<path d="M239.583 184.592L244.012 184.296L242.326 199.977L237.897 200.274L238.511 194.494L234.747 194.746L234.133 200.526L229.705 200.822L231.391 185.14L235.819 184.844L235.212 190.4L238.977 190.148L239.583 184.592Z" fill="black"/>
<path d="M244.538 199.829L246.224 184.147L250.653 183.851L249.917 190.795L255.524 183.525L259.067 183.288L257.381 198.97L252.952 199.266L253.689 192.322L248.081 199.592L244.538 199.829Z" fill="black"/>
<path d="M272.675 193.631L274.557 193.506L273.758 200.854L269.33 201.151L269.663 198.148L259.588 198.822L261.274 183.14L265.924 182.829L264.703 194.165L268.025 193.943L269.245 182.607L273.895 182.296L272.675 193.631Z" fill="black"/>
<path d="M284.949 197.125L284.639 195.144L280.166 195.443L279.414 197.495L274.52 197.823L281.144 181.81L286.326 181.464L289.577 196.815L284.949 197.125ZM281.501 191.795L284.07 191.623L283.308 186.892L281.501 191.795Z" fill="black"/>
<path d="M-112.89 208.182L-108.461 207.885L-110.147 223.567L-114.576 223.864L-114.068 219.159C-114.709 219.32 -115.384 219.425 -116.093 219.472C-118.115 219.608 -119.596 219.195 -120.535 218.235C-121.474 217.275 -121.848 215.899 -121.657 214.106L-121.082 208.73L-116.654 208.434L-117.212 213.72C-117.266 214.243 -117.137 214.612 -116.826 214.828C-116.501 215.044 -115.998 215.136 -115.318 215.106C-114.786 215.07 -114.214 214.972 -113.602 214.813L-112.89 208.182Z" fill="black"/>
<path d="M-96.6075 211.14L-102.254 211.518L-102.429 213.22L-97.3363 212.879L-97.7781 216.912L-102.871 217.253L-103.065 219.001L-97.3082 218.616L-97.7441 222.737L-107.93 223.419L-106.243 207.737L-96.1687 207.063L-96.6075 211.14Z" fill="black"/>
<path d="M-88.1965 206.529C-86.6909 206.428 -85.4301 206.878 -84.4142 207.877C-83.3845 208.861 -82.9369 210.232 -83.0713 211.991C-83.1988 213.631 -83.813 214.977 -84.914 216.029C-86.0012 217.065 -87.46 217.645 -89.2904 217.768L-91.0618 217.886L-91.5434 222.322L-95.9718 222.619L-94.2857 206.937L-88.1965 206.529ZM-87.4703 212.063C-87.4241 211.645 -87.5261 211.34 -87.7761 211.149C-88.0271 210.944 -88.3223 210.852 -88.6619 210.875L-90.3226 210.986L-90.5965 213.54L-88.8251 213.422C-88.4856 213.399 -88.183 213.267 -87.9173 213.027C-87.6527 212.772 -87.5036 212.451 -87.4703 212.063Z" fill="black"/>
<path d="M-72.9244 205.507L-68.4959 205.211L-70.1821 220.892L-74.6105 221.189L-73.9965 215.409L-77.7607 215.661L-78.3747 221.441L-82.8032 221.737L-81.117 206.055L-76.6886 205.759L-77.2953 211.315L-73.5311 211.063L-72.9244 205.507Z" fill="black"/>
<path d="M-58.869 220.135L-59.1796 218.154L-63.6523 218.454L-64.4046 220.506L-69.2981 220.833L-62.6742 204.821L-57.4929 204.474L-54.2413 219.826L-58.869 220.135ZM-62.3173 214.806L-59.7488 214.634L-60.5103 209.903L-62.3173 214.806Z" fill="black"/>
<path d="M-39.4774 203.246L-41.1857 218.93L-45.6142 219.226L-45.0766 214.297L-45.4531 214.322L-48.7584 219.436L-53.8068 219.774L-49.8433 213.86C-50.7183 213.414 -51.3558 212.752 -51.7555 211.875C-52.1415 210.981 -52.2569 210.033 -52.1017 209.029C-51.8993 207.621 -51.2393 206.406 -50.1216 205.382C-49.0039 204.358 -47.5224 203.785 -45.6772 203.661L-39.4774 203.246ZM-47.7439 209.338C-47.7881 209.785 -47.6827 210.142 -47.4277 210.406C-47.158 210.67 -46.8022 210.78 -46.3604 210.735L-44.6775 210.623L-44.3639 207.666L-46.0467 207.778C-46.5043 207.809 -46.8866 207.968 -47.1936 208.255C-47.5015 208.528 -47.685 208.889 -47.7439 209.338Z" fill="black"/>
<path d="M-20.6753 202.01L-22.3615 217.692L-26.7899 217.988L-25.5691 206.652L-28.8905 206.875L-30.1113 218.211L-34.5398 218.507L-32.8536 202.825L-20.6753 202.01Z" fill="black"/>
<path d="M-6.69631 201.052L-8.40463 216.736L-12.8331 217.032L-12.2956 212.103L-12.672 212.128L-15.9773 217.243L-21.0258 217.58L-17.0623 211.666C-17.9373 211.22 -18.5747 210.559 -18.9744 209.681C-19.3605 208.787 -19.4758 207.839 -19.3206 206.835C-19.1182 205.427 -18.4582 204.212 -17.3405 203.188C-16.2228 202.164 -14.7414 201.591 -12.8962 201.467L-6.69631 201.052ZM-14.9628 207.144C-15.007 207.591 -14.9016 207.948 -14.6467 208.212C-14.3769 208.476 -14.0211 208.586 -13.5793 208.541L-11.8965 208.429L-11.5828 205.472L-13.2656 205.584C-13.7232 205.615 -14.1055 205.774 -14.4125 206.062C-14.7205 206.334 -14.9039 206.695 -14.9628 207.144Z" fill="black"/>
<path d="M6.34445 200.202L5.87908 204.548L2.2256 204.792L1.00476 216.128L-3.42369 216.425L-2.20288 205.089L-5.85635 205.333L-5.39101 200.987L6.34445 200.202Z" fill="black"/>
<path d="M15.8613 199.565L20.2898 199.268L18.6036 214.95L14.1752 215.247L14.7892 209.467L11.025 209.719L10.411 215.499L5.98249 215.795L7.66867 200.113L12.0971 199.817L11.4904 205.373L15.2546 205.121L15.8613 199.565Z" fill="black"/>
<path d="M20.8161 214.802L22.5023 199.12L26.9308 198.824L26.1945 205.768L31.8021 198.498L35.3449 198.261L33.6587 213.943L29.2302 214.239L29.9665 207.295L24.3589 214.565L20.8161 214.802Z" fill="black"/>
<path d="M48.9525 208.604L50.8346 208.478L50.0364 215.827L45.608 216.123L45.9408 213.121L35.866 213.795L37.5522 198.113L42.2021 197.802L40.9813 209.138L44.3026 208.916L45.5234 197.58L50.1733 197.268L48.9525 208.604Z" fill="black"/>
<path d="M61.2273 212.098L60.9168 210.117L56.4441 210.416L55.6917 212.468L50.7983 212.796L57.4222 196.783L62.6035 196.437L65.8551 211.788L61.2273 212.098ZM57.7791 206.768L60.3476 206.596L59.5861 201.865L57.7791 206.768Z" fill="black"/>
<path d="M-336.612 223.155L-332.183 222.858L-333.869 238.54L-338.298 238.837L-337.79 234.132C-338.431 234.293 -339.106 234.398 -339.815 234.445C-341.837 234.581 -343.318 234.168 -344.257 233.208C-345.196 232.248 -345.57 230.871 -345.379 229.079L-344.804 223.703L-340.376 223.407L-340.934 228.693C-340.988 229.215 -340.859 229.585 -340.548 229.801C-340.223 230.017 -339.72 230.109 -339.04 230.079C-338.508 230.043 -337.936 229.945 -337.324 229.786L-336.612 223.155Z" fill="black"/>
<path d="M-320.329 226.113L-325.976 226.491L-326.151 228.193L-321.058 227.852L-321.5 231.885L-326.593 232.226L-326.787 233.974L-321.03 233.588L-321.466 237.71L-331.652 238.392L-329.965 222.71L-319.891 222.036L-320.329 226.113Z" fill="black"/>
<path d="M-311.919 221.502C-310.413 221.401 -309.152 221.851 -308.136 222.85C-307.107 223.834 -306.659 225.205 -306.793 226.964C-306.921 228.604 -307.535 229.95 -308.636 231.002C-309.723 232.038 -311.182 232.618 -313.012 232.74L-314.784 232.859L-315.265 237.295L-319.694 237.591L-318.008 221.909L-311.919 221.502ZM-311.192 227.036C-311.146 226.618 -311.248 226.313 -311.498 226.122C-311.749 225.917 -312.044 225.825 -312.384 225.848L-314.045 225.959L-314.318 228.513L-312.547 228.394C-312.208 228.372 -311.905 228.24 -311.639 228C-311.375 227.745 -311.226 227.424 -311.192 227.036Z" fill="black"/>
<path d="M-296.646 220.48L-292.218 220.183L-293.904 235.865L-298.333 236.162L-297.718 230.382L-301.483 230.634L-302.097 236.414L-306.525 236.71L-304.839 221.028L-300.411 220.732L-301.017 226.288L-297.253 226.036L-296.646 220.48Z" fill="black"/>
<path d="M-282.591 235.108L-282.902 233.127L-287.374 233.427L-288.127 235.479L-293.02 235.806L-286.396 219.794L-281.215 219.447L-277.963 234.799L-282.591 235.108ZM-286.039 229.779L-283.471 229.607L-284.232 224.876L-286.039 229.779Z" fill="black"/>
<path d="M-263.199 218.219L-264.908 233.903L-269.336 234.199L-268.799 229.27L-269.175 229.295L-272.48 234.409L-277.529 234.747L-273.565 228.833C-274.44 228.387 -275.078 227.725 -275.478 226.848C-275.864 225.954 -275.979 225.005 -275.824 224.002C-275.621 222.594 -274.961 221.379 -273.844 220.355C-272.726 219.331 -271.244 218.758 -269.399 218.634L-263.199 218.219ZM-271.466 224.311C-271.51 224.758 -271.405 225.115 -271.15 225.379C-270.88 225.643 -270.524 225.753 -270.082 225.708L-268.4 225.595L-268.086 222.639L-269.769 222.751C-270.226 222.782 -270.609 222.941 -270.916 223.228C-271.224 223.501 -271.407 223.862 -271.466 224.311Z" fill="black"/>
<path d="M-244.397 216.983L-246.083 232.665L-250.512 232.961L-249.291 221.625L-252.612 221.848L-253.833 233.184L-258.262 233.48L-256.576 217.798L-244.397 216.983Z" fill="black"/>
<path d="M-230.418 216.025L-232.127 231.709L-236.555 232.005L-236.018 227.076L-236.394 227.101L-239.699 232.215L-244.748 232.553L-240.784 226.639C-241.659 226.193 -242.297 225.531 -242.696 224.654C-243.082 223.76 -243.198 222.812 -243.043 221.808C-242.84 220.4 -242.18 219.185 -241.062 218.161C-239.945 217.137 -238.463 216.564 -236.618 216.44L-230.418 216.025ZM-238.685 222.117C-238.729 222.564 -238.624 222.921 -238.369 223.185C-238.099 223.449 -237.743 223.559 -237.301 223.514L-235.618 223.402L-235.305 220.445L-236.988 220.557C-237.445 220.588 -237.828 220.747 -238.134 221.034C-238.442 221.307 -238.626 221.668 -238.685 222.117Z" fill="black"/>
<path d="M-217.378 215.175L-217.843 219.521L-221.496 219.765L-222.717 231.101L-227.146 231.398L-225.925 220.062L-229.578 220.306L-229.113 215.96L-217.378 215.175Z" fill="black"/>
<path d="M-207.861 214.538L-203.432 214.241L-205.118 229.923L-209.547 230.22L-208.933 224.44L-212.697 224.692L-213.311 230.472L-217.74 230.768L-216.053 215.086L-211.625 214.79L-212.232 220.346L-208.467 220.094L-207.861 214.538Z" fill="black"/>
<path d="M-202.906 229.775L-201.22 214.093L-196.791 213.797L-197.528 220.741L-191.92 213.471L-188.377 213.234L-190.063 228.916L-194.492 229.212L-193.755 222.268L-199.363 229.538L-202.906 229.775Z" fill="black"/>
<path d="M-174.769 223.577L-172.887 223.451L-173.686 230.8L-178.114 231.096L-177.781 228.094L-187.856 228.768L-186.17 213.086L-181.52 212.775L-182.741 224.111L-179.419 223.888L-178.199 212.553L-173.549 212.241L-174.769 223.577Z" fill="black"/>
<path d="M-162.495 227.071L-162.805 225.09L-167.278 225.389L-168.03 227.441L-172.924 227.769L-166.3 211.756L-161.118 211.409L-157.867 226.761L-162.495 227.071ZM-165.943 221.741L-163.374 221.569L-164.136 216.838L-165.943 221.741Z" fill="black"/>
<path d="M330.293 178.521L334.721 178.225L333.035 193.907L328.607 194.203L329.115 189.498C328.473 189.66 327.798 189.764 327.09 189.812C325.067 189.947 323.586 189.535 322.647 188.574C321.708 187.614 321.334 186.238 321.526 184.446L322.1 179.069L326.529 178.773L325.971 184.059C325.917 184.582 326.045 184.951 326.356 185.168C326.682 185.383 327.185 185.476 327.865 185.445C328.396 185.409 328.968 185.312 329.58 185.152L330.293 178.521Z" fill="black"/>
<path d="M346.575 181.479L340.929 181.857L340.753 183.559L345.846 183.218L345.404 187.251L340.312 187.592L340.117 189.34L345.874 188.955L345.438 193.077L335.253 193.758L336.939 178.076L347.014 177.402L346.575 181.479Z" fill="black"/>
<path d="M354.986 176.868C356.492 176.768 357.752 177.217 358.768 178.217C359.798 179.201 360.246 180.572 360.111 182.33C359.984 183.97 359.369 185.316 358.268 186.368C357.181 187.405 355.722 187.984 353.892 188.107L352.121 188.225L351.639 192.662L347.211 192.958L348.897 177.276L354.986 176.868ZM355.712 182.402C355.758 181.984 355.656 181.68 355.406 181.489C355.155 181.283 354.86 181.192 354.521 181.214L352.86 181.326L352.586 183.879L354.357 183.761C354.697 183.738 354.999 183.607 355.265 183.367C355.53 183.112 355.679 182.79 355.712 182.402Z" fill="black"/>
<path d="M370.258 175.846L374.687 175.55L373 191.232L368.572 191.528L369.186 185.749L365.422 186.001L364.808 191.78L360.379 192.077L362.065 176.395L366.494 176.098L365.887 181.655L369.651 181.403L370.258 175.846Z" fill="black"/>
<path d="M384.313 190.475L384.003 188.494L379.53 188.793L378.778 190.845L373.884 191.173L380.508 175.16L385.69 174.814L388.941 190.165L384.313 190.475ZM380.865 185.145L383.434 184.973L382.672 180.242L380.865 185.145Z" fill="black"/>
<path d="M403.705 173.586L401.997 189.269L397.568 189.565L398.106 184.636L397.729 184.661L394.424 189.776L389.376 190.114L393.339 184.199C392.464 183.754 391.827 183.092 391.427 182.214C391.041 181.321 390.926 180.372 391.081 179.368C391.283 177.961 391.943 176.745 393.061 175.721C394.179 174.698 395.66 174.124 397.505 174.001L403.705 173.586ZM395.438 179.677C395.394 180.125 395.5 180.481 395.755 180.746C396.024 181.009 396.38 181.119 396.822 181.075L398.505 180.962L398.819 178.005L397.136 178.118C396.678 178.148 396.296 178.307 395.989 178.595C395.681 178.867 395.497 179.228 395.438 179.677Z" fill="black"/>
<path d="M422.507 172.349L420.821 188.031L416.393 188.328L417.613 176.992L414.292 177.214L413.071 188.55L408.643 188.846L410.329 173.165L422.507 172.349Z" fill="black"/>
<path d="M436.486 171.392L434.778 187.075L430.349 187.371L430.887 182.442L430.51 182.468L427.205 187.582L422.157 187.92L426.12 182.005C425.245 181.56 424.608 180.898 424.208 180.02C423.822 179.127 423.707 178.178 423.862 177.174C424.064 175.767 424.724 174.551 425.842 173.528C426.96 172.504 428.441 171.93 430.286 171.807L436.486 171.392ZM428.22 177.483C428.175 177.931 428.281 178.287 428.536 178.552C428.806 178.815 429.161 178.925 429.603 178.881L431.286 178.768L431.6 175.811L429.917 175.924C429.459 175.954 429.077 176.113 428.77 176.401C428.462 176.674 428.279 177.034 428.22 177.483Z" fill="black"/>
<path d="M449.527 170.541L449.062 174.887L445.408 175.132L444.187 186.468L439.759 186.764L440.98 175.428L437.326 175.673L437.791 171.327L449.527 170.541Z" fill="black"/>
<path d="M459.044 169.904L463.472 169.608L461.786 185.29L457.358 185.586L457.972 179.807L454.207 180.059L453.593 185.838L449.165 186.134L450.851 170.453L455.28 170.156L454.673 175.713L458.437 175.461L459.044 169.904Z" fill="black"/>
<path d="M463.999 185.142L465.685 169.46L470.113 169.163L469.377 176.108L474.985 168.837L478.527 168.6L476.841 184.282L472.413 184.579L473.149 177.634L467.541 184.905L463.999 185.142Z" fill="black"/>
<path d="M492.135 178.944L494.017 178.818L493.219 186.166L488.79 186.463L489.123 183.46L479.048 184.134L480.735 168.453L485.385 168.141L484.164 179.477L487.485 179.255L488.706 167.919L493.356 167.608L492.135 178.944Z" fill="black"/>
<path d="M504.41 182.437L504.099 180.456L499.627 180.756L498.874 182.808L493.981 183.135L500.605 167.123L505.786 166.776L509.038 182.127L504.41 182.437ZM500.961 177.108L503.53 176.936L502.769 172.205L500.961 177.108Z" fill="black"/>
<path d="M554.015 163.548L558.443 163.252L556.757 178.934L552.329 179.23L552.837 174.525C552.195 174.687 551.52 174.791 550.811 174.839C548.789 174.974 547.308 174.562 546.369 173.601C545.43 172.641 545.056 171.265 545.248 169.473L545.822 164.096L550.251 163.8L549.693 169.086C549.639 169.609 549.767 169.979 550.078 170.195C550.404 170.41 550.907 170.503 551.587 170.472C552.118 170.437 552.69 170.339 553.302 170.179L554.015 163.548Z" fill="black"/>
<path d="M570.297 166.506L564.651 166.884L564.475 168.586L569.568 168.246L569.126 172.279L564.034 172.619L563.839 174.367L569.596 173.982L569.16 178.104L558.975 178.785L560.661 163.103L570.736 162.429L570.297 166.506Z" fill="black"/>
<path d="M578.708 161.896C580.214 161.795 581.474 162.244 582.49 163.244C583.52 164.228 583.968 165.599 583.833 167.358C583.706 168.997 583.091 170.343 581.99 171.395C580.903 172.432 579.444 173.011 577.614 173.134L575.843 173.253L575.361 177.689L570.933 177.985L572.619 162.303L578.708 161.896ZM579.434 167.43C579.48 167.011 579.378 166.707 579.128 166.516C578.877 166.31 578.582 166.219 578.242 166.242L576.582 166.353L576.308 168.907L578.079 168.788C578.419 168.765 578.721 168.634 578.987 168.394C579.252 168.139 579.401 167.817 579.434 167.43Z" fill="black"/>
<path d="M593.98 160.873L598.409 160.577L596.722 176.259L592.294 176.555L592.908 170.776L589.144 171.028L588.53 176.807L584.101 177.104L585.787 161.422L590.216 161.125L589.609 166.682L593.373 166.43L593.98 160.873Z" fill="black"/>
<path d="M608.035 175.502L607.725 173.521L603.252 173.82L602.5 175.872L597.606 176.2L604.23 160.187L609.412 159.841L612.663 175.192L608.035 175.502ZM604.587 170.172L607.156 170L606.394 165.269L604.587 170.172Z" fill="black"/>
<path d="M627.427 158.613L625.719 174.296L621.29 174.592L621.828 169.663L621.451 169.689L618.146 174.803L613.098 175.141L617.061 169.226C616.186 168.781 615.549 168.119 615.149 167.241C614.763 166.348 614.647 165.399 614.803 164.395C615.005 162.988 615.665 161.772 616.783 160.749C617.901 159.725 619.382 159.151 621.227 159.028L627.427 158.613ZM619.16 164.704C619.116 165.152 619.222 165.508 619.477 165.773C619.746 166.036 620.102 166.146 620.544 166.102L622.227 165.989L622.541 163.032L620.858 163.145C620.4 163.175 620.018 163.334 619.711 163.622C619.403 163.895 619.219 164.255 619.16 164.704Z" fill="black"/>
<path d="M646.229 157.377L644.543 173.059L640.114 173.355L641.335 162.019L638.014 162.241L636.793 173.577L632.365 173.874L634.051 158.192L646.229 157.377Z" fill="black"/>
<path d="M660.208 156.419L658.5 172.102L654.071 172.399L654.609 167.469L654.232 167.495L650.927 172.609L645.879 172.947L649.842 167.032C648.967 166.587 648.33 165.925 647.93 165.047C647.544 164.154 647.429 163.205 647.584 162.201C647.786 160.794 648.446 159.578 649.564 158.555C650.682 157.531 652.163 156.957 654.008 156.834L660.208 156.419ZM651.942 162.51C651.897 162.958 652.003 163.314 652.258 163.579C652.528 163.843 652.883 163.952 653.325 163.908L655.008 163.795L655.322 160.838L653.639 160.951C653.181 160.982 652.799 161.141 652.492 161.428C652.184 161.701 652 162.061 651.942 162.51Z" fill="black"/>
<path d="M673.249 155.568L672.783 159.914L669.13 160.159L667.909 171.495L663.481 171.791L664.702 160.455L661.048 160.7L661.513 156.354L673.249 155.568Z" fill="black"/>
<path d="M682.766 154.931L687.194 154.635L685.508 170.317L681.08 170.613L681.694 164.834L677.93 165.086L677.315 170.865L672.887 171.162L674.573 155.48L679.002 155.183L678.395 160.74L682.159 160.488L682.766 154.931Z" fill="black"/>
<path d="M687.721 170.169L689.407 154.487L693.835 154.19L693.099 161.135L698.707 153.864L702.249 153.627L700.563 169.309L696.135 169.606L696.871 162.661L691.263 169.932L687.721 170.169Z" fill="black"/>
<path d="M715.857 163.971L717.739 163.845L716.941 171.194L712.512 171.49L712.845 168.487L702.77 169.162L704.457 153.48L709.107 153.168L707.886 164.504L711.207 164.282L712.428 152.946L717.078 152.635L715.857 163.971Z" fill="black"/>
<path d="M728.132 167.464L727.821 165.483L723.349 165.783L722.596 167.835L717.703 168.162L724.327 152.15L729.508 151.803L732.759 167.154L728.132 167.464ZM724.683 162.135L727.252 161.963L726.491 157.232L724.683 162.135Z" fill="black"/>
<path d="M768.605 149.186L773.034 148.89L771.348 164.572L766.919 164.868L767.427 160.164C766.786 160.325 766.11 160.43 765.402 160.477C763.379 160.612 761.899 160.2 760.96 159.24C760.021 158.279 759.647 156.903 759.838 155.111L760.413 149.735L764.841 149.438L764.283 154.725C764.229 155.247 764.358 155.617 764.669 155.833C764.994 156.049 765.497 156.141 766.177 156.11C766.709 156.075 767.28 155.977 767.893 155.818L768.605 149.186Z" fill="black"/>
<path d="M784.887 152.145L779.241 152.523L779.066 154.225L784.159 153.884L783.717 157.917L778.624 158.258L778.43 160.006L784.187 159.62L783.751 163.742L773.565 164.424L775.251 148.742L785.326 148.067L784.887 152.145Z" fill="black"/>
<path d="M793.298 147.534C794.804 147.433 796.065 147.882 797.081 148.882C798.11 149.866 798.558 151.237 798.424 152.996C798.296 154.635 797.682 155.981 796.581 157.034C795.494 158.07 794.035 158.65 792.204 158.772L790.433 158.891L789.951 163.327L785.523 163.623L787.209 147.941L793.298 147.534ZM794.025 153.068C794.071 152.65 793.969 152.345 793.719 152.154C793.468 151.948 793.172 151.857 792.833 151.88L791.172 151.991L790.898 154.545L792.67 154.426C793.009 154.403 793.312 154.272 793.578 154.032C793.842 153.777 793.991 153.456 794.025 153.068Z" fill="black"/>
<path d="M808.57 146.512L812.999 146.215L811.313 161.897L806.884 162.194L807.498 156.414L803.734 156.666L803.12 162.446L798.692 162.742L800.378 147.06L804.806 146.764L804.2 152.32L807.964 152.068L808.57 146.512Z" fill="black"/>
<path d="M822.626 161.14L822.315 159.159L817.843 159.458L817.09 161.511L812.197 161.838L818.821 145.826L824.002 145.479L827.254 160.83L822.626 161.14ZM819.178 155.81L821.746 155.639L820.985 150.908L819.178 155.81Z" fill="black"/>
<path d="M842.017 144.251L840.309 159.934L835.881 160.231L836.418 155.302L836.042 155.327L832.736 160.441L827.688 160.779L831.651 154.864C830.776 154.419 830.139 153.757 829.739 152.879C829.353 151.986 829.238 151.037 829.393 150.033C829.596 148.626 830.256 147.411 831.373 146.387C832.491 145.363 833.973 144.789 835.818 144.666L842.017 144.251ZM833.751 150.342C833.707 150.79 833.812 151.146 834.067 151.411C834.337 151.675 834.693 151.784 835.135 151.74L836.817 151.627L837.131 148.67L835.448 148.783C834.991 148.814 834.608 148.973 834.301 149.26C833.993 149.533 833.81 149.894 833.751 150.342Z" fill="black"/>
<path d="M860.82 143.015L859.133 158.697L854.705 158.993L855.926 147.657L852.604 147.879L851.384 159.215L846.955 159.512L848.641 143.83L860.82 143.015Z" fill="black"/>
<path d="M874.799 142.057L873.09 157.74L868.662 158.037L869.199 153.108L868.823 153.133L865.518 158.247L860.469 158.585L864.433 152.67C863.558 152.225 862.92 151.563 862.52 150.686C862.134 149.792 862.019 148.843 862.174 147.84C862.377 146.432 863.037 145.217 864.154 144.193C865.272 143.169 866.754 142.595 868.599 142.472L874.799 142.057ZM866.532 148.148C866.488 148.596 866.593 148.952 866.848 149.217C867.118 149.481 867.474 149.59 867.916 149.546L869.598 149.433L869.912 146.476L868.229 146.589C867.772 146.62 867.389 146.779 867.082 147.066C866.774 147.339 866.591 147.7 866.532 148.148Z" fill="black"/>
<path d="M887.839 141.206L887.374 145.552L883.721 145.797L882.5 157.133L878.071 157.429L879.292 146.093L875.639 146.338L876.104 141.992L887.839 141.206Z" fill="black"/>
<path d="M897.356 140.57L901.785 140.273L900.099 155.955L895.67 156.251L896.284 150.472L892.52 150.724L891.906 156.503L887.477 156.8L889.164 141.118L893.592 140.821L892.985 146.378L896.749 146.126L897.356 140.57Z" fill="black"/>
<path d="M902.311 155.807L903.997 140.125L908.426 139.829L907.689 146.773L913.297 139.503L916.84 139.266L915.154 154.948L910.725 155.244L911.461 148.3L905.854 155.57L902.311 155.807Z" fill="black"/>
<path d="M930.447 149.609L932.33 149.483L931.531 156.832L927.103 157.128L927.436 154.126L917.361 154.8L919.047 139.118L923.697 138.807L922.476 150.143L925.798 149.92L927.018 138.584L931.668 138.273L930.447 149.609Z" fill="black"/>
<path d="M942.722 153.102L942.412 151.121L937.939 151.421L937.187 153.473L932.293 153.8L938.917 137.788L944.098 137.441L947.35 152.793L942.722 153.102ZM939.274 147.773L941.842 147.601L941.081 142.87L939.274 147.773Z" fill="black"/>
<path d="M992.327 134.213L996.756 133.917L995.07 149.599L990.641 149.895L991.149 145.191C990.508 145.352 989.832 145.457 989.124 145.504C987.102 145.639 985.621 145.227 984.682 144.267C983.743 143.307 983.369 141.93 983.56 140.138L984.135 134.762L988.563 134.465L988.005 139.752C987.951 140.274 988.079 140.644 988.39 140.86C988.716 141.076 989.219 141.168 989.899 141.137C990.431 141.102 991.002 141.004 991.614 140.845L992.327 134.213Z" fill="black"/>
<path d="M1008.61 137.172L1002.96 137.55L1002.79 139.252L1007.88 138.911L1007.44 142.944L1002.35 143.285L1002.15 145.033L1007.91 144.647L1007.47 148.769L997.287 149.451L998.973 133.769L1009.05 133.094L1008.61 137.172Z" fill="black"/>
<path d="M1017.02 132.561C1018.53 132.46 1019.79 132.909 1020.8 133.909C1021.83 134.893 1022.28 136.264 1022.15 138.023C1022.02 139.662 1021.4 141.008 1020.3 142.061C1019.22 143.097 1017.76 143.677 1015.93 143.799L1014.16 143.918L1013.67 148.354L1009.25 148.65L1010.93 132.968L1017.02 132.561ZM1017.75 138.095C1017.79 137.677 1017.69 137.372 1017.44 137.181C1017.19 136.976 1016.89 136.884 1016.55 136.907L1014.89 137.018L1014.62 139.572L1016.39 139.453C1016.73 139.431 1017.03 139.299 1017.3 139.059C1017.56 138.804 1017.71 138.483 1017.75 138.095Z" fill="black"/>
<path d="M1032.29 131.539L1036.72 131.242L1035.03 146.924L1030.61 147.221L1031.22 141.441L1027.46 141.693L1026.84 147.473L1022.41 147.769L1024.1 132.087L1028.53 131.791L1027.92 137.347L1031.69 137.095L1032.29 131.539Z" fill="black"/>
<path d="M1046.35 146.167L1046.04 144.186L1041.56 144.486L1040.81 146.538L1035.92 146.865L1042.54 130.853L1047.72 130.506L1050.98 145.857L1046.35 146.167ZM1042.9 140.838L1045.47 140.666L1044.71 135.935L1042.9 140.838Z" fill="black"/>
<path d="M1065.74 129.278L1064.03 144.961L1059.6 145.258L1060.14 140.329L1059.76 140.354L1056.46 145.468L1051.41 145.806L1055.37 139.891C1054.5 139.446 1053.86 138.784 1053.46 137.907C1053.08 137.013 1052.96 136.064 1053.12 135.061C1053.32 133.653 1053.98 132.438 1055.1 131.414C1056.21 130.39 1057.69 129.816 1059.54 129.693L1065.74 129.278ZM1057.47 135.369C1057.43 135.817 1057.53 136.173 1057.79 136.438C1058.06 136.702 1058.41 136.811 1058.86 136.767L1060.54 136.654L1060.85 133.697L1059.17 133.81C1058.71 133.841 1058.33 134 1058.02 134.287C1057.72 134.56 1057.53 134.921 1057.47 135.369Z" fill="black"/>
<path d="M1084.54 128.042L1082.86 143.724L1078.43 144.02L1079.65 132.684L1076.33 132.907L1075.11 144.242L1070.68 144.539L1072.36 128.857L1084.54 128.042Z" fill="black"/>
<path d="M1098.52 127.084L1096.81 142.767L1092.38 143.064L1092.92 138.135L1092.54 138.16L1089.24 143.274L1084.19 143.612L1088.15 137.698C1087.28 137.252 1086.64 136.59 1086.24 135.713C1085.86 134.819 1085.74 133.87 1085.9 132.867C1086.1 131.459 1086.76 130.244 1087.88 129.22C1088.99 128.196 1090.48 127.623 1092.32 127.499L1098.52 127.084ZM1090.25 133.175C1090.21 133.623 1090.32 133.979 1090.57 134.244C1090.84 134.508 1091.2 134.617 1091.64 134.573L1093.32 134.46L1093.63 131.504L1091.95 131.616C1091.49 131.647 1091.11 131.806 1090.8 132.093C1090.5 132.366 1090.31 132.727 1090.25 133.175Z" fill="black"/>
<path d="M1111.56 126.234L1111.1 130.58L1107.44 130.824L1106.22 142.16L1101.79 142.456L1103.01 131.12L1099.36 131.365L1099.83 127.019L1111.56 126.234Z" fill="black"/>
<path d="M1121.08 125.597L1125.51 125.3L1123.82 140.982L1119.39 141.279L1120.01 135.499L1116.24 135.751L1115.63 141.53L1111.2 141.827L1112.89 126.145L1117.31 125.849L1116.71 131.405L1120.47 131.153L1121.08 125.597Z" fill="black"/>
<path d="M1126.03 140.834L1127.72 125.152L1132.15 124.856L1131.41 131.8L1137.02 124.53L1140.56 124.293L1138.88 139.975L1134.45 140.271L1135.18 133.327L1129.58 140.597L1126.03 140.834Z" fill="black"/>
<path d="M1154.17 134.636L1156.05 134.51L1155.25 141.859L1150.82 142.155L1151.16 139.153L1141.08 139.827L1142.77 124.145L1147.42 123.834L1146.2 135.17L1149.52 134.947L1150.74 123.611L1155.39 123.3L1154.17 134.636Z" fill="black"/>
<path d="M1166.44 138.13L1166.13 136.149L1161.66 136.448L1160.91 138.5L1156.02 138.828L1162.64 122.815L1167.82 122.468L1171.07 137.82L1166.44 138.13ZM1163 132.8L1165.56 132.628L1164.8 127.897L1163 132.8Z" fill="black"/>
<path d="M1216.05 119.241L1220.48 118.944L1218.79 134.626L1214.36 134.922L1214.87 130.218C1214.23 130.379 1213.55 130.484 1212.85 130.531C1210.82 130.667 1209.34 130.254 1208.4 129.294C1207.46 128.334 1207.09 126.957 1207.28 125.165L1207.86 119.789L1212.28 119.492L1211.73 124.779C1211.67 125.301 1211.8 125.671 1212.11 125.887C1212.44 126.103 1212.94 126.195 1213.62 126.164C1214.15 126.129 1214.72 126.031 1215.34 125.872L1216.05 119.241Z" fill="black"/>
<path d="M1232.33 122.199L1226.68 122.577L1226.51 124.279L1231.6 123.938L1231.16 127.971L1226.07 128.312L1225.87 130.06L1231.63 129.674L1231.19 133.796L1221.01 134.478L1222.7 118.796L1232.77 118.121L1232.33 122.199Z" fill="black"/>
<path d="M1240.74 117.588C1242.25 117.487 1243.51 117.937 1244.52 118.936C1245.55 119.92 1246 121.291 1245.87 123.05C1245.74 124.69 1245.13 126.035 1244.02 127.088C1242.94 128.124 1241.48 128.704 1239.65 128.826L1237.88 128.945L1237.4 133.381L1232.97 133.677L1234.65 117.995L1240.74 117.588ZM1241.47 123.122C1241.51 122.704 1241.41 122.399 1241.16 122.208C1240.91 122.003 1240.62 121.911 1240.28 121.934L1238.62 122.045L1238.34 124.599L1240.11 124.48C1240.45 124.458 1240.76 124.326 1241.02 124.086C1241.29 123.831 1241.44 123.51 1241.47 123.122Z" fill="black"/>
<path d="M1256.01 116.566L1260.44 116.269L1258.76 131.951L1254.33 132.248L1254.94 126.468L1251.18 126.72L1250.56 132.5L1246.14 132.796L1247.82 117.114L1252.25 116.818L1251.64 122.374L1255.41 122.122L1256.01 116.566Z" fill="black"/>
<path d="M1270.07 131.194L1269.76 129.213L1265.29 129.513L1264.53 131.565L1259.64 131.892L1266.26 115.88L1271.45 115.533L1274.7 130.885L1270.07 131.194ZM1266.62 125.865L1269.19 125.693L1268.43 120.962L1266.62 125.865Z" fill="black"/>
<path d="M1289.46 114.305L1287.75 129.989L1283.32 130.285L1283.86 125.356L1283.49 125.381L1280.18 130.495L1275.13 130.833L1279.1 124.919C1278.22 124.473 1277.58 123.811 1277.18 122.934C1276.8 122.04 1276.68 121.091 1276.84 120.088C1277.04 118.68 1277.7 117.465 1278.82 116.441C1279.93 115.417 1281.42 114.844 1283.26 114.72L1289.46 114.305ZM1281.19 120.397C1281.15 120.844 1281.26 121.201 1281.51 121.465C1281.78 121.729 1282.14 121.838 1282.58 121.794L1284.26 121.681L1284.57 118.725L1282.89 118.837C1282.43 118.868 1282.05 119.027 1281.75 119.314C1281.44 119.587 1281.25 119.948 1281.19 120.397Z" fill="black"/>
<path d="M1308.26 113.069L1306.58 128.751L1302.15 129.047L1303.37 117.711L1300.05 117.934L1298.83 129.27L1294.4 129.566L1296.09 113.884L1308.26 113.069Z" fill="black"/>
<path d="M1322.24 112.111L1320.53 127.795L1316.11 128.091L1316.64 123.162L1316.27 123.187L1312.96 128.301L1307.91 128.639L1311.88 122.725C1311 122.279 1310.36 121.617 1309.96 120.74C1309.58 119.846 1309.46 118.898 1309.62 117.894C1309.82 116.486 1310.48 115.271 1311.6 114.247C1312.72 113.223 1314.2 112.65 1316.04 112.526L1322.24 112.111ZM1313.98 118.203C1313.93 118.65 1314.04 119.007 1314.29 119.271C1314.56 119.535 1314.92 119.645 1315.36 119.6L1317.04 119.488L1317.36 116.531L1315.67 116.643C1315.22 116.674 1314.83 116.833 1314.53 117.12C1314.22 117.393 1314.03 117.754 1313.98 118.203Z" fill="black"/>
<path d="M1335.28 111.261L1334.82 115.607L1331.16 115.851L1329.94 127.187L1325.52 127.483L1326.74 116.148L1323.08 116.392L1323.55 112.046L1335.28 111.261Z" fill="black"/>
<path d="M1344.8 110.624L1349.23 110.327L1347.54 126.009L1343.11 126.306L1343.73 120.526L1339.96 120.778L1339.35 126.558L1334.92 126.854L1336.61 111.172L1341.04 110.876L1340.43 116.432L1344.19 116.18L1344.8 110.624Z" fill="black"/>
<path d="M1349.75 125.861L1351.44 110.179L1355.87 109.883L1355.13 116.827L1360.74 109.557L1364.28 109.32L1362.6 125.002L1358.17 125.298L1358.91 118.354L1353.3 125.624L1349.75 125.861Z" fill="black"/>
<path d="M1377.89 119.663L1379.77 119.537L1378.98 126.886L1374.55 127.182L1374.88 124.18L1364.8 124.854L1366.49 109.172L1371.14 108.861L1369.92 120.197L1373.24 119.974L1374.46 108.639L1379.11 108.327L1377.89 119.663Z" fill="black"/>
<path d="M1390.17 123.157L1389.86 121.176L1385.38 121.475L1384.63 123.527L1379.74 123.855L1386.36 107.842L1391.54 107.495L1394.79 122.847L1390.17 123.157ZM1386.72 117.827L1389.29 117.655L1388.52 112.924L1386.72 117.827Z" fill="black"/>
<path d="M1439.77 104.268L1444.2 103.971L1442.51 119.653L1438.09 119.95L1438.59 115.245C1437.95 115.406 1437.28 115.511 1436.57 115.558C1434.55 115.694 1433.06 115.281 1432.13 114.321C1431.19 113.361 1430.81 111.985 1431 110.192L1431.58 104.816L1436.01 104.52L1435.45 109.806C1435.4 110.329 1435.52 110.698 1435.83 110.914C1436.16 111.13 1436.66 111.222 1437.34 111.192C1437.87 111.156 1438.45 111.058 1439.06 110.899L1439.77 104.268Z" fill="black"/>
<path d="M1456.05 107.226L1450.41 107.604L1450.23 109.306L1455.32 108.965L1454.88 112.998L1449.79 113.339L1449.6 115.087L1455.35 114.701L1454.92 118.823L1444.73 119.505L1446.42 103.823L1456.49 103.149L1456.05 107.226Z" fill="black"/>
<path d="M1464.46 102.615C1465.97 102.514 1467.23 102.964 1468.25 103.963C1469.28 104.947 1469.72 106.318 1469.59 108.077C1469.46 109.717 1468.85 111.063 1467.75 112.115C1466.66 113.151 1465.2 113.731 1463.37 113.853L1461.6 113.972L1461.12 118.408L1456.69 118.704L1458.38 103.023L1464.46 102.615ZM1465.19 108.149C1465.24 107.731 1465.13 107.426 1464.88 107.235C1464.63 107.03 1464.34 106.938 1464 106.961L1462.34 107.072L1462.06 109.626L1463.84 109.507C1464.18 109.485 1464.48 109.353 1464.74 109.113C1465.01 108.858 1465.16 108.537 1465.19 108.149Z" fill="black"/>
<path d="M1479.74 101.593L1484.16 101.297L1482.48 116.978L1478.05 117.275L1478.66 111.495L1474.9 111.747L1474.29 117.527L1469.86 117.823L1471.54 102.141L1475.97 101.845L1475.37 107.401L1479.13 107.149L1479.74 101.593Z" fill="black"/>
<path d="M1493.79 116.221L1493.48 114.24L1489.01 114.54L1488.26 116.592L1483.36 116.919L1489.99 100.907L1495.17 100.56L1498.42 115.912L1493.79 116.221ZM1490.34 110.892L1492.91 110.72L1492.15 105.989L1490.34 110.892Z" fill="black"/>
<path d="M1513.18 99.3322L1511.48 115.016L1507.05 115.312L1507.58 110.383L1507.21 110.408L1503.9 115.522L1498.85 115.86L1502.82 109.946C1501.94 109.5 1501.3 108.838 1500.91 107.961C1500.52 107.067 1500.4 106.119 1500.56 105.115C1500.76 103.707 1501.42 102.492 1502.54 101.468C1503.66 100.444 1505.14 99.8706 1506.98 99.7471L1513.18 99.3322ZM1504.92 105.424C1504.87 105.871 1504.98 106.228 1505.23 106.492C1505.5 106.756 1505.86 106.866 1506.3 106.821L1507.98 106.709L1508.3 103.752L1506.61 103.864C1506.16 103.895 1505.77 104.054 1505.47 104.341C1505.16 104.614 1504.98 104.975 1504.92 105.424Z" fill="black"/>
<path d="M1531.99 98.0961L1530.3 113.778L1525.87 114.074L1527.09 102.738L1523.77 102.961L1522.55 114.297L1518.12 114.593L1519.81 98.9111L1531.99 98.0961Z" fill="black"/>
<path d="M1545.96 97.1383L1544.26 112.822L1539.83 113.118L1540.37 108.189L1539.99 108.214L1536.68 113.328L1531.64 113.666L1535.6 107.752C1534.72 107.306 1534.09 106.645 1533.69 105.767C1533.3 104.873 1533.19 103.925 1533.34 102.921C1533.54 101.513 1534.2 100.298 1535.32 99.2741C1536.44 98.2503 1537.92 97.6767 1539.76 97.5532L1545.96 97.1383ZM1537.7 103.23C1537.65 103.677 1537.76 104.034 1538.01 104.298C1538.28 104.562 1538.64 104.672 1539.08 104.627L1540.76 104.515L1541.08 101.558L1539.4 101.67C1538.94 101.701 1538.56 101.86 1538.25 102.147C1537.94 102.42 1537.76 102.781 1537.7 103.23Z" fill="black"/>
<path d="M1559.01 96.2877L1558.54 100.634L1554.89 100.878L1553.67 112.214L1549.24 112.511L1550.46 101.175L1546.8 101.419L1547.27 97.0732L1559.01 96.2877Z" fill="black"/>
<path d="M1568.52 95.6508L1572.95 95.3544L1571.26 111.036L1566.84 111.333L1567.45 105.553L1563.69 105.805L1563.07 111.585L1558.64 111.881L1560.33 96.1991L1564.76 95.9027L1564.15 101.459L1567.92 101.207L1568.52 95.6508Z" fill="black"/>
<path d="M1573.48 110.888L1575.16 95.2064L1579.59 94.91L1578.86 101.854L1584.46 94.584L1588.01 94.3469L1586.32 110.029L1581.89 110.325L1582.63 103.381L1577.02 110.651L1573.48 110.888Z" fill="black"/>
<path d="M1601.61 104.69L1603.5 104.564L1602.7 111.913L1598.27 112.209L1598.6 109.207L1588.53 109.881L1590.21 94.1991L1594.86 93.8879L1593.64 105.224L1596.96 105.002L1598.18 93.6656L1602.83 93.3544L1601.61 104.69Z" fill="black"/>
<path d="M1613.89 108.184L1613.58 106.203L1609.11 106.502L1608.35 108.554L1603.46 108.882L1610.08 92.8693L1615.26 92.5225L1618.52 107.874L1613.89 108.184ZM1610.44 102.854L1613.01 102.682L1612.25 97.9512L1610.44 102.854Z" fill="black"/>
<path d="M1663.49 89.2948L1667.92 88.9984L1666.24 104.68L1661.81 104.977L1662.31 100.272C1661.67 100.434 1661 100.538 1660.29 100.585C1658.27 100.721 1656.79 100.308 1655.85 99.3481C1654.91 98.3878 1654.53 97.0116 1654.73 95.2195L1655.3 89.8431L1659.73 89.5467L1659.17 94.833C1659.12 95.3556 1659.25 95.7251 1659.56 95.9415C1659.88 96.157 1660.38 96.2494 1661.06 96.2187C1661.6 96.1831 1662.17 96.0855 1662.78 95.9259L1663.49 89.2948Z" fill="black"/>
<path d="M1679.78 92.253L1674.13 92.6309L1673.95 94.333L1679.05 93.9921L1678.6 98.0252L1673.51 98.366L1673.32 100.114L1679.07 99.7286L1678.64 103.85L1668.45 104.532L1670.14 88.8499L1680.21 88.1757L1679.78 92.253Z" fill="black"/>
<path d="M1688.19 87.6421C1689.69 87.5414 1690.95 87.9908 1691.97 88.9904C1693 89.9742 1693.45 91.3455 1693.31 93.1042C1693.18 94.7437 1692.57 96.0897 1691.47 97.142C1690.38 98.1786 1688.92 98.7581 1687.09 98.8806L1685.32 98.9992L1684.84 103.435L1680.41 103.732L1682.1 88.0497L1688.19 87.6421ZM1688.91 93.1761C1688.96 92.7579 1688.86 92.4533 1688.61 92.2625C1688.36 92.0569 1688.06 91.9654 1687.72 91.9881L1686.06 92.0993L1685.79 94.6531L1687.56 94.5346C1687.9 94.5119 1688.2 94.3804 1688.47 94.1402C1688.73 93.8853 1688.88 93.5639 1688.91 93.1761Z" fill="black"/>
<path d="M1703.46 86.62L1707.89 86.3236L1706.2 102.006L1701.77 102.302L1702.39 96.5225L1698.62 96.7745L1698.01 102.554L1693.58 102.85L1695.27 87.1683L1699.69 86.8719L1699.09 92.4285L1702.85 92.1765L1703.46 86.62Z" fill="black"/>
<path d="M1717.51 101.248L1717.2 99.2675L1712.73 99.5668L1711.98 101.619L1707.08 101.946L1713.71 85.934L1718.89 85.5872L1722.14 100.939L1717.51 101.248ZM1714.07 95.9188L1716.63 95.7469L1715.87 91.016L1714.07 95.9188Z" fill="black"/>
<path d="M1736.91 84.3593L1735.2 100.043L1730.77 100.339L1731.31 95.41L1730.93 95.4352L1727.62 100.55L1722.58 100.887L1726.54 94.9728C1725.66 94.5272 1725.03 93.8655 1724.63 92.9878C1724.24 92.0943 1724.13 91.1457 1724.28 90.1418C1724.48 88.7345 1725.14 87.5189 1726.26 86.4951C1727.38 85.4713 1728.86 84.8977 1730.71 84.7742L1736.91 84.3593ZM1728.64 90.4507C1728.59 90.8985 1728.7 91.2547 1728.95 91.5194C1729.22 91.783 1729.58 91.8927 1730.02 91.8483L1731.7 91.7357L1732.02 88.7788L1730.34 88.8914C1729.88 88.922 1729.5 89.0811 1729.19 89.3685C1728.88 89.6412 1728.7 90.0019 1728.64 90.4507Z" fill="black"/>
<path d="M1755.71 83.1232L1754.02 98.8051L1749.59 99.1015L1750.81 87.7656L1747.49 87.9878L1746.27 99.3238L1741.84 99.6202L1743.53 83.9382L1755.71 83.1232Z" fill="black"/>
<path d="M1769.69 82.1654L1767.98 97.8488L1763.55 98.1452L1764.09 93.2161L1763.71 93.2412L1760.41 98.3556L1755.36 98.6935L1759.32 92.7789C1758.45 92.3333 1757.81 91.6716 1757.41 90.7939C1757.02 89.9004 1756.91 88.9517 1757.06 87.9479C1757.26 86.5405 1757.92 85.325 1759.04 84.3012C1760.16 83.2774 1761.64 82.7038 1763.49 82.5803L1769.69 82.1654ZM1761.42 88.2568C1761.38 88.7045 1761.48 89.0608 1761.74 89.3254C1762.01 89.5891 1762.36 89.6988 1762.8 89.6544L1764.49 89.5417L1764.8 86.5848L1763.12 86.6975C1762.66 86.7281 1762.28 86.8871 1761.97 87.1746C1761.66 87.4473 1761.48 87.808 1761.42 88.2568Z" fill="black"/>
<path d="M1782.73 81.3148L1782.26 85.6608L1778.61 85.9054L1777.39 97.2413L1772.96 97.5377L1774.18 86.2017L1770.53 86.4463L1770.99 82.1003L1782.73 81.3148Z" fill="black"/>
<path d="M1792.24 80.6779L1796.67 80.3815L1794.99 96.0635L1790.56 96.3598L1791.17 90.5804L1787.41 90.8324L1786.79 96.6118L1782.37 96.9081L1784.05 81.2262L1788.48 80.9298L1787.87 86.4863L1791.64 86.2344L1792.24 80.6779Z" fill="black"/>
<path d="M1797.2 95.9154L1798.88 80.2335L1803.31 79.9371L1802.58 86.8812L1808.18 79.6111L1811.73 79.374L1810.04 95.0559L1805.61 95.3523L1806.35 88.4081L1800.74 95.6783L1797.2 95.9154Z" fill="black"/>
<path d="M1825.34 89.7175L1827.22 89.5915L1826.42 96.9401L1821.99 97.2365L1822.32 94.2339L1812.25 94.9081L1813.93 79.2262L1818.58 78.915L1817.36 90.2509L1820.69 90.0287L1821.91 78.6927L1826.56 78.3815L1825.34 89.7175Z" fill="black"/>
<path d="M1837.61 93.2108L1837.3 91.2298L1832.83 91.5292L1832.07 93.5813L1827.18 93.9088L1833.8 77.8964L1838.99 77.5496L1842.24 92.9011L1837.61 93.2108ZM1834.16 87.8812L1836.73 87.7093L1835.97 82.9783L1834.16 87.8812Z" fill="black"/>
<path d="M1887.22 74.3218L1891.64 74.0254L1889.96 89.7074L1885.53 90.0038L1886.04 85.299C1885.4 85.4606 1884.72 85.5651 1884.01 85.6125C1881.99 85.7479 1880.51 85.3354 1879.57 84.3751C1878.63 83.4149 1878.26 82.0387 1878.45 80.2465L1879.02 74.8701L1883.45 74.5738L1882.89 79.8601C1882.84 80.3827 1882.97 80.7522 1883.28 80.9686C1883.6 81.1841 1884.11 81.2764 1884.79 81.2458C1885.32 81.2102 1885.89 81.1126 1886.5 80.953L1887.22 74.3218Z" fill="black"/>
<path d="M1903.5 77.2801L1897.85 77.658L1897.68 79.3601L1902.77 79.0192L1902.33 83.0523L1897.23 83.3931L1897.04 85.141L1902.8 84.7557L1902.36 88.8773L1892.17 89.559L1893.86 73.877L1903.94 73.2028L1903.5 77.2801Z" fill="black"/>
<path d="M1911.91 72.6692C1913.41 72.5684 1914.67 73.0179 1915.69 74.0175C1916.72 75.0013 1917.17 76.3726 1917.03 78.1312C1916.91 79.7708 1916.29 81.1168 1915.19 82.1691C1914.1 83.2056 1912.64 83.7852 1910.81 83.9077L1909.04 84.0262L1908.56 88.4623L1904.13 88.7587L1905.82 73.0767L1911.91 72.6692ZM1912.63 78.2032C1912.68 77.785 1912.58 77.4804 1912.33 77.2896C1912.08 77.0839 1911.78 76.9925 1911.44 77.0152L1909.78 77.1264L1909.51 79.6802L1911.28 79.5617C1911.62 79.539 1911.92 79.4075 1912.19 79.1673C1912.45 78.9123 1912.6 78.591 1912.63 78.2032Z" fill="black"/>
<path d="M1927.18 71.6471L1931.61 71.3507L1929.92 87.0327L1925.49 87.329L1926.11 81.5496L1922.34 81.8016L1921.73 87.581L1917.3 87.8774L1918.99 72.1954L1923.42 71.899L1922.81 77.4555L1926.57 77.2036L1927.18 71.6471Z" fill="black"/>
<path d="M1941.24 86.2755L1940.93 84.2946L1936.45 84.5939L1935.7 86.646L1930.81 86.9735L1937.43 70.9611L1942.61 70.6143L1945.86 85.9658L1941.24 86.2755ZM1937.79 80.9459L1940.36 80.774L1939.59 76.043L1937.79 80.9459Z" fill="black"/>
<path d="M1960.63 69.3864L1958.92 85.0698L1954.49 85.3662L1955.03 80.4371L1954.65 80.4623L1951.35 85.5766L1946.3 85.9145L1950.26 79.9999C1949.39 79.5543 1948.75 78.8926 1948.35 78.0149C1947.96 77.1214 1947.85 76.1728 1948 75.1689C1948.21 73.7616 1948.87 72.546 1949.98 71.5222C1951.1 70.4984 1952.58 69.9248 1954.43 69.8013L1960.63 69.3864ZM1952.36 75.4778C1952.32 75.9256 1952.42 76.2818 1952.68 76.5465C1952.95 76.8101 1953.3 76.9198 1953.74 76.8754L1955.43 76.7627L1955.74 73.8059L1954.06 73.9185C1953.6 73.9491 1953.22 74.1081 1952.91 74.3956C1952.6 74.6683 1952.42 75.029 1952.36 75.4778Z" fill="black"/>
<path d="M1979.43 68.1503L1977.74 83.8322L1973.31 84.1286L1974.54 72.7927L1971.21 73.0149L1969.99 84.3509L1965.56 84.6472L1967.25 68.9653L1979.43 68.1503Z" fill="black"/>
<path d="M1993.41 67.1925L1991.7 82.8759L1987.27 83.1723L1987.81 78.2431L1987.43 78.2683L1984.13 83.3827L1979.08 83.7206L1983.04 77.8059C1982.17 77.3604 1981.53 76.6987 1981.13 75.821C1980.74 74.9275 1980.63 73.9788 1980.78 72.975C1980.99 71.5676 1981.65 70.3521 1982.76 69.3283C1983.88 68.3045 1985.36 67.7309 1987.21 67.6074L1993.41 67.1925ZM1985.14 73.2839C1985.1 73.7316 1985.2 74.0879 1985.46 74.3525C1985.73 74.6162 1986.08 74.7258 1986.53 74.6814L1988.21 74.5688L1988.52 71.6119L1986.84 71.7246C1986.38 71.7552 1986 71.9142 1985.69 72.2017C1985.38 72.4744 1985.2 72.8351 1985.14 73.2839Z" fill="black"/>
<path d="M2006.45 66.3419L2005.98 70.6879L2002.33 70.9324L2001.11 82.2684L1996.68 82.5648L1997.9 71.2288L1994.25 71.4733L1994.71 67.1273L2006.45 66.3419Z" fill="black"/>
<path d="M2015.97 65.705L2020.39 65.4086L2018.71 81.0906L2014.28 81.3869L2014.89 75.6075L2011.13 75.8594L2010.52 81.6389L2006.09 81.9352L2007.77 66.2533L2012.2 65.9569L2011.6 71.5134L2015.36 71.2615L2015.97 65.705Z" fill="black"/>
<path d="M2020.92 80.9425L2022.61 65.2605L2027.04 64.9642L2026.3 71.9083L2031.91 64.6381L2035.45 64.401L2033.76 80.083L2029.33 80.3794L2030.07 73.4352L2024.46 80.7054L2020.92 80.9425Z" fill="black"/>
<path d="M2049.06 74.7445L2050.94 74.6186L2050.14 81.9672L2045.71 82.2636L2046.05 79.261L2035.97 79.9352L2037.66 64.2533L2042.31 63.9421L2041.09 75.278L2044.41 75.0557L2045.63 63.7198L2050.28 63.4086L2049.06 74.7445Z" fill="black"/>
<path d="M2061.33 78.2379L2061.02 76.2569L2056.55 76.5563L2055.8 78.6084L2050.9 78.9359L2057.53 62.9235L2062.71 62.5767L2065.96 77.9282L2061.33 78.2379ZM2057.88 72.9083L2060.45 72.7364L2059.69 68.0054L2057.88 72.9083Z" fill="black"/>
<defs>
<filter id="filter0_d" x="-474.927" y="0.442505" width="2668.12" height="300.495" filterUnits="userSpaceOnUse" color-interpolation-filters="sRGB">
<feFlood flood-opacity="0" result="BackgroundImageFix"/>
<feColorMatrix in="SourceAlpha" type="matrix" values="0 0 0 0 0 0 0 0 0 0 0 0 0 0 0 0 0 0 127 0"/>
<feOffset/>
<feGaussianBlur stdDeviation="25"/>
<feColorMatrix type="matrix" values="0 0 0 0 0.08 0 0 0 0 1 0 0 0 0 0 0 0 0 1 0"/>
<feBlend mode="normal" in2="BackgroundImageFix" result="effect1_dropShadow"/>
<feBlend mode="normal" in="SourceGraphic" in2="effect1_dropShadow" result="shape"/>
</filter>
</defs>
</svg>
