<svg width="1920" height="503" viewBox="0 0 1920 503" fill="none" xmlns="http://www.w3.org/2000/svg">
<g filter="url(#filter0_d)">
<rect x="-392.421" y="50.9965" width="2571.93" height="28.8139" transform="rotate(13.0413 -392.421 50.9965)" fill="#2CDC00"/>
</g>
<path d="M128.692 178.744L133.015 179.745L126.851 194.263L122.527 193.261L124.379 188.907C123.718 188.875 123.041 188.779 122.349 188.619C120.375 188.162 119.078 187.337 118.458 186.146C117.838 184.954 117.879 183.529 118.582 181.869L120.692 176.891L125.016 177.892L122.948 182.789C122.745 183.274 122.76 183.665 122.995 183.962C123.245 184.263 123.699 184.497 124.359 184.665C124.878 184.785 125.453 184.858 126.085 184.883L128.692 178.744Z" fill="black"/>
<path d="M143.414 186.3L137.901 185.023L137.24 186.601L142.212 187.753L140.619 191.484L135.647 190.332L134.953 191.948L140.574 193.25L138.961 197.068L129.016 194.765L135.181 180.247L145.018 182.525L143.414 186.3Z" fill="black"/>
<path d="M152.802 184.328C154.272 184.669 155.348 185.465 156.03 186.716C156.73 187.956 156.76 189.399 156.121 191.043C155.523 192.575 154.545 193.684 153.186 194.372C151.845 195.048 150.28 195.18 148.493 194.766L146.764 194.365L145.015 198.47L140.692 197.469L146.856 182.951L152.802 184.328ZM151.891 189.835C152.056 189.448 152.047 189.127 151.863 188.872C151.683 188.602 151.426 188.429 151.095 188.352L149.474 187.977L148.47 190.341L150.2 190.742C150.531 190.818 150.859 190.78 151.183 190.628C151.51 190.461 151.746 190.196 151.891 189.835Z" fill="black"/>
<path d="M167.713 187.782L172.037 188.784L165.872 203.301L161.549 202.3L163.813 196.947L160.138 196.096L157.873 201.449L153.549 200.447L159.714 185.929L164.038 186.931L161.845 192.072L165.52 192.923L167.713 187.782Z" fill="black"/>
<path d="M176.918 205.86L177.196 203.874L172.829 202.863L171.513 204.608L166.736 203.501L177.721 190.1L182.78 191.272L181.437 206.907L176.918 205.86ZM175.165 199.759L177.673 200.34L178.317 195.592L175.165 199.759Z" fill="black"/>
<path d="M200.377 195.325L194.191 209.838L189.867 208.836L191.812 204.275L191.444 204.19L186.797 208.125L181.867 206.983L187.377 202.474C186.669 201.793 186.251 200.975 186.123 200.019C186.013 199.052 186.178 198.111 186.618 197.195C187.22 195.907 188.204 194.935 189.571 194.28C190.937 193.625 192.522 193.506 194.323 193.923L200.377 195.325ZM190.698 198.755C190.526 199.171 190.523 199.543 190.691 199.87C190.872 200.2 191.181 200.409 191.617 200.494L193.26 200.875L194.418 198.136L192.775 197.756C192.328 197.652 191.916 197.694 191.539 197.88C191.165 198.051 190.885 198.343 190.698 198.755Z" fill="black"/>
<path d="M218.728 199.599L212.564 214.116L208.24 213.115L212.698 202.621L209.455 201.87L204.997 212.364L200.673 211.362L206.838 196.844L218.728 199.599Z" fill="black"/>
<path d="M232.384 202.739L226.198 217.252L221.874 216.25L223.819 211.689L223.451 211.604L218.804 215.539L213.875 214.397L219.384 209.887C218.676 209.207 218.258 208.389 218.13 207.433C218.02 206.466 218.185 205.524 218.625 204.609C219.227 203.321 220.211 202.349 221.578 201.694C222.945 201.038 224.529 200.919 226.33 201.337L232.384 202.739ZM222.705 206.169C222.533 206.585 222.531 206.956 222.698 207.284C222.879 207.614 223.188 207.822 223.624 207.908L225.267 208.289L226.425 205.55L224.782 205.169C224.335 205.066 223.923 205.107 223.546 205.293C223.172 205.465 222.892 205.757 222.705 206.169Z" fill="black"/>
<path d="M245.11 205.709L243.404 209.733L239.836 208.907L235.378 219.401L231.054 218.399L235.512 207.906L231.945 207.079L233.652 203.055L245.11 205.709Z" fill="black"/>
<path d="M254.402 207.862L258.726 208.863L252.562 223.381L248.238 222.379L250.503 217.027L246.827 216.176L244.562 221.528L240.239 220.527L246.403 206.009L250.727 207.01L248.534 212.152L252.209 213.003L254.402 207.862Z" fill="black"/>
<path d="M254.722 223.881L260.886 209.364L265.21 210.365L262.491 216.797L269.967 211.467L273.426 212.268L267.261 226.786L262.937 225.784L265.657 219.353L258.181 224.683L254.722 223.881Z" fill="black"/>
<path d="M283.446 226.115L285.284 226.541L282.387 233.342L278.063 232.34L279.253 229.563L269.416 227.285L275.581 212.767L280.121 213.819L275.663 224.313L278.906 225.064L283.364 214.57L287.904 215.622L283.446 226.115Z" fill="black"/>
<path d="M294.179 233.021L294.457 231.035L290.089 230.023L288.774 231.769L283.996 230.662L294.982 217.261L300.041 218.433L298.697 234.067L294.179 233.021ZM292.426 226.92L294.934 227.501L295.578 222.752L292.426 226.92Z" fill="black"/>
<path d="M-89.7478 128.147L-85.4239 129.149L-91.5884 143.667L-95.9124 142.665L-94.0608 138.31C-94.7217 138.279 -95.398 138.183 -96.0899 138.022C-98.0645 137.565 -99.3618 136.741 -99.9818 135.549C-100.602 134.358 -100.56 132.932 -99.8569 131.273L-97.747 126.294L-93.4231 127.296L-95.4913 132.193C-95.6946 132.677 -95.6789 133.068 -95.444 133.366C-95.1948 133.666 -94.7403 133.901 -94.0807 134.069C-93.5618 134.189 -92.9863 134.261 -92.3543 134.286L-89.7478 128.147Z" fill="black"/>
<path d="M-75.0249 135.703L-80.5379 134.426L-81.1995 136.004L-76.227 137.156L-77.8202 140.887L-82.7927 139.736L-83.486 141.352L-77.8649 142.654L-79.4781 146.472L-89.4231 144.168L-83.2586 129.65L-73.4217 131.929L-75.0249 135.703Z" fill="black"/>
<path d="M-65.6378 133.732C-64.1677 134.072 -63.0916 134.868 -62.4095 136.12C-61.7097 137.36 -61.6793 138.802 -62.3182 140.446C-62.9161 141.978 -63.8945 143.088 -65.2534 143.775C-66.5946 144.452 -68.1589 144.583 -69.9461 144.169L-71.6756 143.769L-73.4238 147.874L-77.7477 146.872L-71.5832 132.355L-65.6378 133.732ZM-66.5488 139.238C-66.3833 138.852 -66.3924 138.531 -66.5763 138.275C-66.7569 138.006 -67.0128 137.833 -67.3443 137.756L-68.9658 137.38L-69.9691 139.745L-68.2395 140.145C-67.908 140.222 -67.5803 140.184 -67.2564 140.031C-66.9291 139.864 -66.6932 139.6 -66.5488 139.238Z" fill="black"/>
<path d="M-50.7263 137.186L-46.4023 138.187L-52.5669 152.705L-56.8908 151.703L-54.626 146.351L-58.3013 145.5L-60.5661 150.852L-64.89 149.851L-58.7255 135.333L-54.4016 136.334L-56.5947 141.476L-52.9194 142.327L-50.7263 137.186Z" fill="black"/>
<path d="M-41.521 155.263L-41.2433 153.278L-45.6104 152.266L-46.9259 154.012L-51.7038 152.905L-40.7181 139.504L-35.6591 140.676L-37.0025 156.31L-41.521 155.263ZM-43.2742 149.163L-40.7664 149.743L-40.1221 144.995L-43.2742 149.163Z" fill="black"/>
<path d="M-18.0626 144.729L-24.2488 159.241L-28.5727 158.24L-26.6278 153.679L-26.9954 153.594L-31.6427 157.529L-36.5719 156.387L-31.0625 151.877C-31.7706 151.197 -32.1885 150.379 -32.3164 149.423C-32.4265 148.456 -32.2616 147.514 -31.8217 146.599C-31.2196 145.311 -30.2352 144.339 -28.8685 143.684C-27.5018 143.028 -25.9177 142.909 -24.116 143.327L-18.0626 144.729ZM-27.7411 148.159C-27.9133 148.575 -27.9159 148.946 -27.7487 149.273C-27.5671 149.604 -27.2584 149.812 -26.8227 149.898L-25.1796 150.279L-24.0213 147.54L-25.6644 147.159C-26.1112 147.056 -26.5232 147.097 -26.9004 147.283C-27.2742 147.455 -27.5545 147.747 -27.7411 148.159Z" fill="black"/>
<path d="M0.289064 149.002L-5.87551 163.52L-10.1994 162.518L-5.74139 152.025L-8.98433 151.273L-13.4423 161.767L-17.7662 160.766L-11.6017 146.248L0.289064 149.002Z" fill="black"/>
<path d="M13.9444 152.142L7.75824 166.655L3.43436 165.654L5.3792 161.093L5.01167 161.007L0.36439 164.943L-4.56489 163.801L0.944479 159.291C0.236444 158.611 -0.181483 157.792 -0.309333 156.836C-0.419455 155.869 -0.254548 154.928 0.185328 154.012C0.787378 152.724 1.77178 151.753 3.13848 151.097C4.50517 150.442 6.08934 150.323 7.89098 150.74L13.9444 152.142ZM4.26593 155.573C4.09371 155.988 4.09118 156.36 4.25834 156.687C4.43995 157.018 4.74862 157.226 5.18436 157.312L6.82741 157.692L7.98567 154.954L6.34258 154.573C5.89579 154.47 5.4838 154.511 5.1066 154.697C4.73277 154.868 4.45254 155.16 4.26593 155.573Z" fill="black"/>
<path d="M26.6708 155.113L24.9642 159.137L21.397 158.311L16.939 168.804L12.6151 167.803L17.0731 157.309L13.5059 156.483L15.2124 152.459L26.6708 155.113Z" fill="black"/>
<path d="M35.963 157.265L40.2869 158.267L34.1223 172.785L29.7984 171.783L32.0632 166.431L28.3879 165.579L26.1231 170.932L21.7992 169.93L27.9638 155.412L32.2877 156.414L30.0945 161.555L33.7698 162.407L35.963 157.265Z" fill="black"/>
<path d="M36.2825 173.285L42.4471 158.767L46.771 159.769L44.0512 166.2L51.5273 160.87L54.9865 161.672L48.8219 176.189L44.498 175.188L47.2178 168.756L39.7417 174.086L36.2825 173.285Z" fill="black"/>
<path d="M65.0068 175.519L66.8444 175.945L63.948 182.745L59.6241 181.744L60.814 178.967L50.9771 176.689L57.1416 162.171L61.6818 163.222L57.2237 173.716L60.4667 174.467L64.9247 163.974L69.4648 165.025L65.0068 175.519Z" fill="black"/>
<path d="M75.7395 182.424L76.0173 180.438L71.6502 179.427L70.3347 181.172L65.5567 180.066L76.5425 166.665L81.6014 167.836L80.258 183.471L75.7395 182.424ZM73.9864 176.323L76.4942 176.904L77.1385 172.156L73.9864 176.323Z" fill="black"/>
<path d="M-308.187 77.5509L-303.863 78.5524L-310.028 93.0701L-314.352 92.0686L-312.5 87.7138C-313.161 87.6822 -313.837 87.5863 -314.529 87.426C-316.504 86.9686 -317.801 86.1442 -318.421 84.9528C-319.041 83.7613 -318.999 82.3358 -318.296 80.6764L-316.186 75.698L-311.862 76.6996L-313.931 81.5964C-314.134 82.0809 -314.118 82.4718 -313.883 82.7692C-313.634 83.0699 -313.18 83.3042 -312.52 83.4722C-312.001 83.5924 -311.426 83.6649 -310.794 83.6898L-308.187 77.5509Z" fill="black"/>
<path d="M-293.464 85.1069L-298.977 83.83L-299.639 85.408L-294.666 86.5597L-296.26 90.291L-301.232 89.1392L-301.925 90.7554L-296.304 92.0574L-297.917 95.8752L-307.862 93.5717L-301.698 79.0539L-291.861 81.3324L-293.464 85.1069Z" fill="black"/>
<path d="M-284.077 83.1354C-282.607 83.4759 -281.531 84.2719 -280.849 85.5233C-280.149 86.7636 -280.119 88.2057 -280.758 89.8497C-281.355 91.3817 -282.334 92.4915 -283.693 93.179C-285.034 93.8555 -286.598 93.9867 -288.385 93.5727L-290.115 93.1721L-291.863 97.2775L-296.187 96.276L-290.022 81.7583L-284.077 83.1354ZM-284.988 88.642C-284.823 88.2551 -284.832 87.9341 -285.016 87.6789C-285.196 87.4093 -285.452 87.2361 -285.784 87.1593L-287.405 86.7837L-288.408 89.1482L-286.679 89.5488C-286.347 89.6256 -286.02 89.5876 -285.696 89.4348C-285.368 89.2677 -285.133 89.0034 -284.988 88.642Z" fill="black"/>
<path d="M-269.166 86.5893L-264.842 87.5908L-271.006 102.109L-275.33 101.107L-273.065 95.7545L-276.741 94.9032L-279.005 100.256L-283.329 99.2542L-277.165 84.7365L-272.841 85.738L-275.034 90.8793L-271.359 91.7306L-269.166 86.5893Z" fill="black"/>
<path d="M-259.96 104.667L-259.683 102.681L-264.05 101.67L-265.365 103.415L-270.143 102.308L-259.157 88.9075L-254.098 90.0792L-255.442 105.714L-259.96 104.667ZM-261.714 98.5661L-259.206 99.147L-258.561 94.3987L-261.714 98.5661Z" fill="black"/>
<path d="M-236.502 94.1323L-242.688 108.645L-247.012 107.643L-245.067 103.082L-245.435 102.997L-250.082 106.932L-255.011 105.791L-249.502 101.281C-250.21 100.6 -250.628 99.7823 -250.756 98.8263C-250.866 97.8593 -250.701 96.9179 -250.261 96.0024C-249.659 94.7143 -248.675 93.7426 -247.308 93.0872C-245.941 92.4319 -244.357 92.3129 -242.555 92.7302L-236.502 94.1323ZM-246.18 97.5626C-246.353 97.9783 -246.355 98.3498 -246.188 98.677C-246.006 99.0076 -245.698 99.2158 -245.262 99.3015L-243.619 99.6821L-242.461 96.9435L-244.104 96.5629C-244.551 96.4594 -244.963 96.5007 -245.34 96.6867C-245.714 96.8582 -245.994 97.1502 -246.18 97.5626Z" fill="black"/>
<path d="M-218.15 98.4058L-224.315 112.924L-228.639 111.922L-224.181 101.428L-227.424 100.677L-231.882 111.171L-236.206 110.169L-230.041 95.6516L-218.15 98.4058Z" fill="black"/>
<path d="M-204.495 101.546L-210.681 116.059L-215.005 115.057L-213.06 110.496L-213.428 110.411L-218.075 114.346L-223.004 113.204L-217.495 108.694C-218.203 108.014 -218.621 107.196 -218.749 106.24C-218.859 105.273 -218.694 104.332 -218.254 103.416C-217.652 102.128 -216.668 101.156 -215.301 100.501C-213.934 99.8456 -212.35 99.7265 -210.548 100.144L-204.495 101.546ZM-214.173 104.976C-214.346 105.392 -214.348 105.763 -214.181 106.091C-213.999 106.421 -213.691 106.629 -213.255 106.715L-211.612 107.096L-210.454 104.357L-212.097 103.977C-212.544 103.873 -212.955 103.914 -213.333 104.1C-213.707 104.272 -213.987 104.564 -214.173 104.976Z" fill="black"/>
<path d="M-191.768 104.517L-193.475 108.54L-197.042 107.714L-201.5 118.208L-205.824 117.206L-201.366 106.713L-204.933 105.886L-203.227 101.862L-191.768 104.517Z" fill="black"/>
<path d="M-182.476 106.669L-178.152 107.67L-184.317 122.188L-188.641 121.187L-186.376 115.834L-190.051 114.983L-192.316 120.335L-196.64 119.334L-190.476 104.816L-186.152 105.818L-188.345 110.959L-184.669 111.81L-182.476 106.669Z" fill="black"/>
<path d="M-182.157 122.688L-175.992 108.171L-171.668 109.172L-174.388 115.604L-166.912 110.274L-163.453 111.075L-169.617 125.593L-173.941 124.591L-171.221 118.16L-178.698 123.49L-182.157 122.688Z" fill="black"/>
<path d="M-153.433 124.923L-151.595 125.348L-154.491 132.149L-158.815 131.147L-157.625 128.371L-167.462 126.092L-161.298 111.574L-156.758 112.626L-161.216 123.12L-157.973 123.871L-153.515 113.377L-148.975 114.429L-153.433 124.923Z" fill="black"/>
<path d="M-142.7 131.828L-142.422 129.842L-146.789 128.83L-148.105 130.576L-152.883 129.469L-141.897 116.068L-136.838 117.24L-138.181 132.874L-142.7 131.828ZM-144.453 125.727L-141.945 126.308L-141.301 121.559L-144.453 125.727Z" fill="black"/>
<path d="M342.97 228.376L347.294 229.378L341.129 243.896L336.805 242.894L338.657 238.539C337.996 238.508 337.32 238.412 336.628 238.252C334.653 237.794 333.356 236.97 332.736 235.778C332.116 234.587 332.157 233.161 332.861 231.502L334.971 226.524L339.295 227.525L337.226 232.422C337.023 232.906 337.039 233.297 337.274 233.595C337.523 233.895 337.977 234.13 338.637 234.298C339.156 234.418 339.731 234.49 340.363 234.515L342.97 228.376Z" fill="black"/>
<path d="M357.693 235.932L352.18 234.655L351.518 236.233L356.491 237.385L354.897 241.116L349.925 239.965L349.232 241.581L354.853 242.883L353.24 246.701L343.295 244.397L349.459 229.879L359.296 232.158L357.693 235.932Z" fill="black"/>
<path d="M367.08 233.961C368.55 234.301 369.626 235.097 370.308 236.349C371.008 237.589 371.038 239.031 370.399 240.675C369.802 242.207 368.823 243.317 367.464 244.004C366.123 244.681 364.559 244.812 362.772 244.398L361.042 243.998L359.294 248.103L354.97 247.101L361.134 232.584L367.08 233.961ZM366.169 239.467C366.334 239.081 366.325 238.76 366.141 238.504C365.961 238.235 365.705 238.062 365.373 237.985L363.752 237.609L362.749 239.974L364.478 240.374C364.81 240.451 365.137 240.413 365.461 240.26C365.789 240.093 366.024 239.829 366.169 239.467Z" fill="black"/>
<path d="M381.991 237.415L386.315 238.416L380.151 252.934L375.827 251.932L378.092 246.58L374.416 245.729L372.152 251.081L367.828 250.08L373.992 235.562L378.316 236.563L376.123 241.705L379.798 242.556L381.991 237.415Z" fill="black"/>
<path d="M391.197 255.493L391.474 253.507L387.107 252.495L385.792 254.241L381.014 253.134L392 239.733L397.059 240.905L395.715 256.539L391.197 255.493ZM389.443 249.392L391.951 249.972L392.596 245.224L389.443 249.392Z" fill="black"/>
<path d="M414.655 244.958L408.469 259.47L404.145 258.469L406.09 253.908L405.722 253.823L401.075 257.758L396.146 256.616L401.655 252.106C400.947 251.426 400.529 250.608 400.401 249.652C400.291 248.685 400.456 247.743 400.896 246.828C401.498 245.54 402.482 244.568 403.849 243.913C405.216 243.257 406.8 243.138 408.602 243.556L414.655 244.958ZM404.977 248.388C404.804 248.804 404.802 249.175 404.969 249.502C405.151 249.833 405.459 250.041 405.895 250.127L407.538 250.508L408.696 247.769L407.053 247.388C406.606 247.285 406.194 247.326 405.817 247.512C405.443 247.684 405.163 247.976 404.977 248.388Z" fill="black"/>
<path d="M433.007 249.231L426.842 263.749L422.518 262.747L426.976 252.254L423.733 251.503L419.275 261.996L414.951 260.995L421.116 246.477L433.007 249.231Z" fill="black"/>
<path d="M446.662 252.371L440.476 266.884L436.152 265.883L438.097 261.322L437.729 261.237L433.082 265.172L428.153 264.03L433.662 259.52C432.954 258.84 432.536 258.021 432.408 257.066C432.298 256.098 432.463 255.157 432.903 254.242C433.505 252.953 434.489 251.982 435.856 251.326C437.223 250.671 438.807 250.552 440.609 250.969L446.662 252.371ZM436.984 255.802C436.811 256.217 436.809 256.589 436.976 256.916C437.158 257.247 437.466 257.455 437.902 257.541L439.545 257.921L440.703 255.183L439.06 254.802C438.613 254.699 438.201 254.74 437.824 254.926C437.45 255.097 437.17 255.389 436.984 255.802Z" fill="black"/>
<path d="M459.388 255.342L457.682 259.366L454.115 258.54L449.657 269.033L445.333 268.032L449.791 257.538L446.224 256.712L447.93 252.688L459.388 255.342Z" fill="black"/>
<path d="M468.681 257.494L473.005 258.496L466.84 273.014L462.516 272.012L464.781 266.66L461.106 265.808L458.841 271.161L454.517 270.159L460.681 255.641L465.005 256.643L462.812 261.784L466.487 262.636L468.681 257.494Z" fill="black"/>
<path d="M469 273.514L475.165 258.996L479.489 259.998L476.769 266.429L484.245 261.099L487.704 261.901L481.54 276.418L477.216 275.417L479.936 268.985L472.459 274.315L469 273.514Z" fill="black"/>
<path d="M497.724 275.748L499.562 276.174L496.666 282.974L492.342 281.973L493.532 279.196L483.695 276.918L489.859 262.4L494.399 263.451L489.941 273.945L493.184 274.696L497.642 264.203L502.182 265.254L497.724 275.748Z" fill="black"/>
<path d="M508.457 282.653L508.735 280.667L504.368 279.656L503.052 281.401L498.274 280.295L509.26 266.894L514.319 268.065L512.976 283.7L508.457 282.653ZM506.704 276.552L509.212 277.133L509.856 272.385L506.704 276.552Z" fill="black"/>
<path d="M561.409 278.973L565.733 279.974L559.568 294.492L555.245 293.49L557.096 289.136C556.435 289.104 555.759 289.008 555.067 288.848C553.092 288.391 551.795 287.566 551.175 286.375C550.555 285.183 550.597 283.758 551.3 282.098L553.41 277.12L557.734 278.121L555.666 283.018C555.462 283.503 555.478 283.894 555.713 284.191C555.962 284.492 556.417 284.726 557.076 284.894C557.595 285.014 558.171 285.087 558.803 285.112L561.409 278.973Z" fill="black"/>
<path d="M576.132 286.529L570.619 285.252L569.957 286.83L574.93 287.982L573.337 291.713L568.364 290.561L567.671 292.177L573.292 293.479L571.679 297.297L561.734 294.994L567.898 280.476L577.735 282.754L576.132 286.529Z" fill="black"/>
<path d="M585.519 284.557C586.989 284.898 588.065 285.694 588.747 286.945C589.447 288.185 589.478 289.628 588.839 291.272C588.241 292.804 587.262 293.913 585.904 294.601C584.562 295.277 582.998 295.409 581.211 294.995L579.481 294.594L577.733 298.699L573.409 297.698L579.574 283.18L585.519 284.557ZM584.608 290.064C584.774 289.677 584.765 289.356 584.581 289.101C584.4 288.831 584.144 288.658 583.813 288.581L582.191 288.206L581.188 290.57L582.917 290.971C583.249 291.047 583.577 291.01 583.901 290.857C584.228 290.69 584.464 290.425 584.608 290.064Z" fill="black"/>
<path d="M600.431 288.011L604.755 289.013L598.59 303.53L594.266 302.529L596.531 297.176L592.856 296.325L590.591 301.678L586.267 300.676L592.432 286.158L596.755 287.16L594.562 292.301L598.238 293.152L600.431 288.011Z" fill="black"/>
<path d="M609.636 306.089L609.914 304.103L605.547 303.092L604.231 304.837L599.453 303.73L610.439 290.329L615.498 291.501L614.154 307.136L609.636 306.089ZM607.883 299.988L610.391 300.569L611.035 295.821L607.883 299.988Z" fill="black"/>
<path d="M633.094 295.554L626.908 310.067L622.584 309.065L624.529 304.504L624.162 304.419L619.514 308.354L614.585 307.213L620.094 302.703C619.386 302.022 618.968 301.204 618.841 300.248C618.73 299.281 618.895 298.34 619.335 297.424C619.937 296.136 620.922 295.164 622.288 294.509C623.655 293.854 625.239 293.735 627.041 294.152L633.094 295.554ZM623.416 298.984C623.244 299.4 623.241 299.772 623.408 300.099C623.59 300.43 623.899 300.638 624.334 300.723L625.977 301.104L627.136 298.365L625.493 297.985C625.046 297.881 624.634 297.923 624.257 298.109C623.883 298.28 623.602 298.572 623.416 298.984Z" fill="black"/>
<path d="M651.446 299.828L645.281 314.345L640.958 313.344L645.416 302.85L642.173 302.099L637.715 312.593L633.391 311.591L639.555 297.074L651.446 299.828Z" fill="black"/>
<path d="M665.101 302.968L658.915 317.481L654.591 316.479L656.536 311.918L656.169 311.833L651.521 315.768L646.592 314.626L652.101 310.116C651.393 309.436 650.975 308.618 650.848 307.662C650.738 306.695 650.902 305.754 651.342 304.838C651.944 303.55 652.929 302.578 654.295 301.923C655.662 301.267 657.246 301.148 659.048 301.566L665.101 302.968ZM655.423 306.398C655.251 306.814 655.248 307.185 655.415 307.513C655.597 307.843 655.906 308.051 656.341 308.137L657.984 308.518L659.143 305.779L657.5 305.399C657.053 305.295 656.641 305.336 656.264 305.522C655.89 305.694 655.609 305.986 655.423 306.398Z" fill="black"/>
<path d="M677.828 305.938L676.121 309.962L672.554 309.136L668.096 319.63L663.772 318.628L668.23 308.135L664.663 307.308L666.369 303.284L677.828 305.938Z" fill="black"/>
<path d="M687.12 308.091L691.444 309.092L685.279 323.61L680.955 322.608L683.22 317.256L679.545 316.405L677.28 321.757L672.956 320.756L679.121 306.238L683.445 307.239L681.251 312.381L684.927 313.232L687.12 308.091Z" fill="black"/>
<path d="M687.44 324.11L693.604 309.593L697.928 310.594L695.208 317.026L702.684 311.696L706.143 312.497L699.979 327.015L695.655 326.013L698.375 319.582L690.899 324.912L687.44 324.11Z" fill="black"/>
<path d="M716.164 326.344L718.001 326.77L715.105 333.571L710.781 332.569L711.971 329.792L702.134 327.514L708.299 312.996L712.839 314.048L708.381 324.542L711.624 325.293L716.082 314.799L720.622 315.851L716.164 326.344Z" fill="black"/>
<path d="M726.896 333.25L727.174 331.264L722.807 330.252L721.492 331.998L716.714 330.891L727.699 317.49L732.758 318.662L731.415 334.296L726.896 333.25ZM725.143 327.149L727.651 327.73L728.295 322.981L725.143 327.149Z" fill="black"/>
<path d="M770.933 327.504L775.256 328.506L769.092 343.023L764.768 342.022L766.619 337.667C765.959 337.635 765.282 337.539 764.59 337.379C762.616 336.922 761.319 336.097 760.699 334.906C760.079 333.714 760.12 332.289 760.823 330.63L762.933 325.651L767.257 326.653L765.189 331.55C764.986 332.034 765.001 332.425 765.236 332.722C765.486 333.023 765.94 333.257 766.6 333.425C767.118 333.546 767.694 333.618 768.326 333.643L770.933 327.504Z" fill="black"/>
<path d="M785.655 335.06L780.142 333.783L779.481 335.361L784.453 336.513L782.86 340.244L777.888 339.092L777.194 340.709L782.815 342.011L781.202 345.828L771.257 343.525L777.422 329.007L787.259 331.286L785.655 335.06Z" fill="black"/>
<path d="M795.043 333.089C796.513 333.429 797.589 334.225 798.271 335.476C798.971 336.717 799.001 338.159 798.362 339.803C797.764 341.335 796.786 342.445 795.427 343.132C794.086 343.809 792.521 343.94 790.734 343.526L789.005 343.125L787.256 347.231L782.932 346.229L789.097 331.711L795.043 333.089ZM794.132 338.595C794.297 338.208 794.288 337.887 794.104 337.632C793.924 337.362 793.667 337.189 793.336 337.112L791.714 336.737L790.711 339.101L792.441 339.502C792.772 339.579 793.1 339.541 793.424 339.388C793.751 339.221 793.987 338.957 794.132 338.595Z" fill="black"/>
<path d="M809.954 336.542L814.278 337.544L808.113 352.062L803.789 351.06L806.054 345.708L802.379 344.856L800.114 350.209L795.79 349.207L801.955 334.69L806.279 335.691L804.086 340.832L807.761 341.684L809.954 336.542Z" fill="black"/>
<path d="M819.159 354.62L819.437 352.634L815.07 351.623L813.754 353.368L808.976 352.262L819.962 338.861L825.021 340.032L823.678 355.667L819.159 354.62ZM817.406 348.519L819.914 349.1L820.558 344.352L817.406 348.519Z" fill="black"/>
<path d="M842.618 344.085L836.431 358.598L832.108 357.597L834.052 353.036L833.685 352.951L829.038 356.886L824.108 355.744L829.618 351.234C828.91 350.554 828.492 349.735 828.364 348.779C828.254 347.812 828.419 346.871 828.859 345.956C829.461 344.667 830.445 343.696 831.812 343.04C833.178 342.385 834.763 342.266 836.564 342.683L842.618 344.085ZM832.939 347.516C832.767 347.931 832.764 348.303 832.932 348.63C833.113 348.961 833.422 349.169 833.858 349.255L835.501 349.635L836.659 346.897L835.016 346.516C834.569 346.413 834.157 346.454 833.78 346.64C833.406 346.811 833.126 347.103 832.939 347.516Z" fill="black"/>
<path d="M860.969 348.359L854.805 362.877L850.481 361.875L854.939 351.381L851.696 350.63L847.238 361.124L842.914 360.122L849.079 345.605L860.969 348.359Z" fill="black"/>
<path d="M874.625 351.499L868.439 366.012L864.115 365.01L866.06 360.449L865.692 360.364L861.045 364.299L856.115 363.157L861.625 358.648C860.917 357.967 860.499 357.149 860.371 356.193C860.261 355.226 860.426 354.285 860.866 353.369C861.468 352.081 862.452 351.109 863.819 350.454C865.185 349.799 866.77 349.68 868.571 350.097L874.625 351.499ZM864.946 354.929C864.774 355.345 864.771 355.717 864.939 356.044C865.12 356.374 865.429 356.583 865.865 356.668L867.508 357.049L868.666 354.31L867.023 353.93C866.576 353.826 866.164 353.867 865.787 354.053C865.413 354.225 865.133 354.517 864.946 354.929Z" fill="black"/>
<path d="M887.351 354.47L885.645 358.494L882.077 357.667L877.619 368.161L873.295 367.16L877.754 356.666L874.186 355.84L875.893 351.816L887.351 354.47Z" fill="black"/>
<path d="M896.643 356.622L900.967 357.624L894.803 372.141L890.479 371.14L892.744 365.787L889.068 364.936L886.803 370.288L882.48 369.287L888.644 354.769L892.968 355.771L890.775 360.912L894.45 361.763L896.643 356.622Z" fill="black"/>
<path d="M896.963 372.642L903.127 358.124L907.451 359.125L904.732 365.557L912.208 360.227L915.667 361.028L909.502 375.546L905.178 374.545L907.898 368.113L900.422 373.443L896.963 372.642Z" fill="black"/>
<path d="M925.687 374.876L927.525 375.301L924.628 382.102L920.304 381.101L921.494 378.324L911.657 376.045L917.822 361.528L922.362 362.579L917.904 373.073L921.147 373.824L925.605 363.33L930.145 364.382L925.687 374.876Z" fill="black"/>
<path d="M936.42 381.781L936.698 379.795L932.33 378.784L931.015 380.529L926.237 379.422L937.223 366.021L942.282 367.193L940.938 382.828L936.42 381.781ZM934.667 375.68L937.174 376.261L937.819 371.513L934.667 375.68Z" fill="black"/>
<path d="M989.372 378.1L993.696 379.102L987.531 393.62L983.207 392.618L985.059 388.263C984.398 388.232 983.722 388.136 983.03 387.976C981.055 387.518 979.758 386.694 979.138 385.502C978.518 384.311 978.559 382.885 979.263 381.226L981.373 376.248L985.696 377.249L983.628 382.146C983.425 382.63 983.441 383.021 983.676 383.319C983.925 383.619 984.379 383.854 985.039 384.022C985.558 384.142 986.133 384.214 986.765 384.239L989.372 378.1Z" fill="black"/>
<path d="M1004.09 385.656L998.582 384.38L997.92 385.958L1002.89 387.109L1001.3 390.841L996.327 389.689L995.634 391.305L1001.25 392.607L999.641 396.425L989.697 394.121L995.861 379.603L1005.7 381.882L1004.09 385.656Z" fill="black"/>
<path d="M1013.48 383.685C1014.95 384.025 1016.03 384.821 1016.71 386.073C1017.41 387.313 1017.44 388.755 1016.8 390.399C1016.2 391.931 1015.23 393.041 1013.87 393.729C1012.52 394.405 1010.96 394.536 1009.17 394.122L1007.44 393.722L1005.7 397.827L1001.37 396.826L1007.54 382.308L1013.48 383.685ZM1012.57 389.192C1012.74 388.805 1012.73 388.484 1012.54 388.228C1012.36 387.959 1012.11 387.786 1011.78 387.709L1010.15 387.333L1009.15 389.698L1010.88 390.098C1011.21 390.175 1011.54 390.137 1011.86 389.984C1012.19 389.817 1012.43 389.553 1012.57 389.192Z" fill="black"/>
<path d="M1028.39 387.139L1032.72 388.14L1026.55 402.658L1022.23 401.657L1024.49 396.304L1020.82 395.453L1018.55 400.805L1014.23 399.804L1020.39 385.286L1024.72 386.288L1022.52 391.429L1026.2 392.28L1028.39 387.139Z" fill="black"/>
<path d="M1037.6 405.217L1037.88 403.231L1033.51 402.219L1032.19 403.965L1027.42 402.858L1038.4 389.457L1043.46 390.629L1042.12 406.263L1037.6 405.217ZM1035.85 399.116L1038.35 399.697L1039 394.948L1035.85 399.116Z" fill="black"/>
<path d="M1061.06 394.682L1054.87 409.195L1050.55 408.193L1052.49 403.632L1052.12 403.547L1047.48 407.482L1042.55 406.34L1048.06 401.83C1047.35 401.15 1046.93 400.332 1046.8 399.376C1046.69 398.409 1046.86 397.468 1047.3 396.552C1047.9 395.264 1048.88 394.292 1050.25 393.637C1051.62 392.981 1053.2 392.862 1055 393.28L1061.06 394.682ZM1051.38 398.112C1051.21 398.528 1051.2 398.899 1051.37 399.227C1051.55 399.557 1051.86 399.765 1052.3 399.851L1053.94 400.232L1055.1 397.493L1053.46 397.112C1053.01 397.009 1052.6 397.05 1052.22 397.236C1051.85 397.408 1051.57 397.7 1051.38 398.112Z" fill="black"/>
<path d="M1079.41 398.955L1073.24 413.473L1068.92 412.472L1073.38 401.978L1070.14 401.227L1065.68 411.72L1061.35 410.719L1067.52 396.201L1079.41 398.955Z" fill="black"/>
<path d="M1093.06 402.096L1086.88 416.608L1082.55 415.607L1084.5 411.046L1084.13 410.961L1079.48 414.896L1074.55 413.754L1080.06 409.244C1079.36 408.564 1078.94 407.746 1078.81 406.79C1078.7 405.823 1078.86 404.881 1079.3 403.966C1079.91 402.678 1080.89 401.706 1082.26 401.05C1083.62 400.395 1085.21 400.276 1087.01 400.693L1093.06 402.096ZM1083.39 405.526C1083.21 405.942 1083.21 406.313 1083.38 406.64C1083.56 406.971 1083.87 407.179 1084.3 407.265L1085.95 407.645L1087.11 404.907L1085.46 404.526C1085.02 404.423 1084.6 404.464 1084.23 404.65C1083.85 404.821 1083.57 405.113 1083.39 405.526Z" fill="black"/>
<path d="M1105.79 405.066L1104.08 409.09L1100.52 408.264L1096.06 418.758L1091.73 417.756L1096.19 407.262L1092.63 406.436L1094.33 402.412L1105.79 405.066Z" fill="black"/>
<path d="M1115.08 407.218L1119.41 408.22L1113.24 422.738L1108.92 421.736L1111.18 416.384L1107.51 415.532L1105.24 420.885L1100.92 419.883L1107.08 405.366L1111.41 406.367L1109.21 411.508L1112.89 412.36L1115.08 407.218Z" fill="black"/>
<path d="M1115.4 423.238L1121.57 408.72L1125.89 409.722L1123.17 416.153L1130.65 410.824L1134.11 411.625L1127.94 426.142L1123.62 425.141L1126.34 418.709L1118.86 424.039L1115.4 423.238Z" fill="black"/>
<path d="M1144.13 425.472L1145.96 425.898L1143.07 432.699L1138.74 431.697L1139.93 428.92L1130.1 426.642L1136.26 412.124L1140.8 413.176L1136.34 423.669L1139.59 424.421L1144.04 413.927L1148.58 414.978L1144.13 425.472Z" fill="black"/>
<path d="M1154.86 432.377L1155.14 430.392L1150.77 429.38L1149.45 431.125L1144.68 430.019L1155.66 416.618L1160.72 417.79L1159.38 433.424L1154.86 432.377ZM1153.11 426.276L1155.61 426.857L1156.26 422.109L1153.11 426.276Z" fill="black"/>
<path d="M1207.81 428.697L1212.13 429.698L1205.97 444.216L1201.65 443.215L1203.5 438.86C1202.84 438.828 1202.16 438.732 1201.47 438.572C1199.49 438.115 1198.2 437.29 1197.58 436.099C1196.96 434.907 1197 433.482 1197.7 431.822L1199.81 426.844L1204.14 427.845L1202.07 432.742C1201.86 433.227 1201.88 433.618 1202.11 433.915C1202.36 434.216 1202.82 434.45 1203.48 434.618C1204 434.738 1204.57 434.811 1205.2 434.836L1207.81 428.697Z" fill="black"/>
<path d="M1222.53 436.253L1217.02 434.976L1216.36 436.554L1221.33 437.706L1219.74 441.437L1214.77 440.285L1214.07 441.901L1219.69 443.203L1218.08 447.021L1208.14 444.718L1214.3 430.2L1224.14 432.478L1222.53 436.253Z" fill="black"/>
<path d="M1231.92 434.281C1233.39 434.622 1234.47 435.418 1235.15 436.669C1235.85 437.91 1235.88 439.352 1235.24 440.996C1234.64 442.528 1233.66 443.637 1232.31 444.325C1230.96 445.001 1229.4 445.133 1227.61 444.719L1225.88 444.318L1224.14 448.424L1219.81 447.422L1225.98 432.904L1231.92 434.281ZM1231.01 439.788C1231.18 439.401 1231.17 439.08 1230.98 438.825C1230.8 438.555 1230.55 438.382 1230.21 438.305L1228.59 437.93L1227.59 440.294L1229.32 440.695C1229.65 440.772 1229.98 440.734 1230.3 440.581C1230.63 440.414 1230.87 440.149 1231.01 439.788Z" fill="black"/>
<path d="M1246.83 437.735L1251.16 438.737L1244.99 453.255L1240.67 452.253L1242.93 446.901L1239.26 446.049L1236.99 451.402L1232.67 450.4L1238.83 435.882L1243.16 436.884L1240.96 442.025L1244.64 442.877L1246.83 437.735Z" fill="black"/>
<path d="M1256.04 455.813L1256.32 453.827L1251.95 452.816L1250.63 454.561L1245.86 453.454L1256.84 440.053L1261.9 441.225L1260.56 456.86L1256.04 455.813ZM1254.28 449.712L1256.79 450.293L1257.44 445.545L1254.28 449.712Z" fill="black"/>
<path d="M1279.5 445.278L1273.31 459.791L1268.99 458.789L1270.93 454.228L1270.56 454.143L1265.92 458.078L1260.99 456.937L1266.5 452.427C1265.79 451.746 1265.37 450.928 1265.24 449.972C1265.13 449.005 1265.3 448.064 1265.74 447.148C1266.34 445.86 1267.32 444.889 1268.69 444.233C1270.06 443.578 1271.64 443.459 1273.44 443.876L1279.5 445.278ZM1269.82 448.709C1269.65 449.124 1269.64 449.496 1269.81 449.823C1269.99 450.154 1270.3 450.362 1270.74 450.448L1272.38 450.828L1273.54 448.089L1271.89 447.709C1271.45 447.605 1271.04 447.647 1270.66 447.833C1270.28 448.004 1270 448.296 1269.82 448.709Z" fill="black"/>
<path d="M1297.85 449.552L1291.68 464.07L1287.36 463.068L1291.82 452.574L1288.57 451.823L1284.12 462.317L1279.79 461.315L1285.96 446.798L1297.85 449.552Z" fill="black"/>
<path d="M1311.5 452.692L1305.32 467.205L1300.99 466.203L1302.94 461.642L1302.57 461.557L1297.92 465.492L1292.99 464.35L1298.5 459.84C1297.8 459.16 1297.38 458.342 1297.25 457.386C1297.14 456.419 1297.3 455.478 1297.74 454.562C1298.35 453.274 1299.33 452.302 1300.7 451.647C1302.06 450.992 1303.65 450.872 1305.45 451.29L1311.5 452.692ZM1301.82 456.122C1301.65 456.538 1301.65 456.909 1301.82 457.237C1302 457.567 1302.31 457.775 1302.74 457.861L1304.39 458.242L1305.54 455.503L1303.9 455.123C1303.45 455.019 1303.04 455.06 1302.67 455.246C1302.29 455.418 1302.01 455.71 1301.82 456.122Z" fill="black"/>
<path d="M1324.23 455.662L1322.52 459.686L1318.96 458.86L1314.5 469.354L1310.17 468.352L1314.63 457.859L1311.06 457.032L1312.77 453.008L1324.23 455.662Z" fill="black"/>
<path d="M1333.52 457.815L1337.85 458.816L1331.68 473.334L1327.36 472.333L1329.62 466.98L1325.95 466.129L1323.68 471.481L1319.36 470.48L1325.52 455.962L1329.85 456.963L1327.65 462.105L1331.33 462.956L1333.52 457.815Z" fill="black"/>
<path d="M1333.84 473.834L1340.01 459.317L1344.33 460.318L1341.61 466.75L1349.09 461.42L1352.55 462.221L1346.38 476.739L1342.06 475.737L1344.78 469.306L1337.3 474.636L1333.84 473.834Z" fill="black"/>
<path d="M1362.57 476.069L1364.4 476.494L1361.51 483.295L1357.18 482.293L1358.37 479.517L1348.54 477.238L1354.7 462.72L1359.24 463.772L1354.78 474.266L1358.03 475.017L1362.48 464.523L1367.02 465.575L1362.57 476.069Z" fill="black"/>
<path d="M1373.3 482.974L1373.58 480.988L1369.21 479.976L1367.89 481.722L1363.12 480.615L1374.1 467.214L1379.16 468.386L1377.82 484.02L1373.3 482.974ZM1371.55 476.873L1374.05 477.454L1374.7 472.705L1371.55 476.873Z" fill="black"/>
<path d="M1426.25 479.293L1430.57 480.295L1424.41 494.813L1420.09 493.811L1421.94 489.456C1421.28 489.425 1420.6 489.329 1419.91 489.168C1417.93 488.711 1416.64 487.887 1416.02 486.695C1415.4 485.504 1415.44 484.078 1416.14 482.419L1418.25 477.44L1422.58 478.442L1420.51 483.339C1420.3 483.823 1420.32 484.214 1420.55 484.512C1420.8 484.812 1421.26 485.047 1421.92 485.215C1422.44 485.335 1423.01 485.407 1423.64 485.432L1426.25 479.293Z" fill="black"/>
<path d="M1440.97 486.849L1435.46 485.572L1434.8 487.15L1439.77 488.302L1438.18 492.033L1433.21 490.882L1432.51 492.498L1438.13 493.8L1436.52 497.618L1426.58 495.314L1432.74 480.796L1442.58 483.075L1440.97 486.849Z" fill="black"/>
<path d="M1450.36 484.878C1451.83 485.218 1452.91 486.014 1453.59 487.266C1454.29 488.506 1454.32 489.948 1453.68 491.592C1453.08 493.124 1452.1 494.234 1450.74 494.921C1449.4 495.598 1447.84 495.729 1446.05 495.315L1444.32 494.915L1442.57 499.02L1438.25 498.018L1444.42 483.501L1450.36 484.878ZM1449.45 490.384C1449.61 489.998 1449.61 489.677 1449.42 489.421C1449.24 489.152 1448.99 488.978 1448.65 488.902L1447.03 488.526L1446.03 490.891L1447.76 491.291C1448.09 491.368 1448.42 491.33 1448.74 491.177C1449.07 491.01 1449.3 490.746 1449.45 490.384Z" fill="black"/>
<path d="M1465.27 488.332L1469.6 489.333L1463.43 503.851L1459.11 502.849L1461.37 497.497L1457.7 496.646L1455.43 501.998L1451.11 500.997L1457.27 486.479L1461.6 487.48L1459.4 492.622L1463.08 493.473L1465.27 488.332Z" fill="black"/>
<path d="M1474.48 506.409L1474.75 504.424L1470.39 503.412L1469.07 505.158L1464.29 504.051L1475.28 490.65L1480.34 491.822L1479 507.456L1474.48 506.409ZM1472.72 500.309L1475.23 500.889L1475.88 496.141L1472.72 500.309Z" fill="black"/>
<path d="M1497.94 495.875L1491.75 510.387L1487.43 509.386L1489.37 504.825L1489 504.74L1484.36 508.675L1479.43 507.533L1484.94 503.023C1484.23 502.343 1483.81 501.525 1483.68 500.569C1483.57 499.602 1483.74 498.66 1484.18 497.745C1484.78 496.457 1485.76 495.485 1487.13 494.83C1488.5 494.174 1490.08 494.055 1491.88 494.473L1497.94 495.875ZM1488.26 499.305C1488.08 499.721 1488.08 500.092 1488.25 500.419C1488.43 500.75 1488.74 500.958 1489.18 501.044L1490.82 501.425L1491.98 498.686L1490.33 498.305C1489.89 498.202 1489.47 498.243 1489.1 498.429C1488.72 498.601 1488.44 498.893 1488.26 499.305Z" fill="black"/>
<path d="M1516.29 500.148L1510.12 514.666L1505.8 513.664L1510.26 503.171L1507.01 502.419L1502.56 512.913L1498.23 511.912L1504.4 497.394L1516.29 500.148Z" fill="black"/>
<path d="M1529.94 503.288L1523.76 517.801L1519.43 516.8L1521.38 512.239L1521.01 512.153L1516.36 516.088L1511.43 514.947L1516.94 510.437C1516.23 509.757 1515.82 508.938 1515.69 507.982C1515.58 507.015 1515.74 506.074 1516.18 505.158C1516.79 503.87 1517.77 502.899 1519.14 502.243C1520.5 501.588 1522.09 501.469 1523.89 501.886L1529.94 503.288ZM1520.26 506.719C1520.09 507.134 1520.09 507.506 1520.26 507.833C1520.44 508.164 1520.75 508.372 1521.18 508.458L1522.83 508.838L1523.98 506.1L1522.34 505.719C1521.89 505.616 1521.48 505.657 1521.1 505.843C1520.73 506.014 1520.45 506.306 1520.26 506.719Z" fill="black"/>
<path d="M1542.67 506.259L1540.96 510.283L1537.4 509.457L1532.94 519.95L1528.61 518.949L1533.07 508.455L1529.5 507.629L1531.21 503.605L1542.67 506.259Z" fill="black"/>
<path d="M1551.96 508.411L1556.28 509.413L1550.12 523.931L1545.8 522.929L1548.06 517.576L1544.39 516.725L1542.12 522.078L1537.8 521.076L1543.96 506.558L1548.29 507.56L1546.09 512.701L1549.77 513.553L1551.96 508.411Z" fill="black"/>
<path d="M1552.28 524.431L1558.45 509.913L1562.77 510.915L1560.05 517.346L1567.53 512.016L1570.98 512.818L1564.82 527.335L1560.5 526.334L1563.22 519.902L1555.74 525.232L1552.28 524.431Z" fill="black"/>
<path d="M1581 526.665L1582.84 527.091L1579.95 533.891L1575.62 532.89L1576.81 530.113L1566.98 527.835L1573.14 513.317L1577.68 514.368L1573.22 524.862L1576.46 525.613L1580.92 515.12L1585.46 516.171L1581 526.665Z" fill="black"/>
<path d="M1591.74 533.57L1592.02 531.584L1587.65 530.573L1586.33 532.318L1581.55 531.212L1592.54 517.811L1597.6 518.982L1596.26 534.617L1591.74 533.57ZM1589.98 527.469L1592.49 528.05L1593.14 523.302L1589.98 527.469Z" fill="black"/>
<path d="M1644.69 529.89L1649.01 530.891L1642.85 545.409L1638.52 544.407L1640.38 540.053C1639.72 540.021 1639.04 539.925 1638.35 539.765C1636.37 539.307 1635.08 538.483 1634.46 537.292C1633.84 536.1 1633.88 534.675 1634.58 533.015L1636.69 528.037L1641.01 529.038L1638.95 533.935C1638.74 534.42 1638.76 534.811 1638.99 535.108C1639.24 535.409 1639.7 535.643 1640.36 535.811C1640.88 535.931 1641.45 536.004 1642.08 536.029L1644.69 529.89Z" fill="black"/>
<path d="M1659.41 537.446L1653.9 536.169L1653.24 537.747L1658.21 538.898L1656.62 542.63L1651.64 541.478L1650.95 543.094L1656.57 544.396L1654.96 548.214L1645.01 545.91L1651.18 531.393L1661.02 533.671L1659.41 537.446Z" fill="black"/>
<path d="M1668.8 535.474C1670.27 535.815 1671.35 536.611 1672.03 537.862C1672.73 539.102 1672.76 540.545 1672.12 542.188C1671.52 543.721 1670.54 544.83 1669.18 545.518C1667.84 546.194 1666.28 546.325 1664.49 545.912L1662.76 545.511L1661.01 549.616L1656.69 548.615L1662.85 534.097L1668.8 535.474ZM1667.89 540.981C1668.05 540.594 1668.04 540.273 1667.86 540.018C1667.68 539.748 1667.42 539.575 1667.09 539.498L1665.47 539.123L1664.47 541.487L1666.2 541.888C1666.53 541.964 1666.86 541.926 1667.18 541.774C1667.51 541.606 1667.74 541.342 1667.89 540.981Z" fill="black"/>
<path d="M1683.71 538.928L1688.03 539.93L1681.87 554.447L1677.55 553.446L1679.81 548.093L1676.14 547.242L1673.87 552.594L1669.55 551.593L1675.71 537.075L1680.04 538.077L1677.84 543.218L1681.52 544.069L1683.71 538.928Z" fill="black"/>
<path d="M1692.92 557.006L1693.19 555.02L1688.83 554.009L1687.51 555.754L1682.73 554.647L1693.72 541.246L1698.78 542.418L1697.43 558.052L1692.92 557.006ZM1691.16 550.905L1693.67 551.486L1694.32 546.737L1691.16 550.905Z" fill="black"/>
<path d="M1716.37 546.471L1710.19 560.984L1705.86 559.982L1707.81 555.421L1707.44 555.336L1702.79 559.271L1697.87 558.129L1703.37 553.62C1702.67 552.939 1702.25 552.121 1702.12 551.165C1702.01 550.198 1702.18 549.257 1702.62 548.341C1703.22 547.053 1704.2 546.081 1705.57 545.426C1706.94 544.771 1708.52 544.652 1710.32 545.069L1716.37 546.471ZM1706.7 549.901C1706.52 550.317 1706.52 550.688 1706.69 551.016C1706.87 551.346 1707.18 551.555 1707.61 551.64L1709.26 552.021L1710.42 549.282L1708.77 548.902C1708.33 548.798 1707.91 548.839 1707.54 549.025C1707.16 549.197 1706.88 549.489 1706.7 549.901Z" fill="black"/>
<path d="M1734.73 550.745L1728.56 565.262L1724.24 564.261L1728.7 553.767L1725.45 553.016L1720.99 563.51L1716.67 562.508L1722.84 547.99L1734.73 550.745Z" fill="black"/>
<path d="M1748.38 553.885L1742.2 568.397L1737.87 567.396L1739.82 562.835L1739.45 562.75L1734.8 566.685L1729.87 565.543L1735.38 561.033C1734.67 560.353 1734.26 559.535 1734.13 558.579C1734.02 557.612 1734.18 556.67 1734.62 555.755C1735.22 554.467 1736.21 553.495 1737.58 552.84C1738.94 552.184 1740.53 552.065 1742.33 552.483L1748.38 553.885ZM1738.7 557.315C1738.53 557.731 1738.53 558.102 1738.7 558.429C1738.88 558.76 1739.19 558.968 1739.62 559.054L1741.26 559.435L1742.42 556.696L1740.78 556.315C1740.33 556.212 1739.92 556.253 1739.54 556.439C1739.17 556.611 1738.89 556.903 1738.7 557.315Z" fill="black"/>
<path d="M1761.11 556.855L1759.4 560.879L1755.83 560.053L1751.38 570.547L1747.05 569.545L1751.51 559.051L1747.94 558.225L1749.65 554.201L1761.11 556.855Z" fill="black"/>
<path d="M1770.4 559.008L1774.72 560.009L1768.56 574.527L1764.24 573.525L1766.5 568.173L1762.83 567.322L1760.56 572.674L1756.24 571.673L1762.4 557.155L1766.72 558.156L1764.53 563.298L1768.21 564.149L1770.4 559.008Z" fill="black"/>
<path d="M1770.72 575.027L1776.88 560.51L1781.21 561.511L1778.49 567.943L1785.96 562.613L1789.42 563.414L1783.26 577.932L1778.94 576.93L1781.65 570.499L1774.18 575.828L1770.72 575.027Z" fill="black"/>
<path d="M1799.44 577.261L1801.28 577.687L1798.39 584.488L1794.06 583.486L1795.25 580.709L1785.41 578.431L1791.58 563.913L1796.12 564.965L1791.66 575.459L1794.9 576.21L1799.36 565.716L1803.9 566.768L1799.44 577.261Z" fill="black"/>
<path d="M1810.18 584.167L1810.45 582.181L1806.09 581.169L1804.77 582.915L1799.99 581.808L1810.98 568.407L1816.04 569.579L1814.7 585.213L1810.18 584.167ZM1808.42 578.066L1810.93 578.646L1811.58 573.898L1808.42 578.066Z" fill="black"/>
<path d="M1863.13 580.486L1867.45 581.488L1861.29 596.005L1856.96 595.004L1858.82 590.649C1858.15 590.617 1857.48 590.521 1856.79 590.361C1854.81 589.904 1853.51 589.079 1852.89 587.888C1852.27 586.696 1852.32 585.271 1853.02 583.612L1855.13 578.633L1859.45 579.635L1857.39 584.532C1857.18 585.016 1857.2 585.407 1857.43 585.704C1857.68 586.005 1858.14 586.239 1858.8 586.407C1859.31 586.528 1859.89 586.6 1860.52 586.625L1863.13 580.486Z" fill="black"/>
<path d="M1877.85 588.042L1872.34 586.765L1871.68 588.343L1876.65 589.495L1875.06 593.226L1870.08 592.074L1869.39 593.691L1875.01 594.993L1873.4 598.81L1863.45 596.507L1869.62 581.989L1879.45 584.268L1877.85 588.042Z" fill="black"/>
<path d="M1887.24 586.071C1888.71 586.411 1889.78 587.207 1890.47 588.458C1891.17 589.699 1891.2 591.141 1890.56 592.785C1889.96 594.317 1888.98 595.427 1887.62 596.114C1886.28 596.791 1884.72 596.922 1882.93 596.508L1881.2 596.107L1879.45 600.213L1875.13 599.211L1881.29 584.693L1887.24 586.071ZM1886.33 591.577C1886.49 591.19 1886.48 590.869 1886.3 590.614C1886.12 590.345 1885.86 590.171 1885.53 590.094L1883.91 589.719L1882.91 592.083L1884.64 592.484C1884.97 592.561 1885.3 592.523 1885.62 592.37C1885.95 592.203 1886.18 591.939 1886.33 591.577Z" fill="black"/>
<path d="M1902.15 589.525L1906.47 590.526L1900.31 605.044L1895.99 604.042L1898.25 598.69L1894.58 597.838L1892.31 603.191L1887.99 602.189L1894.15 587.672L1898.48 588.673L1896.28 593.814L1899.96 594.666L1902.15 589.525Z" fill="black"/>
<path d="M1911.36 607.602L1911.63 605.616L1907.27 604.605L1905.95 606.35L1901.17 605.244L1912.16 591.843L1917.22 593.014L1915.87 608.649L1911.36 607.602ZM1909.6 601.501L1912.11 602.082L1912.75 597.334L1909.6 601.501Z" fill="black"/>
<path d="M1934.81 597.068L1928.63 611.58L1924.3 610.579L1926.25 606.018L1925.88 605.933L1921.23 609.868L1916.3 608.726L1921.81 604.216C1921.11 603.536 1920.69 602.718 1920.56 601.762C1920.45 600.794 1920.61 599.853 1921.05 598.938C1921.66 597.649 1922.64 596.678 1924.01 596.022C1925.37 595.367 1926.96 595.248 1928.76 595.665L1934.81 597.068ZM1925.14 600.498C1924.96 600.913 1924.96 601.285 1925.13 601.612C1925.31 601.943 1925.62 602.151 1926.05 602.237L1927.7 602.617L1928.86 599.879L1927.21 599.498C1926.77 599.395 1926.35 599.436 1925.98 599.622C1925.6 599.793 1925.32 600.085 1925.14 600.498Z" fill="black"/>
<path d="M1953.17 601.341L1947 615.859L1942.68 614.857L1947.14 604.363L1943.89 603.612L1939.43 614.106L1935.11 613.105L1941.28 598.587L1953.17 601.341Z" fill="black"/>
<path d="M1966.82 604.481L1960.63 618.994L1956.31 617.992L1958.26 613.431L1957.89 613.346L1953.24 617.281L1948.31 616.14L1953.82 611.63C1953.11 610.949 1952.7 610.131 1952.57 609.175C1952.46 608.208 1952.62 607.267 1953.06 606.351C1953.66 605.063 1954.65 604.091 1956.02 603.436C1957.38 602.781 1958.97 602.662 1960.77 603.079L1966.82 604.481ZM1957.14 607.911C1956.97 608.327 1956.97 608.699 1957.13 609.026C1957.32 609.356 1957.63 609.565 1958.06 609.65L1959.7 610.031L1960.86 607.292L1959.22 606.912C1958.77 606.808 1958.36 606.85 1957.98 607.036C1957.61 607.207 1957.33 607.499 1957.14 607.911Z" fill="black"/>
<path d="M1979.55 607.452L1977.84 611.476L1974.27 610.649L1969.82 621.143L1965.49 620.142L1969.95 609.648L1966.38 608.822L1968.09 604.798L1979.55 607.452Z" fill="black"/>
<path d="M1988.84 609.604L1993.16 610.606L1987 625.123L1982.67 624.122L1984.94 618.769L1981.26 617.918L1979 623.27L1974.68 622.269L1980.84 607.751L1985.16 608.753L1982.97 613.894L1986.65 614.745L1988.84 609.604Z" fill="black"/>
<path d="M1989.16 625.624L1995.32 611.106L1999.65 612.107L1996.93 618.539L2004.4 613.209L2007.86 614.01L2001.7 628.528L1997.37 627.527L2000.09 621.095L1992.62 626.425L1989.16 625.624Z" fill="black"/>
<path d="M2017.88 627.858L2019.72 628.283L2016.82 635.084L2012.5 634.083L2013.69 631.306L2003.85 629.027L2010.02 614.51L2014.56 615.561L2010.1 626.055L2013.34 626.806L2017.8 616.312L2022.34 617.364L2017.88 627.858Z" fill="black"/>
<path d="M2028.62 634.763L2028.89 632.777L2024.53 631.766L2023.21 633.511L2018.43 632.404L2029.42 619.003L2034.48 620.175L2033.13 635.81L2028.62 634.763ZM2026.86 628.662L2029.37 629.243L2030.02 624.495L2026.86 628.662Z" fill="black"/>
<defs>
<filter id="filter0_d" x="-448.923" y="0.99646" width="2612.1" height="708.435" filterUnits="userSpaceOnUse" color-interpolation-filters="sRGB">
<feFlood flood-opacity="0" result="BackgroundImageFix"/>
<feColorMatrix in="SourceAlpha" type="matrix" values="0 0 0 0 0 0 0 0 0 0 0 0 0 0 0 0 0 0 127 0"/>
<feOffset/>
<feGaussianBlur stdDeviation="25"/>
<feColorMatrix type="matrix" values="0 0 0 0 0.08 0 0 0 0 1 0 0 0 0 0 0 0 0 1 0"/>
<feBlend mode="normal" in2="BackgroundImageFix" result="effect1_dropShadow"/>
<feBlend mode="normal" in="SourceGraphic" in2="effect1_dropShadow" result="shape"/>
</filter>
</defs>
</svg>
