<svg width="163" height="35" viewBox="0 0 163 35" fill="none" xmlns="http://www.w3.org/2000/svg">
<g clip-path="url(#clip0)">
<path d="M12.7035 15.5308L13.4912 19.1888H19.212L21.1604 15.7802L19.5851 24.7173H27.2129L31.4413 0.524887H23.4404L17.844 10.1686L15.6468 0.524887H7.72888L3.45898 24.7173H11.0868L12.7035 15.5308Z" fill="white"/>
<path d="M51.7129 24.7173H52.7078H55.1537H61.1647L65.5175 19.1888L68.4608 24.7173H76.5861L70.2849 12.9952L80.1512 0.524887H70.6994L66.5124 5.84555L63.7349 0.524887H55.6097L61.7036 11.9976L54.6148 21.0177L51.7129 24.7173Z" fill="white"/>
<path d="M36.9964 24.7173L39.3593 19.1888H43.1732L43.6292 24.7173H48.9355H51.3814L50.8424 21.0593L47.7748 0.566483H41.1419L29.1199 24.7173H36.9964ZM41.1005 14.8242L42.6758 11.2078L42.9245 14.8242H41.1005Z" fill="white"/>
<path d="M86.3696 27.3776L89.4373 10.0439H81.8509L77.5811 34.1531H94.7435L95.9457 27.3776H86.3696Z" fill="#009A17"/>
<path d="M101.625 10.0023L97.3552 34.1115H104.983L109.253 10.0023H101.625Z" fill="#009A17"/>
<path d="M124.882 10.0023L123.099 20.2279L117.627 10.0023H111.823L107.553 34.1115H115.181L116.964 23.969L122.353 34.1115H128.239L132.509 10.0023H124.882Z" fill="#009A17"/>
<path d="M150.46 16.8194L151.62 10.0439H135.08L130.81 34.1531H147.392L148.553 27.3776H139.598L139.971 25.0914H146.356L147.516 18.69H141.132L141.422 16.8194H150.46Z" fill="#009A17"/>
<path d="M2.96158 27.3776L0.598633 34.1531H74.928L76.1302 27.3776H2.96158Z" fill="#009A17"/>
<path d="M82.3071 7.38354L83.5093 0.608017H154.73L152.118 7.38354H82.3071Z" fill="white"/>
<path d="M159.745 1.48094C160.077 1.48094 160.409 1.56408 160.74 1.68878C161.031 1.81348 161.279 1.97975 161.57 2.22916C161.818 2.47857 161.984 2.72797 162.108 3.06051C162.233 3.35149 162.316 3.68403 162.316 4.05814C162.316 4.51538 162.233 4.93106 161.984 5.30517C161.735 5.67927 161.445 6.01182 161.072 6.21965C160.658 6.46906 160.243 6.55219 159.828 6.55219C159.372 6.55219 158.958 6.46906 158.585 6.21965C158.17 5.97025 157.88 5.67927 157.673 5.30517C157.424 4.93106 157.341 4.47381 157.341 4.05814C157.341 3.64246 157.424 3.18522 157.673 2.81111C157.921 2.437 158.212 2.10446 158.585 1.89662C158.875 1.56408 159.289 1.48094 159.745 1.48094ZM159.745 1.97975C159.372 1.97975 159.041 2.06289 158.709 2.22916C158.419 2.39543 158.17 2.64484 158.004 2.93581C157.797 3.22678 157.756 3.60089 157.756 3.93343C157.756 4.26597 157.839 4.64008 158.004 4.93106C158.212 5.22203 158.419 5.47144 158.751 5.63771C159.041 5.80398 159.414 5.88711 159.787 5.88711C160.16 5.88711 160.492 5.80398 160.823 5.63771C161.114 5.47144 161.362 5.22203 161.528 4.93106C161.694 4.64008 161.777 4.26597 161.777 3.93343C161.777 3.60089 161.694 3.22678 161.528 2.93581C161.362 2.64484 161.114 2.39543 160.823 2.22916C160.45 2.06289 160.119 1.97975 159.745 1.97975ZM159.165 5.30517H158.626V2.64484H159.87C160.077 2.64484 160.243 2.6864 160.367 2.72797C160.492 2.81111 160.616 2.89424 160.658 2.97738C160.74 3.06051 160.74 3.22678 160.74 3.35149C160.74 3.55932 160.657 3.72559 160.533 3.8503C160.409 3.975 160.243 4.0997 159.994 4.0997C160.119 4.14127 160.201 4.18284 160.284 4.30754C160.367 4.39068 160.45 4.55695 160.575 4.72322L160.906 5.2636H160.243L159.994 4.84792C159.911 4.64008 159.787 4.51538 159.745 4.43224C159.663 4.34911 159.621 4.26597 159.497 4.22441C159.414 4.18284 159.331 4.14127 159.248 4.14127H159.124V5.30517H159.165ZM159.165 3.10208V3.80873H159.58C159.787 3.80873 159.953 3.76716 160.036 3.72559C160.119 3.64246 160.201 3.55932 160.201 3.43462C160.201 3.35149 160.16 3.22678 160.077 3.18522C159.994 3.10208 159.828 3.10208 159.663 3.10208H159.165Z" fill="white"/>
</g>
<path d="M149.842 11.7971V34.1115H159.617V11.7971L154.735 7.09668L149.842 11.7971ZM155.827 12.0526C155.827 12.704 155.334 13.2405 154.735 13.2405C154.137 13.2405 153.644 12.704 153.644 12.0526C153.644 11.4012 154.137 10.8647 154.735 10.8647C155.334 10.8519 155.827 11.3884 155.827 12.0526Z" fill="#FF0000"/>
<path d="M154.278 13.1255C154.219 13.1 154.161 13.0617 154.114 13.0234C154.149 12.934 154.184 12.8445 154.196 12.7424C154.231 12.6019 154.231 12.4358 154.219 12.2698C154.219 12.257 154.219 12.2314 154.219 12.2187C154.219 12.1676 154.208 12.1037 154.208 12.0526C154.172 11.7716 154.102 11.4651 154.008 11.1713C153.855 10.7115 153.633 10.2389 153.374 9.84289C153.081 9.39584 152.834 9.16592 152.658 9.11483C152.623 9.10206 152.588 9.08928 152.553 9.10206C152.541 9.10206 152.529 9.10206 152.529 9.10206C152.447 9.1276 152.389 9.22979 152.353 9.39584L152.13 9.61298C152.154 9.26811 152.236 9.03819 152.377 8.93601C152.4 8.91046 152.435 8.89769 152.471 8.88492C152.518 8.87214 152.553 8.85937 152.6 8.87214C152.67 8.87214 152.752 8.89769 152.823 8.94878C153.116 9.11483 153.398 9.51079 153.539 9.71516C153.773 10.0728 154.008 10.5454 154.172 11.0435C154.254 11.2735 154.325 11.5162 154.372 11.7588C154.384 11.8355 154.395 11.9121 154.407 11.9888C154.419 12.0654 154.431 12.142 154.431 12.2187C154.431 12.2314 154.431 12.2442 154.431 12.257C154.431 12.5763 154.395 12.8829 154.278 13.1255Z" fill="#FF2206"/>
<path d="M154.829 0.608017V10.9414C154.829 11.6183 154.688 12.0398 154.43 12.1931C154.419 12.1931 154.419 12.2059 154.407 12.2059C154.395 12.2059 154.395 12.2187 154.383 12.2187C154.325 12.2442 154.266 12.257 154.207 12.257C154.196 12.257 154.196 12.257 154.184 12.257C153.996 12.257 153.808 12.1676 153.644 12.0654C153.644 12.0526 153.644 12.0526 153.644 12.0398C153.644 11.9632 153.644 11.8866 153.668 11.8227C153.832 11.9376 154.031 12.0526 154.207 12.0398C154.231 12.0398 154.266 12.0271 154.289 12.0271C154.301 12.0271 154.313 12.0143 154.325 12.0143C154.348 12.0015 154.372 11.9887 154.395 11.9632C154.477 11.8866 154.536 11.7588 154.583 11.5928C154.618 11.414 154.642 11.1968 154.642 10.9286V0.608017H154.829Z" fill="white"/>
<path d="M154.571 11.6056C154.536 11.8099 154.489 12.0015 154.43 12.2059C154.43 12.2187 154.418 12.2314 154.418 12.2442C154.36 12.4103 154.289 12.5763 154.195 12.7424C154.148 12.819 154.102 12.8956 154.055 12.9723C154.008 12.9212 153.949 12.8829 153.914 12.819C154.031 12.6274 154.125 12.4358 154.195 12.257C154.207 12.2442 154.207 12.2187 154.219 12.2059C154.242 12.142 154.266 12.0782 154.278 12.0271C154.313 11.9249 154.336 11.8355 154.348 11.7333C154.407 11.4395 154.418 11.1585 154.395 10.903C154.371 10.6093 154.301 10.341 154.219 10.1111C153.937 9.3192 153.409 8.7955 153.081 8.66778C153.045 8.655 153.01 8.64223 152.987 8.62946C152.846 8.60391 152.74 8.62946 152.67 8.70609C152.635 8.74441 152.611 8.7955 152.588 8.85937C152.564 8.92323 152.552 8.99987 152.541 9.07651C152.541 9.11483 152.541 9.15315 152.541 9.19147L152.353 9.37029C152.341 9.24256 152.341 9.07651 152.376 8.92323C152.4 8.78273 152.447 8.655 152.541 8.56559C152.658 8.43786 152.822 8.38677 153.034 8.42509C153.104 8.43786 153.186 8.46341 153.257 8.5145C153.656 8.73164 154.148 9.29365 154.418 10.0345C154.512 10.3027 154.571 10.5837 154.606 10.852C154.618 11.1202 154.606 11.3629 154.571 11.6056Z" fill="white"/>
<path d="M153.972 28.3056C154.288 28.3617 154.528 28.5197 154.693 28.7795C154.89 28.5197 155.169 28.4144 155.53 28.4635C155.843 28.5057 156.096 28.6531 156.289 28.9059C156.478 29.1551 156.573 29.4887 156.573 29.9064L156.573 31.4335L152.887 30.7858L152.887 29.3851C152.887 29.02 152.989 28.7356 153.192 28.532C153.396 28.3284 153.656 28.2529 153.972 28.3056ZM153.729 29.522L153.729 29.9907L154.309 30.0907L154.309 29.6273C154.309 29.5325 154.284 29.4518 154.235 29.3851C154.182 29.3149 154.11 29.2728 154.019 29.2587C153.931 29.2447 153.861 29.2622 153.808 29.3114C153.756 29.357 153.729 29.4272 153.729 29.522ZM155.42 29.3851C155.325 29.3675 155.25 29.3833 155.193 29.4325C155.137 29.4781 155.109 29.5536 155.109 29.6589L155.109 30.2329L155.73 30.3435L155.73 29.7748C155.73 29.673 155.702 29.587 155.646 29.5167C155.587 29.4465 155.511 29.4026 155.42 29.3851Z" fill="white"/>
<path d="M156.652 26.4536C156.652 26.8258 156.559 27.1505 156.373 27.4278C156.187 27.7052 155.943 27.9018 155.641 28.0176C155.339 28.1335 155.016 28.1616 154.672 28.1019C154.145 28.0106 153.703 27.7631 153.345 27.3594C152.987 26.9557 152.808 26.4659 152.808 25.8902C152.808 25.332 153.004 24.8984 153.398 24.5895C153.787 24.277 154.247 24.1647 154.777 24.2525C155.311 24.3437 155.757 24.5895 156.115 24.9897C156.473 25.3864 156.652 25.8744 156.652 26.4536ZM155.451 27.0224C155.637 26.8714 155.73 26.6537 155.73 26.3694C155.73 26.085 155.637 25.8305 155.451 25.6058C155.262 25.3776 155.021 25.239 154.73 25.1898C154.439 25.1371 154.2 25.1881 154.014 25.3425C153.824 25.497 153.729 25.7164 153.729 26.0008C153.729 26.2851 153.824 26.5379 154.014 26.7591C154.2 26.9767 154.439 27.1119 154.73 27.1645C155.025 27.2172 155.265 27.1698 155.451 27.0224Z" fill="white"/>
<path d="M156.573 24.1311L152.887 23.4834L152.887 22.7515L154.814 21.7931L152.887 21.4508L152.887 20.5134L156.573 21.1611L156.573 21.8878L154.646 22.8463L156.573 23.1885L156.573 24.1311Z" fill="white"/>
<path d="M156.652 19.1085C156.652 19.5578 156.531 19.9054 156.289 20.1511C156.046 20.3933 155.737 20.4811 155.362 20.4144L152.887 19.9773L152.887 19.0347L155.272 19.456C155.581 19.5122 155.736 19.3665 155.736 19.0189C155.736 18.6749 155.581 18.4748 155.272 18.4186L152.887 18.0026L152.887 17.06L155.362 17.4971C155.776 17.5708 156.096 17.7533 156.32 18.0447C156.541 18.3361 156.652 18.6907 156.652 19.1085Z" fill="white"/>
<path d="M156.652 15.825C156.652 16.2182 156.571 16.5359 156.41 16.7781C156.245 17.0203 156.02 17.1801 155.736 17.2573L155.304 16.42C155.609 16.3217 155.762 16.097 155.762 15.746C155.762 15.4581 155.678 15.2984 155.509 15.2668C155.393 15.2457 155.297 15.3265 155.22 15.509C155.206 15.5371 155.16 15.6652 155.083 15.8934C154.974 16.2164 154.826 16.4604 154.64 16.6254C154.454 16.7904 154.2 16.8448 153.877 16.7886C153.54 16.729 153.278 16.5692 153.092 16.3094C152.903 16.0461 152.808 15.7354 152.808 15.3774C152.808 15.0684 152.882 14.8034 153.029 14.5822C153.173 14.3575 153.38 14.1925 153.65 14.0872L154.082 14.8929C153.826 15.0087 153.698 15.1948 153.698 15.4511C153.698 15.6722 153.777 15.7986 153.935 15.8302C154.023 15.8513 154.096 15.8197 154.156 15.7354C154.212 15.6512 154.281 15.4932 154.361 15.2615C154.417 15.1 154.47 14.9684 154.519 14.8666C154.568 14.7647 154.64 14.6594 154.735 14.5506C154.826 14.4383 154.944 14.3628 155.088 14.3242C155.228 14.2855 155.395 14.282 155.588 14.3136C155.936 14.3768 156.201 14.5418 156.383 14.8086C156.562 15.0754 156.652 15.4142 156.652 15.825Z" fill="white"/>
<defs>
<clipPath id="clip0">
<rect width="161.676" height="34.0855" fill="white" transform="translate(0.598633 0.192352)"/>
</clipPath>
</defs>
</svg>
